<?xml version="1.0" standalone="no"?>
<!DOCTYPE svg PUBLIC "-//W3C//DTD SVG 1.1//EN" "http://www.w3.org/Graphics/SVG/1.1/DTD/svg11.dtd" >
<svg xmlns="http://www.w3.org/2000/svg" xmlns:xlink="http://www.w3.org/1999/xlink" version="1.1">
<metadata>
Created by FontForge 20190801 at Sun Jul 12 17:01:44 2020
 By root
You may use this version of "BELLADONA Stencil" for personal use.

* If you want to use it for commercial use, you HAVE to contact me  [tanoveron@gmail.com]

-You may not Sell or Distribute my Fonts for profit or alter them in
any way without asking me first.  [tanoveron@gmail.com]

-------------------------------------------------

Created by Tano Veron

-------------------------------------------------

Copyright A^(c) 2015 Tano Veron. All Rights Reserved.

-----------------------

More about me, please visit:

www.be.net/tanoveron
fb.me/tanoveron
</metadata>
<defs>
<font id="mr_BelladonaStencilG" horiz-adv-x="400" >
  <font-face 
    font-family="mr_BelladonaStencilG"
    font-weight="400"
    font-stretch="normal"
    units-per-em="1000"
    panose-1="0 0 0 0 0 0 0 0 0 0"
    ascent="750"
    descent="-250"
    x-height="640"
    cap-height="640"
    bbox="-10 -500 952 850"
    underline-thickness="50"
    underline-position="-100"
    unicode-range="U+001D-2019"
  />
<missing-glyph 
 />
    <glyph glyph-name=".notdef" 
 />
    <glyph glyph-name=".null" horiz-adv-x="0" 
 />
    <glyph glyph-name=".null" horiz-adv-x="0" 
 />
    <glyph glyph-name="nonmarkingreturn" horiz-adv-x="374" 
 />
    <glyph glyph-name="space" unicode=" " horiz-adv-x="314" 
 />
    <glyph glyph-name="A" unicode="A" horiz-adv-x="514" 
d="M161 137q-30 -45 -44.5 -91.5t-20.5 -87.5t-6 -72.5v-45.5h-96q0 58 3.5 121.5t26.5 123.5q23 63 57.5 116.5t70.5 106.5q17 25 35.5 51t35 54.5t30 59.5t21.5 66h-116v101h312v-800h-101v35v403v224q-8 -34 -21.5 -66t-31.5 -62.5t-38.5 -61.5t-42.5 -62
q-20 -29 -38.5 -57t-35.5 -56zM340 74v-87h-207q5 21 11.5 43t16.5 44h179z" />
    <glyph glyph-name="B" unicode="B" horiz-adv-x="494" 
d="M274 409q82 -34 126 -100q25 -38 34.5 -76t10.5 -69t-2.5 -51.5t-4.5 -23.5q-15 -57 -45 -98t-68 -68.5t-80.5 -44t-82.5 -25t-75 -11t-57 -2.5q-12 0 -20 0.5t-10 0.5v8v311l99 75v-289q33 4 70 14t71 29.5t61 50t41 75.5q1 2 3 15.5t1.5 33t-7 43t-22.5 47.5
q-40 58 -137 81q-14 -11 -25 -19.5t-29 -22t-47.5 -36t-78.5 -59.5v124l178 136q51 39 51 52v25v7h-7l-123 -1v-106l-99 -75v280h60h171q23 0 41.5 -1.5t35.5 -18.5t18.5 -37t1.5 -49v-24q0 -30 -12.5 -52.5t-41.5 -48.5z" />
    <glyph glyph-name="C" unicode="C" horiz-adv-x="410" 
d="M-4 240q0 76 29 145t79 124.5t118.5 93.5t147.5 51l11 2v-102l-7 -1q-61 -7 -111 -35t-86 -70.5t-55.5 -96t-19.5 -111.5t20.5 -111.5t57.5 -96.5t88.5 -71t112.5 -35v-102l-11 2q-79 13 -147.5 51t-118.5 93t-79 124.5t-29 145.5z" />
    <glyph glyph-name="J" unicode="J" horiz-adv-x="432" 
d="M375 460q1 -79 0 -152t-11.5 -137.5t-33.5 -119t-66 -97.5q-45 -46 -109 -74t-155 -40v102q133 20 194 81q31 32 48 76.5t24 100t8 121t1 138.5v181h100v-180z" />
    <glyph glyph-name="D" unicode="D" horiz-adv-x="440" 
d="M388 236q0 -70 -19 -133.5t-53 -115t-81 -88t-102 -51.5q-19 -5 -42 -7.5t-43 -4.5q-24 -2 -48 -2v91q66 -1 119.5 21t91 62.5t58 98.5t20.5 129q0 51 -12.5 97t-35 84.5t-54 66.5t-69.5 42q-2 1 -31.5 9.5t-86.5 10.5v97q22 -1 46 -4q20 -2 43.5 -6.5t44.5 -10.5
q55 -17 101.5 -54t80.5 -88t53 -113.5t19 -130.5zM0 517q38 -2 62.5 -7t35.5 -8v-532q-11 -3 -35.5 -8t-62.5 -7v562z" />
    <glyph glyph-name="E" unicode="E" horiz-adv-x="384" 
d="M173 336q-11 5 -18.5 7t-15.5 3v101q22 -1 38.5 -6t31.5 -11l13 -4q10 -4 20 -2t19.5 6.5t17 10t12.5 9.5l67 -76q-59 -51 -123 -51q-13 0 -24 2t-23 5q-3 2 -6.5 3t-8.5 3zM109 -58h245v-102h-346v2v790v8h346v-101h-245v-421v-176z" />
    <glyph glyph-name="F" unicode="F" horiz-adv-x="379" 
d="M101 -160h-101v792v8h346v-101h-245v-421v-278zM162 337q-11 4 -17 6t-15 3v100q23 0 38.5 -5t29.5 -10l16 -5q10 -4 20.5 -2.5t19.5 6t16.5 10.5l12.5 10l67 -76q-29 -26 -60.5 -39t-63.5 -13q-24 0 -45 8q-5 2 -10 3.5t-9 3.5z" />
    <glyph glyph-name="G" unicode="G" horiz-adv-x="534" 
d="M104 269q19 -101 79 -170t167 -117v-106q-57 21 -111.5 53t-100.5 77.5t-80 105.5t-50 138q-11 56 -6.5 108.5t24 98.5t53 82t79.5 59q30 15 59 23.5t59 12.5t62 5t69 1h18v-96h-18q-35 0 -63 -0.5t-52 -3.5t-45.5 -9t-43.5 -17q-38 -20 -60.5 -48.5t-33 -62t-11 -68.5
t5.5 -66zM478 -62v-99q-24 5 -48 11.5t-49 15.5v444h-142v95h239v-467z" />
    <glyph glyph-name="H" unicode="H" horiz-adv-x="436" 
d="M100 416h194v-91h-194v-67h194v-92h-194v-326h-100v800h100v-224v0zM323 640h101v-800h-101v800z" />
    <glyph glyph-name="I" unicode="I" horiz-adv-x="155" 
d="M127 -160h-105v800h105v-800z" />
    <glyph glyph-name="K" unicode="K" horiz-adv-x="491" 
d="M278 326q38 -48 71.5 -99.5t55.5 -111.5q12 -32 18.5 -67t9.5 -71t3.5 -71t0.5 -66h-95q0 59 -3.5 122.5t-22.5 114.5q-17 46 -43 87t-58 83q8 11 26.5 33.5t36.5 45.5zM188 260q-22 -30 -40 -59t-30 -60q-17 -45 -19.5 -94.5t-2.5 -100.5v-106h-96v800h96v-344
q15 22 31 43t33 42q24 30 47.5 60t41.5 61.5t29 65.5t11 72h96q0 -40 -9.5 -76.5t-26 -71t-38 -67.5t-45.5 -66z" />
    <glyph glyph-name="L" unicode="L" horiz-adv-x="334" 
d="M101 640v-682l-101 -104v786h101zM28 -160l89 92h228v-92h-244h-73z" />
    <glyph glyph-name="M" unicode="M" horiz-adv-x="508" 
d="M358 336q-32 -44 -63.5 -88.5t-58.5 -95.5q-29 52 -63 99t-70 100q-52 85 -74 153t-29 130v6h91q2 -29 7 -56t15 -53q21 -55 51 -103t65 -98l7 -11l7 11q35 50 65 98t51 103q10 26 15 53t7 56h92q-5 -58 -28.5 -132.5t-86.5 -171.5zM372 303q38 57 62.5 104.5t38.5 86.5
v-654h-101v463zM0 490q15 -39 39 -86.5t61 -101.5v-462h-100v650z" />
    <glyph glyph-name="N" unicode="N" horiz-adv-x="441" 
d="M0 463q15 -29 39.5 -58.5t62.5 -54.5v-510h-102v623zM325 640h101v-800h-101v222q0 48 -15 90t-34 74.5t-37.5 54t-25.5 28.5q-24 23 -52.5 40.5t-57.5 36.5q-28 21 -46.5 45t-30.5 48t-18 46.5t-8 40.5v74h102v-58q0 -45 17.5 -71.5t44.5 -46.5t59 -38.5t61 -46.5
q8 -7 18 -18.5t23 -26.5v306z" />
    <glyph glyph-name="O" unicode="O" horiz-adv-x="484" 
d="M367 412q0 50 -31 86l70 72q29 -30 45.5 -70.5t16.5 -87.5t-18 -89t-49.5 -73.5t-73 -49.5t-89.5 -18q-43 0 -81 15t-69 41l70 73q17 -13 37 -20.5t43 -7.5q27 0 50.5 10t41 27.5t27.5 41t10 50.5zM280 101q23 0 39.5 5t30.5 18l67 -74q-38 -33 -73 -41.5t-62 -8.5h-3
q-22 0 -42.5 5.5t-39.5 12.5q-33 11 -46.5 11.5t-20.5 -7.5l-73 69q21 22 44 30t45.5 8t43 -5.5t37.5 -10.5q15 -5 28.5 -8.5t24.5 -3.5zM280 -59q23 -1 39.5 4.5t30.5 18.5l67 -75q-37 -32 -72.5 -40.5t-62.5 -8.5h-3q-22 0 -42.5 5.5t-39.5 11.5q-34 11 -46.5 12t-20.5 -7
l-73 69q21 22 44 30t45.5 8t43 -5t37.5 -11q15 -5 28.5 -8.5t24.5 -3.5zM109 412q0 -46 28 -80l-70 -73q-28 31 -43.5 70t-15.5 83q0 48 18 90t49 73t73 49t90 18q42 0 79 -13.5t67 -37.5l-70 -73q-16 11 -35 17.5t-41 6.5q-27 0 -50.5 -10t-41 -27.5t-27.5 -41.5t-10 -51z
" />
    <glyph glyph-name="P" unicode="P" horiz-adv-x="449" 
d="M323 640q20 0 38 -2t35 -19t19.5 -39t2.5 -60v-32q0 -18 -4.5 -34t-19.5 -38t-42.5 -53t-74 -77.5t-114.5 -112.5t-163 -158v140l216 203q34 33 54.5 54t31 34.5t13.5 22.5t3 19v51h-217v-245l-101 -97v443h33h290zM0 -27l101 97v-230h-101v133z" />
    <glyph glyph-name="Q" unicode="Q" horiz-adv-x="434" 
d="M222 670q45 0 84.5 -17t68.5 -46t46 -68.5t17 -84.5v-423q0 -38 -12.5 -72.5t-35 -62t-52.5 -47.5t-66 -28q-3 31 3.5 62t16.5 56q20 17 32.5 40.5t12.5 51.5v423q0 24 -9 45.5t-24.5 37t-36.5 24.5t-45 9t-45 -9t-37 -24.5t-25 -37t-9 -45.5v-423q0 -22 8.5 -42
t22.5 -35q-6 -22 -11.5 -50.5t-7.5 -61.5q-50 27 -81 77.5t-31 111.5v423q0 45 17 84.5t46.5 68.5t68.5 46t84 17zM275 -14q-12 -34 -22 -69t-12 -69.5t7 -68.5t35 -65l-67 -60q-32 37 -47.5 76t-19 78t3.5 78.5t20 78.5q8 27 13.5 47.5t6 36.5t-4.5 28.5t-17 23.5l63 67
q23 -21 35 -43.5t16 -45.5t1 -46t-11 -47z" />
    <glyph glyph-name="R" unicode="R" horiz-adv-x="513" 
d="M221 95q9 -37 32 -73.5t52 -54.5q15 -9 30.5 -14.5t34.5 -8.5t43 -3.5t57 -0.5v-100q-55 0 -101.5 5t-86 22.5t-72.5 50t-62 88.5zM100 -6v-153h-100v189l216 264q34 41 55 67.5t33 44.5t16 31.5t4 29.5v73h-224v-340l-100 -123v563h330q17 0 35.5 -2t35.5 -19
q9 -9 13.5 -19t6.5 -23.5t2 -31.5v-42v-36q0 -29 -7 -53.5t-25 -53.5t-48.5 -67t-76.5 -95z" />
    <glyph glyph-name="S" unicode="S" horiz-adv-x="410" 
d="M242 334q25 -17 53.5 -38.5t52.5 -49.5t40 -64t16 -81q0 -63 -22.5 -112.5t-61.5 -84t-92 -52.5t-115 -18q-29 0 -58 3.5t-55 8.5v102q23 -5 55.5 -9t67 -3t67.5 9t58 28v1q14 10 24.5 25.5t17 32.5t10 35t3.5 34q0 33 -16.5 59t-41 47.5t-53 40t-53.5 36.5
q-51 40 -78.5 86t-29.5 96q-2 80 62 136q25 23 55.5 35.5t61 14.5t58.5 -7t49 -28l-69 -74q-23 15 -44.5 12.5t-37 -15.5t-25 -32.5t-8.5 -37.5q0 -23 10.5 -42.5t26.5 -36t35 -31t37 -26.5z" />
    <glyph glyph-name="T" unicode="T" horiz-adv-x="471" 
d="M308 539v101h146v-101h-146zM278 640v-800h-101l-1 699h-176v101h278z" />
    <glyph glyph-name="U" unicode="U" horiz-adv-x="500" 
d="M400 640h46v-590q0 -72 -32.5 -121.5t-81 -74.5t-105 -26.5t-105 22.5t-81.5 73t-33 125v592h102v-572q-2 -59 28 -96t88 -37q29 0 51 11t36.5 29t21.5 42t7 51v572h58zM142 541v99h172v-99h-172z" />
    <glyph glyph-name="V" unicode="V" horiz-adv-x="550" 
d="M105 640l99 -377l108 -413l-2 -10h-97l-213 800h105zM418 640h104l-194 -730l-52 198z" />
    <glyph glyph-name="W" unicode="W" horiz-adv-x="778" 
d="M630 640h104l-193 -733l-52 198zM519 640l-85 -326l-52 197l33 129h104zM214 640h104l207 -792l-3 -8h-96l-60 222l-40 -152l-51 197l40 151v1zM104 640l139 -530l68 -259l-3 -11h-97l-211 800h104z" />
    <glyph glyph-name="X" unicode="X" horiz-adv-x="530" 
d="M319 291q42 -53 71.5 -103.5t49 -104.5t29 -113.5t9.5 -129.5h-100q0 54 -7 102t-22 93t-38.5 88t-56.5 87q5 6 23 28t42 53zM404 474q-20 -42 -46 -79.5t-58 -79.5l-32 -40t-34 -41q-40 -50 -65.5 -91t-40.5 -85t-21 -96t-6 -122h-101q0 69 4.5 124.5t19 106t41.5 99.5
t72 104q22 26 46.5 55t48.5 60.5t45 63.5t36 64q16 35 22 62.5t6 60.5h101q0 -44 -8.5 -81.5t-29.5 -84.5zM157 517q11 -25 26 -48.5t32 -46.5q-16 -23 -32.5 -44.5t-31.5 -39.5q-25 33 -47 66t-38 70h-1q-21 47 -29.5 84.5t-8.5 81.5h101q0 -33 6 -60.5t23 -62.5z" />
    <glyph glyph-name="Y" unicode="Y" horiz-adv-x="455" 
d="M164 168q32 24 57 45t43 38v-411h-100v328zM214 388q42 55 73.5 116.5t33.5 135.5h100q0 -66 -21 -126.5t-56 -115t-81.5 -102.5t-98.5 -90v83q-35 40 -65 85t-54 97q-21 47 -29 85.5t-8 83.5h100q0 -71 30.5 -132t75.5 -120z" />
    <glyph glyph-name="Z" unicode="Z" horiz-adv-x="502" 
d="M137 60q-6 -14 -10 -30t-8 -40.5t-7 -60t-6 -89.5h-98q0 62 5 128t31 130q27 66 70.5 122t91.5 111q38 45 72.5 87.5t57.5 87.5q14 30 24 63t12 71h95l-1 -18q-2 -51 -19 -99.5t-42.5 -93.5t-57.5 -86t-65 -78q-45 -51 -84 -100.5t-61 -104.5zM342 638q-1 -18 -6.5 -43.5
t-18.5 -55.5h-169v-94h-101v195h295v-2zM137 -160q0 31 1.5 56.5t3.5 43.5h197v88h101v-188h-101h-202z" />
    <glyph glyph-name="a" unicode="a" horiz-adv-x="493" 
d="M310 137q-17 28 -36 56t-39 57q-43 63 -80.5 123.5t-52.5 128.5v-224v-403v-35h-102v786v14h313v-101h-116q8 -35 21.5 -66t30 -59.5t34.5 -54.5t35 -51q36 -53 70.5 -106.5t57.5 -116.5q23 -60 27 -123t4 -122h-96v45.5t-6 72.5t-20.5 87.5t-44.5 91.5zM310 74
q9 -22 16 -44t12 -43h-208v87h180z" />
    <glyph glyph-name="b" unicode="b" horiz-adv-x="494" 
d="M274 409q82 -34 126 -100q25 -38 34.5 -76t10.5 -69t-2.5 -51.5t-4.5 -23.5q-15 -57 -45 -98t-68 -68.5t-80.5 -44t-82.5 -25t-75 -11t-57 -2.5q-12 0 -20 0.5t-10 0.5v8v311l99 75v-289q33 4 70 14t71 29.5t61 50t41 75.5q1 2 3 15.5t1.5 33t-7 43t-22.5 47.5
q-40 58 -137 81q-14 -11 -25 -19.5t-29 -22t-47.5 -36t-78.5 -59.5v124l178 136q51 39 51 52v25v7h-7l-123 -1v-106l-99 -75v280h60h171q23 0 41.5 -1.5t35.5 -18.5t18.5 -37t1.5 -49v-24q0 -30 -12.5 -52.5t-41.5 -48.5z" />
    <glyph glyph-name="c" unicode="c" horiz-adv-x="410" 
d="M-4 240q0 76 29 145t79 124.5t118.5 93.5t147.5 51l11 2v-102l-7 -1q-61 -7 -111 -35t-86 -70.5t-55.5 -96t-19.5 -111.5t20.5 -111.5t57.5 -96.5t88.5 -71t112.5 -35v-102l-11 2q-79 13 -147.5 51t-118.5 93t-79 124.5t-29 145.5z" />
    <glyph glyph-name="d" unicode="d" horiz-adv-x="402" 
d="M388 236q0 -70 -19 -133.5t-53 -115t-81 -88t-102 -51.5q-19 -5 -42 -7.5t-43 -4.5q-24 -2 -48 -2v91q66 -1 119.5 21t91 62.5t58 98.5t20.5 129q0 51 -12.5 97t-35 84.5t-54 66.5t-69.5 42q-2 1 -31.5 9.5t-86.5 10.5v97q22 -1 46 -4q20 -2 43.5 -6.5t44.5 -10.5
q55 -17 101.5 -54t80.5 -88t53 -113.5t19 -130.5zM0 517q38 -2 62.5 -7t35.5 -8v-532q-11 -3 -35.5 -8t-62.5 -7v562z" />
    <glyph glyph-name="e" unicode="e" horiz-adv-x="384" 
d="M165 336q-11 5 -18.5 7t-15.5 3v101q22 -1 38.5 -6t31.5 -11l13 -4q10 -4 20 -2t19.5 6.5t17 10t12.5 9.5l67 -76q-59 -51 -123 -51q-13 0 -24 2t-23 5q-3 2 -6.5 3t-8.5 3zM101 -58h245v-102h-346v2v790v8h346v-101h-245v-421v-176z" />
    <glyph glyph-name="f" unicode="f" horiz-adv-x="379" 
d="M101 -160h-101v792v8h346v-101h-245v-421v-278zM162 337q-11 4 -17 6t-15 3v100q23 0 38.5 -5t29.5 -10l16 -5q10 -4 20.5 -2.5t19.5 6t16.5 10.5l12.5 10l67 -76q-29 -26 -60.5 -39t-63.5 -13q-24 0 -45 8q-5 2 -10 3.5t-9 3.5z" />
    <glyph glyph-name="g" unicode="g" horiz-adv-x="515" 
d="M104 269q19 -101 79 -170t167 -117v-106q-57 21 -111.5 53t-100.5 77.5t-80 105.5t-50 138q-11 56 -6.5 108.5t24 98.5t53 82t79.5 59q30 15 59 23.5t59 12.5t62 5t69 1h18v-96h-18q-35 0 -63 -0.5t-52 -3.5t-45.5 -9t-43.5 -17q-38 -20 -60.5 -48.5t-33 -62t-11 -68.5
t5.5 -66zM478 -62v-99q-24 5 -48 11.5t-49 15.5v539h97v-467z" />
    <glyph glyph-name="h" unicode="h" horiz-adv-x="465" 
d="M100 416h194v-91h-194v-67h194v-92h-194v-326h-100v800h100v-224zM323 640h101v-800h-101v800z" />
    <glyph glyph-name="i" unicode="i" horiz-adv-x="138" 
d="M127 -160h-105v800h105v-800z" />
    <glyph glyph-name="j" unicode="j" horiz-adv-x="431" 
d="M394 459q0 -79 -1.5 -152t-12 -137.5t-33.5 -119t-66 -97.5q-45 -46 -109 -73.5t-154 -39.5v101q66 10 114 30.5t78 50.5q32 32 48.5 76.5t24 100t8.5 121t1 138.5v60l102 104v-163zM370 640l-98 -100h-213v100h311z" />
    <glyph glyph-name="k" unicode="k" horiz-adv-x="491" 
d="M278 326q38 -48 71.5 -99.5t55.5 -111.5q12 -32 18.5 -67t9.5 -71t3.5 -71t0.5 -66h-95q0 59 -3.5 122.5t-22.5 114.5q-17 46 -43 87t-58 83q8 11 26.5 33.5t36.5 45.5zM188 260q-22 -30 -40 -59t-30 -60q-17 -45 -19.5 -94.5t-2.5 -100.5v-106h-96v800h96v-344
q15 22 31 43t33 42q24 30 47.5 60t41.5 61.5t29 65.5t11 72h96q0 -40 -9.5 -76.5t-26 -71t-38 -67.5t-45.5 -66z" />
    <glyph glyph-name="l" unicode="l" horiz-adv-x="373" 
d="M101 -42l-101 -104v786h101v-682zM117 -68h228v-92h-244h-73z" />
    <glyph glyph-name="m" unicode="m" horiz-adv-x="534" 
d="M358 336q-32 -44 -63.5 -88.5t-58.5 -95.5q-29 52 -63 99t-70 100q-52 85 -74 153t-29 130v6h91q2 -29 7 -56t15 -53q21 -55 51 -103t65 -98l7 -11l7 11q35 50 65 98t51 103q10 26 15 53t7 56h92q-5 -58 -28.5 -132.5t-86.5 -171.5zM372 303q38 57 62.5 104.5t38.5 86.5
v-654h-101v463zM0 490q15 -39 39 -86.5t61 -101.5v-462h-100v650z" />
    <glyph glyph-name="n" unicode="n" horiz-adv-x="464" 
d="M0 463q15 -29 39.5 -58.5t62.5 -54.5v-510h-102v623zM325 640h101v-800h-101v222q0 48 -15 90t-34 74.5t-37.5 54t-25.5 28.5q-24 23 -52.5 40.5t-57.5 36.5q-28 21 -46.5 45t-30.5 48t-18 46.5t-8 40.5v74h102v-58q0 -45 17.5 -71.5t44.5 -46.5t59 -38.5t61 -46.5
q8 -7 18 -18.5t23 -26.5v306z" />
    <glyph glyph-name="o" unicode="o" horiz-adv-x="484" 
d="M370 412q0 25 -8.5 47t-23.5 39l70 72q29 -30 45.5 -70.5t16.5 -87.5t-18 -89t-49 -73.5t-73 -49.5t-89 -18q-44 0 -82 15t-69 41l71 73q16 -13 36.5 -20.5t43.5 -7.5q27 0 50.5 10t41 27.5t27.5 41t10 50.5zM282 101q24 0 40 5t30 18l67 -74q-37 -33 -72 -41.5t-62 -8.5
h-3q-23 0 -43.5 5.5t-39.5 12.5q-33 11 -46 11.5t-20 -7.5l-74 69q21 22 44 30t45.5 8t43.5 -5.5t38 -10.5q15 -5 28 -8.5t24 -3.5zM282 -59q24 -1 40 4.5t30 18.5l67 -75q-37 -32 -72.5 -40.5t-61.5 -8.5h-3q-23 0 -43.5 5.5t-39.5 11.5q-34 11 -46.5 12t-19.5 -7l-74 69
q21 22 44 30t45.5 8t43.5 -5t38 -11q15 -5 28 -8.5t24 -3.5zM111 412q0 -23 7.5 -43t20.5 -37l-69 -73q-28 31 -44 70t-16 83q0 48 18 90t49.5 73t73.5 49t90 18q42 0 78.5 -13.5t66.5 -37.5l-70 -73q-16 11 -34.5 17.5t-40.5 6.5q-27 0 -51 -10t-41.5 -27.5t-27.5 -41.5
t-10 -51z" />
    <glyph glyph-name="p" unicode="p" horiz-adv-x="453" 
d="M323 640q20 0 38 -2t35 -19t19.5 -39t2.5 -60v-32q0 -18 -4.5 -34t-19.5 -38t-42.5 -53t-74 -77.5t-114.5 -112.5t-163 -158v140l216 203q34 33 54.5 54t31 34.5t13.5 22.5t3 19v51h-217v-245l-101 -97v443h33h290zM0 -27l101 97v-230h-101v133z" />
    <glyph glyph-name="q" unicode="q" horiz-adv-x="434" 
d="M222 670q45 0 84.5 -17t68.5 -46t46 -68.5t17 -84.5v-423q0 -38 -12.5 -72.5t-35 -62t-52.5 -47.5t-66 -28q-3 31 3.5 62t16.5 56q20 17 32.5 40.5t12.5 51.5v423q0 24 -9 45.5t-24.5 37t-36.5 24.5t-45 9t-45 -9t-37 -24.5t-25 -37t-9 -45.5v-423q0 -22 8.5 -42
t22.5 -35q-6 -22 -11.5 -50.5t-7.5 -61.5q-50 27 -81 77.5t-31 111.5v423q0 45 17 84.5t46.5 68.5t68.5 46t84 17zM275 -14q-12 -34 -22 -69t-12 -69.5t7 -68.5t35 -65l-67 -60q-32 37 -47.5 76t-19 78t3.5 78.5t20 78.5q8 27 13.5 47.5t6 36.5t-4.5 28.5t-17 23.5l63 67
q23 -21 35 -43.5t16 -45.5t1 -46t-11 -47z" />
    <glyph glyph-name="r" unicode="r" horiz-adv-x="513" 
d="M221 95q9 -37 32 -73.5t52 -54.5q15 -9 30.5 -14.5t34.5 -8.5t43 -3.5t57 -0.5v-100q-55 0 -101.5 5t-86 22.5t-72.5 50t-62 88.5zM100 -6v-153h-100v189l216 264q34 41 55 67.5t33 44.5t16 31.5t4 29.5v73h-224v-340l-100 -123v563h330q17 0 35.5 -2t35.5 -19
q9 -9 13.5 -19t6.5 -23.5t2 -31.5v-42v-36q0 -29 -7 -53.5t-25 -53.5t-48.5 -67t-76.5 -95z" />
    <glyph glyph-name="s" unicode="s" horiz-adv-x="410" 
d="M242 334q25 -17 53.5 -38.5t52.5 -49.5t40 -64t16 -81q0 -63 -22.5 -112.5t-61.5 -84t-92 -52.5t-115 -18q-29 0 -58 3.5t-55 8.5v102q23 -5 55.5 -9t67 -3t67.5 9t58 28v1q14 10 24.5 25.5t17 32.5t10 35t3.5 34q0 33 -16.5 59t-41 47.5t-53 40t-53.5 36.5
q-51 40 -78.5 86t-29.5 96q-2 80 62 136q25 23 55.5 35.5t61 14.5t58.5 -7t49 -28l-69 -74q-23 15 -44.5 12.5t-37 -15.5t-25 -32.5t-8.5 -37.5q0 -23 10.5 -42.5t26.5 -36t35 -31t37 -26.5z" />
    <glyph glyph-name="t" unicode="t" horiz-adv-x="471" 
d="M308 640h146v-101h-146v101zM278 640v-800h-101l-1 699h-176v101h278z" />
    <glyph glyph-name="u" unicode="u" horiz-adv-x="500" 
d="M392 640h46v-590q0 -72 -32.5 -121.5t-81 -74.5t-105 -26.5t-105 22.5t-81.5 73t-33 125v592h59h43v-572q-2 -59 28 -96t88 -37q29 0 51 11t36.5 29t21.5 42t7 51v572h58z" />
    <glyph glyph-name="v" unicode="v" horiz-adv-x="544" 
d="M204 263l108 -413l-2 -10h-97l-213 800h105zM522 640l-194 -730l-52 198l142 532h104z" />
    <glyph glyph-name="w" unicode="w" horiz-adv-x="778" 
d="M734 640l-193 -733l-52 198l141 535h104zM434 314l-52 197l33 129h104zM318 640l207 -792l-3 -8h-96l-60 222l-40 -152l-51 197l40 151v1l-101 381h104zM243 110l68 -259l-3 -11h-97l-211 800h104z" />
    <glyph glyph-name="x" unicode="x" horiz-adv-x="532" 
d="M319 291q42 -53 71.5 -103.5t49 -104.5t29 -113.5t9.5 -129.5h-100q0 54 -7 102t-22 93t-38.5 88t-56.5 87q5 6 23 28t42 53zM404 474q-20 -42 -46 -79.5t-58 -79.5l-32 -40t-34 -41q-40 -50 -65.5 -91t-40.5 -85t-21 -96t-6 -122h-101q0 69 4.5 124.5t19 106t41.5 99.5
t72 104q22 26 46.5 55t48.5 60.5t45 63.5t36 64q16 35 22 62.5t6 60.5h101q0 -44 -8.5 -81.5t-29.5 -84.5zM157 517q11 -25 26 -48.5t32 -46.5q-16 -23 -32.5 -44.5t-31.5 -39.5q-25 33 -47 66t-38 70h-1q-21 47 -29.5 84.5t-8.5 81.5h101q0 -33 6 -60.5t23 -62.5z" />
    <glyph glyph-name="y" unicode="y" horiz-adv-x="455" 
d="M156 168q32 24 57 45t43 38v-411h-100v328zM206 388q42 55 73.5 116.5t33.5 135.5h100q0 -66 -21 -126.5t-56 -115t-81.5 -102.5t-98.5 -90v83q-35 40 -65 85t-54 97q-21 47 -29 85.5t-8 83.5h100q0 -71 30.5 -132t75.5 -120z" />
    <glyph glyph-name="z" unicode="z" horiz-adv-x="502" 
d="M141 60q-6 -14 -10 -30t-8 -40.5t-7 -60t-6 -89.5h-98q0 62 5 128t31 130q27 66 70.5 122t91.5 111q38 45 72.5 87.5t57.5 87.5q14 30 24 63t12 71h95l-1 -18q-2 -51 -19 -99.5t-42.5 -93.5t-57.5 -86t-65 -78q-45 -51 -84 -100.5t-61 -104.5zM346 638q-2 -18 -7 -43
t-18 -56h-270v101h1h294v-2zM140 -160q1 31 2.5 57t3.5 43h298v-100h-304z" />
    <glyph glyph-name="zero" unicode="0" horiz-adv-x="686" 
d="M118 325q0 -87 56 -149l-67 -70q-40 44 -62.5 100t-22.5 119q0 66 25 124.5t68.5 102t102 69t124.5 25.5q59 0 111.5 -20t94.5 -55l-66 -70q-29 23 -64.5 36t-75.5 13q-47 0 -87.5 -17.5t-71 -48.5t-48 -72t-17.5 -87zM399 -90q29 0 61 7t64 36l65 -72q-25 -23 -50.5 -36
t-49.5 -20t-46 -9t-40 -2h-5q-30 0 -58.5 7.5t-57.5 16.5q-27 8 -46.5 13.5t-34.5 6t-27 -4t-22 -15.5l-70 66q27 28 57 39t60 10.5t59 -8t53 -15.5t46.5 -14t41.5 -6zM570 550q43 -43 68 -101t25 -124t-25.5 -124.5t-69 -102t-102 -69t-124.5 -25.5q-61 0 -115.5 21.5
t-97.5 60.5l66 69q29 -25 67 -39.5t80 -14.5q46 0 87 17.5t71.5 48t48 71t17.5 87.5q0 46 -16.5 85.5t-45.5 70.5z" />
    <glyph glyph-name="one" unicode="1" horiz-adv-x="236" 
d="M29 640h145l-99 -99h-21h-25v99zM93 516v0l99 99v-74v-701h-99v676z" />
    <glyph glyph-name="two" unicode="2" horiz-adv-x="429" 
d="M186 640q49 0 91 -19.5t68.5 -52.5t34 -78t-11.5 -96l-177 -427l-54 -127h-110l241 561q9 25 9 50.5t-9.5 46t-30 33t-51.5 11.5q-27 -2 -48.5 -17.5t-31.5 -38.5t-6.5 -50t26.5 -52h-119q-14 38 -10.5 77.5t23.5 76.5q26 48 70 75t96 27zM170 -160l41 98h156v-98h-197z
" />
    <glyph glyph-name="three" unicode="3" horiz-adv-x="490" 
d="M298 478l-64 -120q-42 23 -94 28l82 157h-209v97h365h4zM305 427q65 -44 103.5 -112.5t38.5 -153.5q0 -66 -25.5 -124.5t-69 -102t-102 -69t-124.5 -25.5q-33 0 -65 7t-61 19v110q56 -39 126 -39q46 0 87 17.5t71.5 48t48 71t17.5 87.5q0 55 -24 102t-66 79z" />
    <glyph glyph-name="four" unicode="4" horiz-adv-x="438" 
d="M306 407h100v-567h-100v567zM276 189v-99h-257l20 64q34 111 53 201t28.5 153t11.5 97t2 35h99q0 -3 -1 -35t-8.5 -90t-23.5 -140.5t-46 -185.5h122z" />
    <glyph glyph-name="five" unicode="5" horiz-adv-x="466" 
d="M165 486q67 -2 122 -31.5t94 -75.5t60.5 -103t21.5 -114q0 -66 -25.5 -125t-69 -102.5t-102.5 -69t-125 -25.5q-34 0 -66 7t-61 19v111q56 -39 127 -39q46 0 87 17.5t72 48t48.5 71t17.5 87.5q0 45 -16.5 86t-46 72.5t-68.5 50t-84 19.5zM121 390h-50h-49l32 250h260v-98
h-174z" />
    <glyph glyph-name="six" unicode="6" horiz-adv-x="438" 
d="M204 261q-13 -2 -34.5 -7.5t-47.5 -19.5q-24 -10 -49 -31l172 446h109zM72 -99q-23 26 -37 59.5t-14 71.5q0 35 13.5 67t36.5 58t53.5 44.5t65.5 25.5q8 1 15.5 1.5t15.5 0.5q35 0 67 -11.5t58 -31.5l-70 -75q-27 19 -55 19q-21 0 -39 -8t-31.5 -21.5t-21 -31t-7.5 -37.5
q0 -33 20 -58zM318 32q0 32 -21 59l70 72q24 -26 37.5 -59.5t13.5 -71.5q0 -41 -15.5 -77t-42.5 -63t-63 -42.5t-76 -15.5q-75 0 -128 45l70 73q26 -18 58 -18q20 0 37.5 7.5t31 21t21 31.5t7.5 38z" />
    <glyph glyph-name="seven" unicode="7" horiz-adv-x="417" 
d="M390 555q-3 -4 -6 -7l-7 -7h-360v99h353h20v-84v-1zM39 -159q1 5 4 38t10.5 85.5t20.5 119.5t34 140t51 147t71 140h121q-46 -58 -79.5 -130.5t-57 -146.5t-38.5 -144.5t-23.5 -125t-11.5 -88.5t-3 -35h-99z" />
    <glyph glyph-name="nine" unicode="9" horiz-adv-x="425" 
d="M226 222q13 2 35 7t48 19q11 5 24 13t25 18l-172 -445h-110zM358 582q23 -26 37.5 -59.5t14.5 -72.5q0 -35 -13.5 -67t-36.5 -58t-54 -44.5t-66 -25.5q-8 -1 -15 -1h-15q-36 0 -67.5 11.5t-57.5 31.5l69 74q25 -18 56 -18q21 0 38.5 8t31 21t21 30.5t7.5 37.5
q0 36 -20 59zM112 450q0 -16 6 -31t16 -28l-71 -72q-24 26 -37.5 60t-13.5 71q0 42 15.5 78t42.5 63t63 42.5t77 15.5q37 0 69.5 -12t58.5 -34l-71 -73q-25 19 -57 19q-20 0 -38 -8t-31.5 -21.5t-21 -31.5t-7.5 -38z" />
    <glyph glyph-name="eight" unicode="8" horiz-adv-x="522" 
d="M350 450q0 35 -24 62l68 70q25 -26 39.5 -59.5t14.5 -72.5q0 -51 -23.5 -92.5t-61.5 -67.5q12 -6 23 -13t22 -16l-68 -71q-35 29 -84 29q-29 0 -55 -11t-45.5 -30.5t-30.5 -45t-11 -54.5q0 -25 9 -48t25 -41l-68 -71q-29 32 -45.5 73t-16.5 87q0 34 9.5 66.5t26.5 60
t41.5 49.5t53.5 36q-5 4 -10 7.5t-10 8.5l67 70q27 -22 60 -22q19 0 36 7.5t30 20.5t20.5 30.5t7.5 37.5zM397 78q0 26 -9.5 49.5t-25.5 42.5l68 70q29 -32 46.5 -73.5t17.5 -88.5q0 -49 -19 -92t-51 -75.5t-75.5 -51t-92.5 -18.5q-45 0 -84 15t-70 41l68 71q36 -30 86 -30
q29 0 54.5 11t45 30.5t30.5 44.5t11 54zM161 450q0 -28 16 -52l-69 -72q-20 26 -32 57t-12 67q0 39 15 74t41 61t61 41t75 15q32 0 61.5 -10.5t53.5 -28.5l-68 -71q-23 13 -47 13q-19 0 -36.5 -7.5t-30.5 -20.5t-20.5 -30t-7.5 -36z" />
    <glyph glyph-name="exclam" unicode="!" horiz-adv-x="231" 
d="M172 -86l-86 -86l-86 86l86 86zM43 87l-18 554h122l-18 -554h-86z" />
    <glyph glyph-name="quotedbl" unicode="&#x22;" horiz-adv-x="188" 
d="M104 654h57v-145h-57v145zM19 654h57v-145h-57v145z" />
    <glyph glyph-name="numbersign" unicode="#" horiz-adv-x="405" 
d="M152 127h40l-8 -57h-40l-28 -206h-65l28 206h-49v57h56l22 155h-48v57h55l28 207h65l-28 -207h41l-8 -57h-40zM318 282l-20 -155h48v-57h-56l-28 -206h-65l92 682h65l-28 -207h49v-57h-57z" />
    <glyph glyph-name="dollar" unicode="$" horiz-adv-x="361" 
d="M22 -12q11 -2 22.5 -2h23.5v-85q-12 0 -23.5 0.5t-22.5 1.5v85zM51 547q5 4 8.5 7.5t8.5 5.5v-261q-65 62 -68 134q-3 66 51 114zM178 322q21 -15 45 -33t44.5 -41.5t33.5 -53t13 -68.5q0 -21 -4 -44.5t-13.5 -46.5t-24.5 -45t-37 -40q-36 -28 -81 -40v-64h-40v802h40
v-59q24 1 47 -6.5t40 -23.5l-59 -62q-9 9 -28 7v-166q5 -4 11.5 -7.5t12.5 -8.5zM183 18q23 19 34.5 50t11.5 58q0 35 -20 59.5t-55 48.5v-233l15 7.5t13 8.5z" />
    <glyph glyph-name="percent" unicode="%" horiz-adv-x="350" 
d="M40 382q-21 18 -21 49v11h55v-2q0 -10 6 -17q6 -6 16 -6t15 6q7 7 7 17v46q0 10 -7 16q-7 7 -15 7q-7 0 -16 -7q-6 -6 -6 -16v-10h-55v13q0 35 21 53q20 20 56 20t55 -20q21 -18 21 -53v-58q0 -31 -21 -49q-20 -20 -55 -20q-34 0 -56 20zM298 94q11 -10 16 -23.5t5 -30.5
v-59q0 -32 -21 -49q-19 -19 -56 -19q-35 0 -55 19q-21 19 -21 49v13h54v-4q0 -10 7 -16q6 -8 15 -8q10 0 16 8q7 6 7 16v46q0 10 -7 17q-5 6 -16 6q-10 0 -15 -6q-7 -7 -7 -17v-8h-54v12q0 33 21 54q23 20 55 20q18 0 32 -5.5t24 -14.5zM308 557l-218 -639h-60l219 639h59z
" />
    <glyph glyph-name="ampersand" unicode="&#x26;" horiz-adv-x="993" 
d="M132 210q-19 -29 -28.5 -59.5t-13.5 -57t-4 -47v-30.5h-63q0 38 2.5 79.5t17.5 80.5q16 41 38 76t45 70q23 32 46 68t34 82h-76v65h204v-10v-511h-66v23v262v146q-11 -45 -35 -83.5t-52 -79.5q-14 -19 -26 -37.5t-23 -36.5zM249 169v-57h-135q6 28 18 57h117zM380 422
q10 -20 26 -38.5t40 -34.5v-333h-66v406zM591 537h66v-521h-66v145q0 31 -9.5 58.5t-22.5 49t-25 35t-16 18.5q-15 15 -33.5 26t-37.5 24q-36 27 -50 60.5t-17 56.5v48h66v-37q0 -29 11.5 -46.5t29 -30.5t38.5 -25t40 -30q5 -5 11.5 -12t14.5 -18v199zM952 274
q0 -45 -12.5 -86.5t-34.5 -75t-52.5 -57t-66.5 -33.5q-12 -4 -27 -5.5t-28 -2.5q-16 -1 -31 -1v59q43 -1 78 13t59.5 40.5t37.5 64t13 84.5q0 33 -8 63t-23 55t-35.5 43.5t-44.5 28.5q-1 0 -20 5.5t-57 7.5v62q15 -1 30 -3q13 -2 28 -4t29 -7q36 -11 66 -35t52 -57
t34.5 -73.5t12.5 -85.5zM700 458q26 -2 41 -5.5t23 -5.5v-345q-8 -2 -23 -5.5t-41 -4.5v366zM918 -94h-896v67h896v-67z" />
    <glyph glyph-name="quotesingle" unicode="'" horiz-adv-x="200" 
d="M164 581h-88v232h88v-232z" />
    <glyph glyph-name="parenleft" unicode="(" horiz-adv-x="313" 
d="M247 682q-15 -32 -35 -71.5t-37 -92t-29 -120.5t-12 -156q0 -63 6.5 -120.5t20.5 -111.5t36.5 -107t54.5 -108h-62q-63 102 -102.5 208.5t-39.5 227.5q0 68 9 125.5t27 110.5t44.5 105.5t61.5 109.5h57z" />
    <glyph glyph-name="parenright" unicode=")" horiz-adv-x="266" 
d="M110 682q35 -57 61.5 -109.5t44.5 -105.5t27 -110.5t9 -125.5q0 -121 -39.5 -227.5t-102.5 -208.5h-62q32 55 54.5 108t36.5 107t20.5 111.5t6.5 120.5q0 88 -12 156t-29 120.5t-37 92t-35 71.5h57z" />
    <glyph glyph-name="asterisk" unicode="*" 
d="M58 502l16 41l96 -33l8 108h48l8 -104l94 29l14 -44l-96 -35l61 -88l-37 -30l-72 84l-66 -79l-40 25l62 86z" />
    <glyph glyph-name="plus" unicode="+" 
d="M161 242v182h77v-182h144v-77h-144v-185h-77v185h-143v77h143z" />
    <glyph glyph-name="comma" unicode="," horiz-adv-x="234" 
d="M150 14v-26q0 -11 -0.5 -24.5t-0.5 -29.5q-2 -32 -3 -54q-1 -17 -4.5 -33t-8.5 -33q-13 -33 -43 -55q-5 -4 -10.5 -7.5t-10.5 -5.5t-10.5 -4.5t-11.5 -4.5l-7 -3v60h4q10 2 23 14q17 17 22 42q2 11 3 22.5t2 22.5h-73v119h129z" />
    <glyph glyph-name="hyphen" unicode="-" horiz-adv-x="322" 
d="M248 217h-230v89h230v-89z" />
    <glyph glyph-name="period" unicode="." horiz-adv-x="293" 
d="M135 -17l92 -92l-92 -92l-92 92z" />
    <glyph glyph-name="slash" unicode="/" horiz-adv-x="369" 
d="M97 -145h-83l246 790h84z" />
    <glyph glyph-name="colon" unicode=":" horiz-adv-x="270" 
d="M119 64l107 -107l-107 -107l-107 107zM119 526l107 -107l-107 -107l-107 107z" />
    <glyph glyph-name="semicolon" unicode=";" horiz-adv-x="242" 
d="M170 46v-29q0 -12 -0.5 -26.5t-0.5 -32.5q-1 -17 -1.5 -31.5t-1.5 -26.5q-3 -38 -15 -72q-11 -34 -46 -61q-6 -4 -12 -7.5t-12 -6.5q-5 -2 -11 -5t-12 -5l-8 -3v66h4q13 3 25 15q19 19 24 46q4 23 6 49h-80v130h141zM99 540l99 -99l-99 -99l-99 99z" />
    <glyph glyph-name="less" unicode="&#x3c;" horiz-adv-x="322" 
d="M238 329l-108 -107l108 -108v-108l-217 216l217 216v-109z" />
    <glyph glyph-name="equal" unicode="=" 
d="M390 334v-78h-380v78h380zM390 166v-77h-380v77h380z" />
    <glyph glyph-name="greater" unicode="&#x3e;" horiz-adv-x="263" 
d="M21 438l217 -216l-217 -216v108l108 108l-108 107v109z" />
    <glyph glyph-name="question" unicode="?" horiz-adv-x="432" 
d="M154 -1l86 -85l-86 -86l-85 86zM170 660q54 0 91.5 -16t60.5 -41t33.5 -55.5t10.5 -60.5q0 -29 -7.5 -54.5t-21 -50t-31.5 -48.5t-40 -50q-37 -43 -52 -82t-13 -84l1 -34h-97l-3 34q-11 104 72 202q38 45 59 80.5t21 73.5q0 45 -27.5 69.5t-77.5 25.5q-32 1 -63 -8.5
t-51 -26.5l-5 -4l-30 81l2 3q29 21 75 33.5t93 12.5z" />
    <glyph glyph-name="at" unicode="@" horiz-adv-x="800" 
d="M490 428q23 -3 43.5 -8.5t36.5 -13.5l10 -4l-38 -212q-9 -49 -6.5 -71t8.5 -29q2 -3 5.5 -5.5t11.5 -2.5h1q19 0 38 13.5t34 38t24 59.5t9 77q0 61 -18 110t-51 83t-80.5 52.5t-106.5 18.5q-69 0 -127.5 -26.5t-101 -74t-66.5 -113t-24 -142.5q0 -65 19.5 -117.5
t55.5 -90t86 -58t111 -20.5q96 0 161 38l13 8l28 -75l-10 -6q-46 -23 -94.5 -34.5t-109.5 -11.5q-77 0 -141.5 27t-111 75t-73 114t-26.5 145q0 94 32 175t88.5 140t133.5 92.5t167 33.5q74 0 135.5 -24.5t106 -69t69.5 -106t25 -135.5q0 -69 -18 -121t-48 -87.5t-68 -53.5
t-77 -18q-43 0 -68 28q-19 19 -25 49q-59 -77 -151 -77q-25 0 -49 10t-43 29.5t-30.5 49t-11.5 67.5q0 55 20.5 104t56 86t83.5 60t102 26l-16 -88q-31 -5 -57 -21t-45.5 -40.5t-30.5 -56t-11 -66.5q0 -10 2 -22.5t8.5 -23t18 -18t31.5 -7.5q21 0 41 12.5t36.5 33t28 45
t16.5 48.5l22 113z" />
    <glyph glyph-name="bar" unicode="|" horiz-adv-x="150" 
d="M0 678h80v-864h-80v864z" />
    <glyph glyph-name="asciitilde" unicode="~" 
d="M118 290q20 0 43 -9t45 -23q23 -13 44 -22.5t35 -9.5q13 0 24 7.5t20 18.5t16.5 24.5t13.5 25.5l31 -59q-8 -18 -18.5 -36.5t-24 -32.5t-29 -23t-34.5 -9q-10 0 -24 4.5t-28 11t-27.5 13t-22.5 11.5q-15 8 -31 15.5t-33 7.5q-15 0 -26.5 -8t-20.5 -20t-16 -26.5
t-13 -28.5l-32 60q9 19 19.5 38.5t23.5 35t29 25t36 9.5z" />
    <glyph glyph-name="questiondown" unicode="&#xbf;" horiz-adv-x="346" 
d="M211 169l-85 85l85 86l86 -86zM366 -451l-4 -3q-29 -21 -74 -33.5t-92 -12.5q-54 0 -91.5 16t-61 41t-33.5 55.5t-10 60.5q0 29 7.5 54.5t21 49.5t31.5 48t40 50q36 44 51 83t13 84l-1 34h98l2 -34q5 -51 -12.5 -101.5t-59.5 -100.5q-38 -45 -58.5 -80.5t-20.5 -73.5
q0 -45 27 -69.5t78 -25.5q31 -1 61.5 9t51.5 26l4 4z" />
    <glyph glyph-name="Atilde" unicode="&#xc3;" horiz-adv-x="530" 
 />
    <glyph glyph-name="Adieresis" unicode="&#xc4;" horiz-adv-x="530" 
 />
    <glyph glyph-name="Aring" unicode="&#xc5;" horiz-adv-x="530" 
 />
    <glyph glyph-name="Eacute" unicode="&#xc9;" horiz-adv-x="384" 
d="M198 850h123l-149 -160h-76zM173 336q-11 5 -18.5 7t-15.5 3v101q22 -1 38.5 -6t31.5 -11l13 -4q10 -4 20 -2t19.5 6.5t17 10t12.5 9.5l67 -76q-59 -51 -123 -51q-13 0 -24 2t-23 5q-3 2 -6.5 3t-8.5 3zM109 -58h245v-102h-346v2v790v8h346v-101h-245v-421v-176z" />
    <glyph glyph-name="Iacute" unicode="&#xcd;" horiz-adv-x="147" 
d="M118 850h124l-149 -160h-76zM110 -160h-110v800h110v-800z" />
    <glyph glyph-name="Oacute" unicode="&#xd3;" horiz-adv-x="510" 
d="M274 850h124l-149 -160h-76zM367 412q0 50 -31 86l70 72q29 -30 45.5 -70.5t16.5 -87.5t-18 -89t-49.5 -73.5t-73 -49.5t-89.5 -18q-43 0 -81 15t-69 41l70 73q17 -13 37 -20.5t43 -7.5q27 0 50.5 10t41 27.5t27.5 41t10 50.5zM280 101q23 0 39.5 5t30.5 18l67 -74
q-38 -33 -73 -41.5t-62 -8.5h-3q-22 0 -42.5 5.5t-39.5 12.5q-33 11 -46.5 11.5t-20.5 -7.5l-73 69q21 22 44 30t45.5 8t43 -5.5t37.5 -10.5q15 -5 28.5 -8.5t24.5 -3.5zM280 -59q23 -1 39.5 4.5t30.5 18.5l67 -75q-37 -32 -72.5 -40.5t-62.5 -8.5h-3q-22 0 -42.5 5.5
t-39.5 11.5q-34 11 -46.5 12t-20.5 -7l-73 69q21 22 44 30t45.5 8t43 -5t37.5 -11q15 -5 28.5 -8.5t24.5 -3.5zM109 412q0 -46 28 -80l-70 -73q-28 31 -43.5 70t-15.5 83q0 48 18 90t49 73t73 49t90 18q42 0 79 -13.5t67 -37.5l-70 -73q-16 11 -35 17.5t-41 6.5
q-27 0 -50.5 -10t-41 -27.5t-27.5 -41.5t-10 -51z" />
    <glyph glyph-name="Uacute" unicode="&#xda;" horiz-adv-x="500" 
d="M274 850h123l-149 -160h-76zM400 640h46v-590q0 -72 -32.5 -121.5t-81 -74.5t-105 -26.5t-105 22.5t-81.5 73t-33 125v592h59h43v-572q-2 -59 28 -96t88 -37q29 0 51 11t36.5 29t21.5 42t7 51v572h58zM142 541v99h172v-99h-172z" />
    <glyph glyph-name="aacute" unicode="&#xe1;" horiz-adv-x="465" 
d="M164 850h123l-149 -160h-76zM310 137q-17 28 -36 56t-39 57q-43 63 -80.5 123.5t-52.5 128.5v-224v-403v-35h-102v786v14h313v-101h-116q8 -35 21.5 -66t30 -59.5t34.5 -54.5t35 -51q36 -53 70.5 -106.5t57.5 -116.5q23 -60 27 -123t4 -122h-96v45.5t-6 72.5t-20.5 87.5
t-44.5 91.5zM310 74q9 -22 16 -44t12 -43h-208v87h180z" />
    <glyph glyph-name="eacute" unicode="&#xe9;" horiz-adv-x="370" 
d="M206 850h123l-149 -160h-76zM173 336q-11 5 -18.5 7t-15.5 3v101q22 -1 38.5 -6t31.5 -11l13 -4q10 -4 20 -2t19.5 6.5t17 10t12.5 9.5l67 -76q-59 -51 -123 -51q-13 0 -24 2t-23 5q-3 2 -6.5 3t-8.5 3zM109 -58h245v-102h-346v2v790v8h346v-101h-245v-421v-176z" />
    <glyph glyph-name="iacute" unicode="&#xed;" horiz-adv-x="218" 
d="M118 850h124l-149 -160h-76zM110 -160h-110v800h110v-800z" />
    <glyph glyph-name="uacute" unicode="&#xfa;" horiz-adv-x="500" 
d="M282 850h123l-149 -160h-76zM400 640h46v-590q0 -72 -32.5 -121.5t-81 -74.5t-105 -26.5t-105 22.5t-81.5 73t-33 125v592h59h43v-572q-2 -59 28 -96t88 -37q29 0 51 11t36.5 29t21.5 42t7 51v572h58zM142 541v99h172v-99h-172z" />
    <glyph glyph-name="Aacute" unicode="&#xc1;" horiz-adv-x="541" 
d="M377 850h123l-149 -160h-76zM161 137q-30 -45 -44.5 -91.5t-20.5 -87.5t-6 -72.5v-45.5h-96q0 58 3.5 121.5t26.5 123.5q23 63 57.5 116.5t70.5 106.5q17 25 35.5 51t35 54.5t30 59.5t21.5 66h-116v101h312v-14v-786h-101v35v403v224q-8 -34 -21.5 -66t-31.5 -62.5
t-38.5 -61.5t-42.5 -62q-20 -29 -38.5 -57t-35.5 -56zM340 74v-87h-207q5 21 11.5 43t16.5 44h179z" />
    <glyph glyph-name="quoteleft" unicode="&#x2018;" horiz-adv-x="201" 
d="M164 581h-88v232h88v-232z" />
    <glyph glyph-name="quoteright" unicode="&#x2019;" horiz-adv-x="188" 
d="M164 581h-88v232h88v-232z" />
    <glyph glyph-name="oacute" unicode="&#xf3;" horiz-adv-x="498" 
d="M285 850h123l-149 -160h-76zM367 412q0 50 -31 86l70 72q29 -30 45.5 -70.5t16.5 -87.5t-18 -89t-49.5 -73.5t-73 -49.5t-89.5 -18q-43 0 -81 15t-69 41l70 73q17 -13 37 -20.5t43 -7.5q27 0 50.5 10t41 27.5t27.5 41t10 50.5zM280 101q23 0 39.5 5t30.5 18l67 -74
q-38 -33 -73 -41.5t-62 -8.5h-3q-22 0 -42.5 5.5t-39.5 12.5q-33 11 -46.5 11.5t-20.5 -7.5l-73 69q21 22 44 30t45.5 8t43 -5.5t37.5 -10.5q15 -5 28.5 -8.5t24.5 -3.5zM280 -59q23 -1 39.5 4.5t30.5 18.5l67 -75q-37 -32 -72.5 -40.5t-62.5 -8.5h-3q-22 0 -42.5 5.5
t-39.5 11.5q-34 11 -46.5 12t-20.5 -7l-73 69q21 22 44 30t45.5 8t43 -5t37.5 -11q15 -5 28.5 -8.5t24.5 -3.5zM109 412q0 -46 28 -80l-70 -73q-28 31 -43.5 70t-15.5 83q0 48 18 90t49 73t73 49t90 18q42 0 79 -13.5t67 -37.5l-70 -73q-16 11 -35 17.5t-41 6.5
q-27 0 -50.5 -10t-41 -27.5t-27.5 -41.5t-10 -51z" />
    <glyph glyph-name="Ntilde" unicode="&#xd1;" horiz-adv-x="450" 
d="M102 682h-65v10q1 22 9 45q5 11 10 20.5t13 17.5q15 18 34 27q19 11 47 11q9 0 19 -2t21 -5q11 -4 19.5 -6.5t16.5 -5.5q9 -3 18 -6.5t20 -7.5q18 -6 34 -6q14 0 26 12q12 13 13 26l1 8h68l-1 -10l-4 -22t-6 -22t-9.5 -21t-12.5 -19q-15 -17 -35 -26q-20 -10 -48 -10
q-19 0 -40 7q-20 6 -36 12q-9 3 -18 6.5t-19 6.5q-9 3 -17.5 5t-17.5 2q-13 0 -25 -12q-11 -11 -13 -27zM0 463q15 -29 39.5 -58.5t62.5 -54.5v-510h-102v623zM325 640h101v-800h-101v222q0 48 -15 90t-34 74.5t-37.5 54t-25.5 28.5q-24 23 -52.5 40.5t-57.5 36.5
q-28 21 -46.5 45t-30.5 48t-18 46.5t-8 40.5v74h102v-58q0 -45 17.5 -71.5t44.5 -46.5t59 -38.5t61 -46.5q8 -7 18 -18.5t23 -26.5v306z" />
    <glyph glyph-name="ntilde" unicode="&#xf1;" horiz-adv-x="450" 
d="M102 682h-65v10q1 22 9 45q5 11 10 20.5t13 17.5q15 18 34 27q19 11 47 11q9 0 19 -2t21 -5q11 -4 19.5 -6.5t16.5 -5.5q9 -3 18 -6.5t20 -7.5q18 -6 34 -6q14 0 26 12q12 13 13 26l1 8h68l-1 -10l-4 -22t-6 -22t-9.5 -21t-12.5 -19q-15 -17 -35 -26q-20 -10 -48 -10
q-19 0 -40 7q-20 6 -36 12q-9 3 -18 6.5t-19 6.5q-9 3 -17.5 5t-17.5 2q-13 0 -25 -12q-11 -11 -13 -27zM0 463q15 -29 39.5 -58.5t62.5 -54.5v-510h-102v623zM325 640h101v-800h-101v222q0 48 -15 90t-34 74.5t-37.5 54t-25.5 28.5q-24 23 -52.5 40.5t-57.5 36.5
q-28 21 -46.5 45t-30.5 48t-18 46.5t-8 40.5v74h102v-58q0 -45 17.5 -71.5t44.5 -46.5t59 -38.5t61 -46.5q8 -7 18 -18.5t23 -26.5v306z" />
    <glyph glyph-name="acute" unicode="&#xb4;" horiz-adv-x="553" 
d="M417 834h123l-148 -160h-76z" />
    <glyph glyph-name="_109" horiz-adv-x="0" 
 />
    <glyph glyph-name="Yacute" unicode="&#xdd;" horiz-adv-x="443" 
d="M270 850h124l-149 -160h-76zM164 168q32 24 57 45t43 38v-411h-100v328zM214 388q42 55 73.5 116.5t33.5 135.5h100q0 -66 -21 -126.5t-56 -115t-81.5 -102.5t-98.5 -90v83q-35 40 -65 85t-54 97q-21 47 -29 85.5t-8 83.5h100q0 -71 30.5 -132t75.5 -120z" />
    <glyph glyph-name="yacute" unicode="&#xfd;" horiz-adv-x="458" 
d="M281 850h123l-149 -160h-76zM156 168q32 24 57 45t43 38v-411h-100v328zM206 388q42 55 73.5 116.5t33.5 135.5h100q0 -66 -21 -126.5t-56 -115t-81.5 -102.5t-98.5 -90v83q-35 40 -65 85t-54 97q-21 47 -29 85.5t-8 83.5h100q0 -71 30.5 -132t75.5 -120z" />
    <glyph glyph-name="uni0401" unicode="&#x401;" 
d="M165 336q-11 5 -18.5 7t-15.5 3v101q22 -1 38.5 -6t31.5 -11l13 -4q10 -4 20 -2t19.5 6.5t17 10t12.5 9.5l67 -76q-59 -51 -123 -51q-13 0 -24 2t-23 5q-3 2 -6.5 3t-8.5 3zM101 -58h245v-102h-346v2v790v8h346v-101h-245v-421v-176zM146 805h-96v-104h96v104zM293 805
h-96v-104h96v104z" />
    <glyph glyph-name="uni0410" unicode="&#x410;" horiz-adv-x="520" 
d="M161 137q-30 -45 -44.5 -91.5t-20.5 -87.5t-6 -72.5v-45.5h-96q0 58 3.5 121.5t26.5 123.5q23 63 57.5 116.5t70.5 106.5q17 25 35.5 51t35 54.5t30 59.5t21.5 66h-116v101h312v-800h-101v35v403v224q-8 -34 -21.5 -66t-31.5 -62.5t-38.5 -61.5t-42.5 -62
q-20 -29 -38.5 -57t-35.5 -56zM340 74v-87h-207q5 21 11.5 43t16.5 44h179z" />
    <glyph glyph-name="uni0411" unicode="&#x411;" horiz-adv-x="486" 
d="M99 -24q-15 -4 -37 -7q-24 -2 -62 -4v349h99v-338zM28 640l89 -92h228v92h-317zM101 432h42q76 1 131 -23q82 -34 126 -100q25 -38 34.5 -76t10.5 -69t-2.5 -51.5t-4.5 -23.5q-15 -57 -45 -98t-68 -68.5t-80.5 -44t-82.5 -24.5q-37 -8 -70 -11q-28 -2 -47 -2h-45v91
q62 -1 105 10q25 5 64 18q37 10 71 29.5t61 50t41 75.5q1 2 3 15.5t1.5 33t-7 43t-22.5 47.5q-40 58 -137 81q-40 6 -81 3h-99v288l101 -104v-90z" />
    <glyph glyph-name="uni0412" unicode="&#x412;" horiz-adv-x="486" 
d="M274 409q82 -34 126 -100q25 -38 34.5 -76t10.5 -69t-2.5 -51.5t-4.5 -23.5q-15 -57 -45 -98t-68 -68.5t-80.5 -44t-82.5 -25t-75 -11t-57 -2.5q-12 0 -20 0.5t-10 0.5v8v311l99 75v-289q33 4 70 14t71 29.5t61 50t41 75.5q1 2 3 15.5t1.5 33t-7 43t-22.5 47.5
q-40 58 -137 81q-14 -11 -25 -19.5t-29 -22t-47.5 -36t-78.5 -59.5v124l178 136q51 39 51 52v25v7h-7l-123 -1v-106l-99 -75v280h60h171q23 0 41.5 -1.5t35.5 -18.5t18.5 -37t1.5 -49v-24q0 -30 -12.5 -52.5t-41.5 -48.5z" />
    <glyph glyph-name="uni0413" unicode="&#x413;" horiz-adv-x="385" 
d="M0 -160v786l101 -104v-682h-101zM101 640h244v-92h-228l-89 92h73z" />
    <glyph glyph-name="uni0414" unicode="&#x414;" horiz-adv-x="618" 
d="M75 -43q0 2 1 5q3 63 26 123q23 63 57.5 116.5t70.5 106.5q17 25 35.5 51t35 54.5t30 59.5t21.5 66h-116v101h272v-683h-101v444q-31 -58 -51.5 -89t-42.5 -62q-20 -29 -38.5 -57t-35.5 -56q-30 -45 -44.5 -91.5t-20.5 -87.5v-1h-99zM477 -300h101v232h-578v-232h100v140
h377v-140z" />
    <glyph glyph-name="uni0415" unicode="&#x415;" 
d="M165 336q-11 5 -18.5 7t-15.5 3v101q22 -1 38.5 -6t31.5 -11l13 -4q10 -4 20 -2t19.5 6.5t17 10t12.5 9.5l67 -76q-59 -51 -123 -51q-13 0 -24 2t-23 5q-3 2 -6.5 3t-8.5 3zM101 -58h245v-102h-346v2v790v8h346v-101h-245v-421v-176z" />
    <glyph glyph-name="uni0416" unicode="&#x416;" horiz-adv-x="818" 
d="M619 326q38 -48 71.5 -99.5t55.5 -111.5q12 -32 18.5 -67t9.5 -71t3.5 -71t0.5 -66h-95q0 59 -3.5 122.5t-22.5 114.5q-17 46 -43 87t-58 83q8 11 26.5 33.5t36.5 45.5zM222 247q-32 -42 -58 -83t-43 -87q-19 -51 -22.5 -114.5t-3.5 -122.5h-95q0 31 0.5 66t3.5 71
t9.5 71t18.5 67q22 60 55.5 111.5t71.5 99.5q18 -23 36.5 -45.5t26.5 -33.5zM437 296q15 22 31 43t33 42q24 30 47.5 60t41.5 61.5t29 65.5t11 72h96q0 -40 -9.5 -76.5t-26 -71t-38 -67.5t-45.5 -66l-78 -99q-22 -30 -40 -59t-30 -60q-17 -45 -19.5 -94.5t-2.5 -100.5v-106
h-96v106q0 51 -2.5 100.5t-19.5 94.5q-12 31 -30 60t-40 59l-78 99q-24 33 -45.5 66t-38 67.5t-26 71t-9.5 76.5h96q0 -38 11 -72t29 -65.5t41.5 -61.5t47.5 -60q17 -21 33 -42t31 -43v344h96v-344z" />
    <glyph glyph-name="uni0417" unicode="&#x417;" horiz-adv-x="486" 
d="M99 -54q33 4 70 14t71 29.5t61 50t41 75.5q1 2 3 15.5t1.5 33t-7 43t-22.5 47.5q-40 58 -137 81q-14 -11 -25 -19.5t-78 -59.5v124l101 78q51 39 51 52v32h-229v98h231q23 0 41.5 -1.5t35.5 -18.5t18.5 -37t1.5 -49v-24q0 -30 -12.5 -52.5t-41.5 -48.5q82 -34 126 -100
q25 -38 34.5 -76t10.5 -69t-2.5 -51.5t-4.5 -23.5q-15 -57 -45 -98t-68 -68.5t-80.5 -44t-82.5 -25t-75 -11t-57 -2.5q-12 0 -20 0.5t-10 0.5v102q42 -2 99 3z" />
    <glyph glyph-name="uni0418" unicode="&#x418;" horiz-adv-x="476" 
d="M426 -160h-102v510q38 25 62.5 54.5t39.5 58.5v-623zM101 334q13 15 23 26.5t18 18.5q29 28 61 46.5t59 38.5t44.5 46.5t17.5 71.5v58h102v-74q-2 -18 -8 -40.5t-18 -46.5t-30.5 -48t-46.5 -45q-29 -19 -57.5 -36.5t-52.5 -40.5q-7 -7 -25.5 -28.5t-37.5 -54t-34 -74.5
t-15 -90v-222h-101v800h101v-306z" />
    <glyph glyph-name="uni0419" unicode="&#x419;" horiz-adv-x="476" 
d="M426 -160h-102v510q38 25 62.5 54.5t39.5 58.5v-623zM101 334q13 15 23 26.5t18 18.5q29 28 61 46.5t59 38.5t44.5 46.5t17.5 71.5v58h102v-74q-2 -18 -8 -40.5t-18 -46.5t-30.5 -48t-46.5 -45q-29 -19 -57.5 -36.5t-52.5 -40.5q-7 -7 -25.5 -28.5t-37.5 -54t-34 -74.5
t-15 -90v-222h-101v800h101v-306zM184 801q-18 0 -32 5q-13 5 -24 18l-53 -74q30 -33 58 -42q28 -8 49 -8h3q17 0 33 5q17 6 32 13q26 11 37 11q10 1 16 -7l58 69q-17 22 -35 30t-36 8t-34 -6q-17 -5 -30 -10q-12 -5 -23 -9q-10 -3 -19 -3z" />
    <glyph glyph-name="uni041A" unicode="&#x41a;" horiz-adv-x="477" 
d="M278 326q38 -48 71.5 -99.5t55.5 -111.5q12 -32 18.5 -67t9.5 -71t3.5 -71t0.5 -66h-95q0 59 -3.5 122.5t-22.5 114.5q-17 46 -43 87t-58 83q8 11 26.5 33.5t36.5 45.5zM188 260q-22 -30 -40 -59t-30 -60q-17 -45 -19.5 -94.5t-2.5 -100.5v-106h-96v800h96v-344
q15 22 31 43t33 42q24 30 47.5 60t41.5 61.5t29 65.5t11 72h96q0 -40 -9.5 -76.5t-26 -71t-38 -67.5t-45.5 -66z" />
    <glyph glyph-name="uni041B" unicode="&#x41b;" horiz-adv-x="562" 
d="M417 -160l-99 377l-108 413l2 10h97l213 -800h-105zM104 -160h-104l194 730l52 -198z" />
    <glyph glyph-name="uni041C" unicode="&#x41c;" horiz-adv-x="523" 
d="M358 336q-32 -44 -63.5 -88.5t-58.5 -95.5q-29 52 -63 99t-70 100q-52 85 -74 153t-29 130v6h91q2 -29 7 -56t15 -53q21 -55 51 -103t65 -98l7 -11l7 11q35 50 65 98t51 103q10 26 15 53t7 56h92q-5 -58 -28.5 -132.5t-86.5 -171.5zM372 303q38 57 62.5 104.5t38.5 86.5
v-654h-101v463zM0 490q15 -39 39 -86.5t61 -101.5v-462h-100v650z" />
    <glyph glyph-name="uni041D" unicode="&#x41d;" horiz-adv-x="474" 
d="M100 416h194v-91h-194v-67h194v-92h-194v-326h-100v800h100v-224v0zM323 640h101v-800h-101v800z" />
    <glyph glyph-name="uni041E" unicode="&#x41e;" horiz-adv-x="500" 
d="M359 412q0 50 -31 86l70 72q29 -30 45.5 -70.5t16.5 -87.5t-18 -89t-49.5 -73.5t-73 -49.5t-89.5 -18q-43 0 -81 15t-69 41l70 73q17 -13 37 -20.5t43 -7.5q27 0 50.5 10t41 27.5t27.5 41t10 50.5zM272 101q23 0 39.5 5t30.5 18l67 -74q-38 -33 -73 -41.5t-62 -8.5h-3
q-22 0 -42.5 5.5t-39.5 12.5q-33 11 -46.5 11.5t-20.5 -7.5l-73 69q21 22 44 30t45.5 8t43 -5.5t37.5 -10.5q15 -5 28.5 -8.5t24.5 -3.5zM272 -59q23 -1 39.5 4.5t30.5 18.5l67 -75q-37 -32 -72.5 -40.5t-62.5 -8.5h-3q-22 0 -42.5 5.5t-39.5 11.5q-34 11 -46.5 12t-20.5 -7
l-73 69q21 22 44 30t45.5 8t43 -5t37.5 -11q15 -5 28.5 -8.5t24.5 -3.5zM101 412q0 -46 28 -80l-70 -73q-28 31 -43.5 70t-15.5 83q0 48 18 90t49 73t73 49t90 18q42 0 79 -13.5t67 -37.5l-70 -73q-16 11 -35 17.5t-41 6.5q-27 0 -50.5 -10t-41 -27.5t-27.5 -41.5t-10 -51z
" />
    <glyph glyph-name="uni041F" unicode="&#x41f;" horiz-adv-x="474" 
d="M294 640v-90h-194v-710h-100v800h294zM323 640h101v-800h-101v800z" />
    <glyph glyph-name="uni0420" unicode="&#x420;" horiz-adv-x="468" 
d="M323 640q20 0 38 -2t35 -19t19.5 -39t2.5 -60v-32q0 -18 -4.5 -34t-19.5 -38t-42.5 -53t-74 -77.5t-114.5 -112.5t-163 -158v140l216 203q34 33 54.5 54t31 34.5t13.5 22.5t3 19v51h-217v-245l-101 -97v443h33h290zM0 -27l101 97v-230h-101v133z" />
    <glyph glyph-name="uni0421" unicode="&#x421;" horiz-adv-x="425" 
d="M-10 240q0 76 29 145t79 124.5t118.5 93.5t147.5 51l11 2v-102l-7 -1q-61 -7 -111 -35t-86 -70.5t-55.5 -96t-19.5 -111.5t20.5 -111.5t57.5 -96.5t88.5 -71t112.5 -35v-102l-11 2q-79 13 -147.5 51t-118.5 93t-79 124.5t-29 145.5z" />
    <glyph glyph-name="uni0422" unicode="&#x422;" horiz-adv-x="494" 
d="M308 539v101h146v-101h-146zM278 640v-800h-101l-1 699h-176v101h278z" />
    <glyph glyph-name="uni0423" unicode="&#x423;" horiz-adv-x="476" 
d="M303 99q-17 -44 -48 -76q-61 -61 -194 -81v-102q91 12 155 40t109 74q43 43 66 97q14 34 21 54l-87 64q-12 -45 -22 -70zM325 382l101 -83v341h-101v-258zM164 464q27 -20 119 -90l141 -113v-124q-47 36 -78 59q-27 22 -46 35l-139 114q-29 22 -58 41q-28 21 -46 45
q-19 24 -31 48t-18 46q-6 23 -8 41v74h102v-58q0 -45 17 -72q18 -26 45 -46z" />
    <glyph glyph-name="uni0424" unicode="&#x424;" horiz-adv-x="835" 
d="M474 41q19 5 44 13q37 10 71 29q34 20 61 51q27 30 41 75q1 2 3 16q2 13 1 33q0 19 -6 43q-7 23 -23 47q-40 58 -137 81q-27 4 -55 4v93h18q76 1 131 -23q82 -34 126 -100q25 -38 35 -76q9 -38 10 -69t-2 -52q-4 -20 -5 -23q-15 -57 -45 -98t-68 -68q-38 -28 -80 -44
q-43 -17 -83 -25q-19 -4 -37 -7v100zM345 640h105v-800h-105v800zM319 433q-27 0 -53 -4q-97 -23 -137 -81q-16 -24 -23 -47q-6 -24 -6 -43q-1 -20 1 -33q2 -14 3 -16q14 -45 41 -75q27 -31 61 -51q34 -19 71 -29q24 -8 42 -13v-100q-17 3 -35 7q-40 8 -83 25q-42 16 -80 44
q-38 27 -68 68t-45 98q-1 3 -5 23q-3 21 -2 52t10 69q10 38 35 76q44 66 126 100q55 24 131 23h16v-93z" />
    <glyph glyph-name="uni0425" unicode="&#x425;" horiz-adv-x="518" 
d="M319 291q42 -53 71.5 -103.5t49 -104.5t29 -113.5t9.5 -129.5h-100q0 54 -7 102t-22 93t-38.5 88t-56.5 87q5 6 23 28t42 53zM404 474q-20 -42 -46 -79.5t-58 -79.5l-32 -40t-34 -41q-40 -50 -65.5 -91t-40.5 -85t-21 -96t-6 -122h-101q0 69 4.5 124.5t19 106t41.5 99.5
t72 104q22 26 46.5 55t48.5 60.5t45 63.5t36 64q16 35 22 62.5t6 60.5h101q0 -44 -8.5 -81.5t-29.5 -84.5zM157 517q11 -25 26 -48.5t32 -46.5q-16 -23 -32.5 -44.5t-31.5 -39.5q-25 33 -47 66t-38 70h-1q-21 47 -29.5 84.5t-8.5 81.5h101q0 -33 6 -60.5t23 -62.5z" />
    <glyph glyph-name="uni0426" unicode="&#x426;" horiz-adv-x="543" 
d="M323 640h101v-684h-101v684zM503 -68v-232h-100v140h-375l89 92h386zM0 640h100v-550h194v-91h-194v-41l-100 -104v786z" />
    <glyph glyph-name="uni0427" unicode="&#x427;" horiz-adv-x="476" 
d="M325 640h101v-341l-101 80v261zM119.5 510.5q-17.5 26.5 -17.5 71.5v58h-102v-74q2 -18 8 -40.5t18 -46.5t30.5 -48t46.5 -45q31 -24 197 -155q19 -13 46 -35q29 -22 78 -59v124l-145 113q-83 62 -112.5 86t-47 50.5zM426 -160h-101v334l101 -75v-259z" />
    <glyph glyph-name="uni0428" unicode="&#x428;" horiz-adv-x="798" 
d="M647 640h101v-800h-101v800zM100 -69h194v-92h-294v801h100v-551h194v-91h-194v-67zM424 -70h194v-90h-294v800h100v-551h194v-91h-194v-68z" />
    <glyph glyph-name="uni0429" unicode="&#x429;" horiz-adv-x="867" 
d="M100 -69h194v-92h-294v801h100v-551h194v-91h-194v-67zM647 640h101v-684h-101v684zM324 -160v800h100v-551h194v-91h-194v-68h403v-230h-100v140h-403z" />
    <glyph glyph-name="uni042A" unicode="&#x42a;" horiz-adv-x="736" 
d="M349 -24q-15 -4 -37 -7q-24 -2 -62 -4v349h99v-338zM351 432h42q76 1 131 -23q82 -34 126 -100q25 -38 34.5 -76t10.5 -69t-2.5 -51.5t-4.5 -23.5q-15 -57 -45 -98t-68 -68.5t-80.5 -44t-82.5 -24.5q-37 -8 -70 -11q-28 -2 -47 -2h-45v91q62 -1 105 10q25 5 64 18
q37 10 71 29.5t61 50t41 75.5q1 2 3 15.5t1.5 33t-7 43t-22.5 47.5q-40 58 -137 81q-40 6 -81 3h-99v302h101v-208zM185 529q11 5 19 7q7 2 15 3v101q-22 -1 -38 -6q-17 -5 -32 -11l-13 -4q-10 -4 -20 -2t-20 6q-9 5 -16 10q-8 6 -13 10l-67 -76q59 -51 123 -51q13 0 24 2
t23 5q3 2 7 3q3 1 8 3z" />
    <glyph glyph-name="uni042B" unicode="&#x42b;" horiz-adv-x="709" 
d="M99 -24q-15 -4 -37 -7q-24 -2 -62 -4v349h99v-338zM101 432h42q76 1 131 -23q82 -34 126 -100q25 -38 34.5 -76t10.5 -69t-2.5 -51.5t-4.5 -23.5q-15 -57 -45 -98t-68 -68.5t-80.5 -44t-82.5 -24.5q-37 -8 -70 -11q-28 -2 -47 -2h-45v91q62 -1 105 10q25 5 64 18
q37 10 71 29.5t61 50t41 75.5q1 2 3 15.5t1.5 33t-7 43t-22.5 47.5q-40 58 -137 81q-40 6 -81 3h-99v302h101v-208zM659 640h-105v-800h105v800z" />
    <glyph glyph-name="uni042C" unicode="&#x42c;" horiz-adv-x="486" 
d="M99 -24q-15 -4 -37 -7q-24 -2 -62 -4v349h99v-338zM101 432h42q76 1 131 -23q82 -34 126 -100q25 -38 34.5 -76t10.5 -69t-2.5 -51.5t-4.5 -23.5q-15 -57 -45 -98t-68 -68.5t-80.5 -44t-82.5 -24.5q-37 -8 -70 -11q-28 -2 -47 -2h-45v91q62 -1 105 10q25 5 64 18
q37 10 71 29.5t61 50t41 75.5q1 2 3 15.5t1.5 33t-7 43t-22.5 47.5q-40 58 -137 81q-40 6 -81 3h-99v302h101v-208z" />
    <glyph glyph-name="uni042D" unicode="&#x42d;" horiz-adv-x="425" 
d="M356 94.5q-29 -69.5 -79 -124.5t-118.5 -93t-147.5 -51l-11 -2v102q61 7 112.5 35t88.5 71t57.5 96.5t20.5 111.5t-19.5 111.5t-55.5 96t-86 70.5t-111 35l-7 1v102l11 -2q79 -13 147.5 -51t118.5 -93.5t79 -124.5t29 -145t-29 -145.5zM47 332q4 -1 7 -3q12 -3 23 -5
t24 -2q64 0 123 51l-67 76q-5 -4 -13 -10q-7 -5 -17 -10q-9 -4 -19 -6t-20 2l-13 4q-15 6 -32 11q-16 5 -38 6v-101q8 -1 15 -3q8 -2 19 -7q5 -2 8 -3z" />
    <glyph glyph-name="uni042E" unicode="&#x42e;" horiz-adv-x="730" 
d="M100 640h-100v-800h100v800zM348 436q0 24 9 45q9 22 25 38q16 15 37 24t45 9t45 -9t37 -24q15 -16 24 -38q9 -21 9 -45v-392q0 -24 -9 -45q-9 -22 -24 -38q-16 -15 -37 -24t-45 -9t-45 9t-37 24q-16 16 -25 38q-9 21 -9 45v392zM248 40q1 -43 17 -81q17 -39 46 -68
q30 -29 69 -46t84 -17t85 17q39 17 68 46t46 68q16 38 17 81v396q0 45 -17 85q-17 39 -46 68t-68 46q-40 17 -85 17t-84 -17t-69 -46q-29 -29 -46 -68q-17 -40 -17 -85v-20h-114v-91h114v-285z" />
    <glyph glyph-name="uni042F" unicode="&#x42f;" horiz-adv-x="520" 
d="M322 6q-29 -56 -62 -88.5t-72.5 -50t-86 -22.5t-101.5 -5v100q33 0 57 0.5t43 3.5t34.5 8.5t30.5 14.5q29 18 52 54.5t32 73.5zM204 198q-46 57 -76.5 95t-48.5 67t-25 53.5t-7 53.5v36v42t2 31.5t6.5 23.5t13.5 19q17 17 35.5 19t35.5 2h330v-563l-100 123v340h-224v-73
q0 -16 4 -29.5t16 -31.5t33 -44.5t55 -67.5l216 -264v-189h-100v153z" />
    <glyph glyph-name="uni0430" unicode="&#x430;" horiz-adv-x="527" 
d="M310 137q-17 28 -36 56t-39 57q-43 63 -80.5 123.5t-52.5 128.5v-224v-403v-35h-102v786v14h313v-101h-116q8 -35 21.5 -66t30 -59.5t34.5 -54.5t35 -51q36 -53 70.5 -106.5t57.5 -116.5q23 -60 27 -123t4 -122h-96v45.5t-6 72.5t-20.5 87.5t-44.5 91.5zM310 74
q9 -22 16 -44t12 -43h-208v87h180z" />
    <glyph glyph-name="uni0431" unicode="&#x431;" horiz-adv-x="486" 
d="M99 -24q-15 -4 -37 -7q-24 -2 -62 -4v349h99v-338zM28 640l89 -92h228v92h-317zM101 432h42q76 1 131 -23q82 -34 126 -100q25 -38 34.5 -76t10.5 -69t-2.5 -51.5t-4.5 -23.5q-15 -57 -45 -98t-68 -68.5t-80.5 -44t-82.5 -24.5q-37 -8 -70 -11q-28 -2 -47 -2h-45v91
q62 -1 105 10q25 5 64 18q37 10 71 29.5t61 50t41 75.5q1 2 3 15.5t1.5 33t-7 43t-22.5 47.5q-40 58 -137 81q-40 6 -81 3h-99v288l101 -104v-90z" />
    <glyph glyph-name="uni0432" unicode="&#x432;" horiz-adv-x="486" 
d="M274 409q82 -34 126 -100q25 -38 34.5 -76t10.5 -69t-2.5 -51.5t-4.5 -23.5q-15 -57 -45 -98t-68 -68.5t-80.5 -44t-82.5 -25t-75 -11t-57 -2.5q-12 0 -20 0.5t-10 0.5v8v311l99 75v-289q33 4 70 14t71 29.5t61 50t41 75.5q1 2 3 15.5t1.5 33t-7 43t-22.5 47.5
q-40 58 -137 81q-14 -11 -25 -19.5t-29 -22t-47.5 -36t-78.5 -59.5v124l178 136q51 39 51 52v25v7h-7l-123 -1v-106l-99 -75v280h60h171q23 0 41.5 -1.5t35.5 -18.5t18.5 -37t1.5 -49v-24q0 -30 -12.5 -52.5t-41.5 -48.5z" />
    <glyph glyph-name="uni0433" unicode="&#x433;" horiz-adv-x="385" 
d="M0 -160v786l101 -104v-682h-101zM101 640h244v-92h-228l-89 92h73z" />
    <glyph glyph-name="uni0434" unicode="&#x434;" horiz-adv-x="618" 
d="M404 -43v1q-6 41 -20.5 87.5t-44.5 91.5q-17 28 -35.5 56t-38.5 57q-22 31 -42.5 62t-51.5 89v-444h-101v683h272v-101h-116q8 -35 21.5 -66t30 -59.5t35 -54.5t35.5 -51q36 -53 70.5 -106.5t57.5 -116.5q23 -60 26 -123q1 -3 1 -5h-99zM101 -160h377v-140h100v232h-578
v-232h101v140z" />
    <glyph glyph-name="uni0435" unicode="&#x435;" 
d="M165 336q-11 5 -18.5 7t-15.5 3v101q22 -1 38.5 -6t31.5 -11l13 -4q10 -4 20 -2t19.5 6.5t17 10t12.5 9.5l67 -76q-59 -51 -123 -51q-13 0 -24 2t-23 5q-3 2 -6.5 3t-8.5 3zM101 -58h245v-102h-346v2v790v8h346v-101h-245v-421v-176z" />
    <glyph glyph-name="uni0436" unicode="&#x436;" horiz-adv-x="818" 
d="M619 326q38 -48 71.5 -99.5t55.5 -111.5q12 -32 18.5 -67t9.5 -71t3.5 -71t0.5 -66h-95q0 59 -3.5 122.5t-22.5 114.5q-17 46 -43 87t-58 83q8 11 26.5 33.5t36.5 45.5zM222 247q-32 -42 -58 -83t-43 -87q-19 -51 -22.5 -114.5t-3.5 -122.5h-95q0 31 0.5 66t3.5 71
t9.5 71t18.5 67q22 60 55.5 111.5t71.5 99.5q18 -23 36.5 -45.5t26.5 -33.5zM437 296q15 22 31 43t33 42q24 30 47.5 60t41.5 61.5t29 65.5t11 72h96q0 -40 -9.5 -76.5t-26 -71t-38 -67.5t-45.5 -66l-78 -99q-22 -30 -40 -59t-30 -60q-17 -45 -19.5 -94.5t-2.5 -100.5v-106
h-96v106q0 51 -2.5 100.5t-19.5 94.5q-12 31 -30 60t-40 59l-78 99q-24 33 -45.5 66t-38 67.5t-26 71t-9.5 76.5h96q0 -38 11 -72t29 -65.5t41.5 -61.5t47.5 -60q17 -21 33 -42t31 -43v344h96v-344z" />
    <glyph glyph-name="uni0437" unicode="&#x437;" horiz-adv-x="486" 
d="M99 -54q33 4 70 14t71 29.5t61 50t41 75.5q1 2 3 15.5t1.5 33t-7 43t-22.5 47.5q-40 58 -137 81q-14 -11 -25 -19.5t-78 -59.5v124l101 78q51 39 51 52v32h-229v98h231q23 0 41.5 -1.5t35.5 -18.5t18.5 -37t1.5 -49v-24q0 -30 -12.5 -52.5t-41.5 -48.5q82 -34 126 -100
q25 -38 34.5 -76t10.5 -69t-2.5 -51.5t-4.5 -23.5q-15 -57 -45 -98t-68 -68.5t-80.5 -44t-82.5 -25t-75 -11t-57 -2.5q-12 0 -20 0.5t-10 0.5v102q42 -2 99 3z" />
    <glyph glyph-name="uni0438" unicode="&#x438;" horiz-adv-x="476" 
d="M426 -160h-102v510q38 25 62.5 54.5t39.5 58.5v-623zM101 334q13 15 23 26.5t18 18.5q29 28 61 46.5t59 38.5t44.5 46.5t17.5 71.5v58h102v-74q-2 -18 -8 -40.5t-18 -46.5t-30.5 -48t-46.5 -45q-29 -19 -57.5 -36.5t-52.5 -40.5q-7 -7 -25.5 -28.5t-37.5 -54t-34 -74.5
t-15 -90v-222h-101v800h101v-306z" />
    <glyph glyph-name="uni0439" unicode="&#x439;" horiz-adv-x="476" 
d="M426 -160h-102v510q38 25 62.5 54.5t39.5 58.5v-623zM101 334q13 15 23 26.5t18 18.5q29 28 61 46.5t59 38.5t44.5 46.5t17.5 71.5v58h102v-74q-2 -18 -8 -40.5t-18 -46.5t-30.5 -48t-46.5 -45q-29 -19 -57.5 -36.5t-52.5 -40.5q-7 -7 -25.5 -28.5t-37.5 -54t-34 -74.5
t-15 -90v-222h-101v800h101v-306zM184 801q-18 0 -32 5q-13 5 -24 18l-53 -74q30 -33 58 -42q28 -8 49 -8h3q17 0 33 5q17 6 32 13q26 11 37 11q10 1 16 -7l58 69q-17 22 -35 30t-36 8t-34 -6q-17 -5 -30 -10q-12 -5 -23 -9q-10 -3 -19 -3z" />
    <glyph glyph-name="uni043A" unicode="&#x43a;" horiz-adv-x="477" 
d="M278 326q38 -48 71.5 -99.5t55.5 -111.5q12 -32 18.5 -67t9.5 -71t3.5 -71t0.5 -66h-95q0 59 -3.5 122.5t-22.5 114.5q-17 46 -43 87t-58 83q8 11 26.5 33.5t36.5 45.5zM188 260q-22 -30 -40 -59t-30 -60q-17 -45 -19.5 -94.5t-2.5 -100.5v-106h-96v800h96v-344
q15 22 31 43t33 42q24 30 47.5 60t41.5 61.5t29 65.5t11 72h96q0 -40 -9.5 -76.5t-26 -71t-38 -67.5t-45.5 -66z" />
    <glyph glyph-name="uni043B" unicode="&#x43b;" horiz-adv-x="562" 
d="M417 -160l-99 377l-108 413l2 10h97l213 -800h-105zM104 -160h-104l194 730l52 -198z" />
    <glyph glyph-name="uni043C" unicode="&#x43c;" horiz-adv-x="523" 
d="M358 336q-32 -44 -63.5 -88.5t-58.5 -95.5q-29 52 -63 99t-70 100q-52 85 -74 153t-29 130v6h91q2 -29 7 -56t15 -53q21 -55 51 -103t65 -98l7 -11l7 11q35 50 65 98t51 103q10 26 15 53t7 56h92q-5 -58 -28.5 -132.5t-86.5 -171.5zM372 303q38 57 62.5 104.5t38.5 86.5
v-654h-101v463zM0 490q15 -39 39 -86.5t61 -101.5v-462h-100v650z" />
    <glyph glyph-name="uni043D" unicode="&#x43d;" horiz-adv-x="474" 
d="M100 416h194v-91h-194v-67h194v-92h-194v-326h-100v800h100v-224v0zM323 640h101v-800h-101v800z" />
    <glyph glyph-name="uni043E" unicode="&#x43e;" horiz-adv-x="500" 
d="M359 412q0 50 -31 86l70 72q29 -30 45.5 -70.5t16.5 -87.5t-18 -89t-49.5 -73.5t-73 -49.5t-89.5 -18q-43 0 -81 15t-69 41l70 73q17 -13 37 -20.5t43 -7.5q27 0 50.5 10t41 27.5t27.5 41t10 50.5zM272 101q23 0 39.5 5t30.5 18l67 -74q-38 -33 -73 -41.5t-62 -8.5h-3
q-22 0 -42.5 5.5t-39.5 12.5q-33 11 -46.5 11.5t-20.5 -7.5l-73 69q21 22 44 30t45.5 8t43 -5.5t37.5 -10.5q15 -5 28.5 -8.5t24.5 -3.5zM272 -59q23 -1 39.5 4.5t30.5 18.5l67 -75q-37 -32 -72.5 -40.5t-62.5 -8.5h-3q-22 0 -42.5 5.5t-39.5 11.5q-34 11 -46.5 12t-20.5 -7
l-73 69q21 22 44 30t45.5 8t43 -5t37.5 -11q15 -5 28.5 -8.5t24.5 -3.5zM101 412q0 -46 28 -80l-70 -73q-28 31 -43.5 70t-15.5 83q0 48 18 90t49 73t73 49t90 18q42 0 79 -13.5t67 -37.5l-70 -73q-16 11 -35 17.5t-41 6.5q-27 0 -50.5 -10t-41 -27.5t-27.5 -41.5t-10 -51z
" />
    <glyph glyph-name="uni043F" unicode="&#x43f;" horiz-adv-x="474" 
d="M294 640v-90h-194v-710h-100v800h294zM323 640h101v-800h-101v800z" />
    <glyph glyph-name="uni0440" unicode="&#x440;" horiz-adv-x="468" 
d="M323 640q20 0 38 -2t35 -19t19.5 -39t2.5 -60v-32q0 -18 -4.5 -34t-19.5 -38t-42.5 -53t-74 -77.5t-114.5 -112.5t-163 -158v140l216 203q34 33 54.5 54t31 34.5t13.5 22.5t3 19v51h-217v-245l-101 -97v443h33h290zM0 -27l101 97v-230h-101v133z" />
    <glyph glyph-name="uni0441" unicode="&#x441;" horiz-adv-x="425" 
d="M-10 240q0 76 29 145t79 124.5t118.5 93.5t147.5 51l11 2v-102l-7 -1q-61 -7 -111 -35t-86 -70.5t-55.5 -96t-19.5 -111.5t20.5 -111.5t57.5 -96.5t88.5 -71t112.5 -35v-102l-11 2q-79 13 -147.5 51t-118.5 93t-79 124.5t-29 145.5z" />
    <glyph glyph-name="uni0442" unicode="&#x442;" horiz-adv-x="494" 
d="M308 539v101h146v-101h-146zM278 640v-800h-101l-1 699h-176v101h278z" />
    <glyph glyph-name="uni0443" unicode="&#x443;" horiz-adv-x="476" 
d="M303 99q-17 -44 -48 -76q-61 -61 -194 -81v-102q91 12 155 40t109 74q43 43 66 97q14 34 21 54l-87 64q-12 -45 -22 -70zM325 382l101 -83v341h-101v-258zM164 464q27 -20 119 -90l141 -113v-124q-47 36 -78 59q-27 22 -46 35l-139 114q-29 22 -58 41q-28 21 -46 45
q-19 24 -31 48t-18 46q-6 23 -8 41v74h102v-58q0 -45 17 -72q18 -26 45 -46z" />
    <glyph glyph-name="uni0444" unicode="&#x444;" horiz-adv-x="835" 
d="M474 41q19 5 44 13q37 10 71 29q34 20 61 51q27 30 41 75q1 2 3 16q2 13 1 33q0 19 -6 43q-7 23 -23 47q-40 58 -137 81q-27 4 -55 4v93h18q76 1 131 -23q82 -34 126 -100q25 -38 35 -76q9 -38 10 -69t-2 -52q-4 -20 -5 -23q-15 -57 -45 -98t-68 -68q-38 -28 -80 -44
q-43 -17 -83 -25q-19 -4 -37 -7v100zM345 640h105v-800h-105v800zM319 433q-27 0 -53 -4q-97 -23 -137 -81q-16 -24 -23 -47q-6 -24 -6 -43q-1 -20 1 -33q2 -14 3 -16q14 -45 41 -75q27 -31 61 -51q34 -19 71 -29q24 -8 42 -13v-100q-17 3 -35 7q-40 8 -83 25q-42 16 -80 44
q-38 27 -68 68t-45 98q-1 3 -5 23q-3 21 -2 52t10 69q10 38 35 76q44 66 126 100q55 24 131 23h16v-93z" />
    <glyph glyph-name="uni0445" unicode="&#x445;" horiz-adv-x="518" 
d="M319 291q42 -53 71.5 -103.5t49 -104.5t29 -113.5t9.5 -129.5h-100q0 54 -7 102t-22 93t-38.5 88t-56.5 87q5 6 23 28t42 53zM404 474q-20 -42 -46 -79.5t-58 -79.5l-32 -40t-34 -41q-40 -50 -65.5 -91t-40.5 -85t-21 -96t-6 -122h-101q0 69 4.5 124.5t19 106t41.5 99.5
t72 104q22 26 46.5 55t48.5 60.5t45 63.5t36 64q16 35 22 62.5t6 60.5h101q0 -44 -8.5 -81.5t-29.5 -84.5zM157 517q11 -25 26 -48.5t32 -46.5q-16 -23 -32.5 -44.5t-31.5 -39.5q-25 33 -47 66t-38 70h-1q-21 47 -29.5 84.5t-8.5 81.5h101q0 -33 6 -60.5t23 -62.5z" />
    <glyph glyph-name="uni0446" unicode="&#x446;" horiz-adv-x="543" 
d="M323 640h101v-684h-101v684zM503 -68v-232h-100v140h-375l89 92h386zM0 640h100v-550h194v-91h-194v-41l-100 -104v786z" />
    <glyph glyph-name="uni0447" unicode="&#x447;" horiz-adv-x="476" 
d="M325 640h101v-341l-101 80v261zM119.5 510.5q-17.5 26.5 -17.5 71.5v58h-102v-74q2 -18 8 -40.5t18 -46.5t30.5 -48t46.5 -45q31 -24 197 -155q19 -13 46 -35q29 -22 78 -59v124l-145 113q-83 62 -112.5 86t-47 50.5zM426 -160h-101v334l101 -75v-259z" />
    <glyph glyph-name="uni0448" unicode="&#x448;" horiz-adv-x="798" 
d="M647 640h101v-800h-101v800zM100 -69h194v-92h-294v801h100v-551h194v-91h-194v-67zM424 -70h194v-90h-294v800h100v-551h194v-91h-194v-68z" />
    <glyph glyph-name="uni0449" unicode="&#x449;" horiz-adv-x="867" 
d="M100 -69h194v-92h-294v801h100v-551h194v-91h-194v-67zM647 640h101v-684h-101v684zM324 -160v800h100v-551h194v-91h-194v-68h403v-230h-100v140h-403z" />
    <glyph glyph-name="uni044A" unicode="&#x44a;" horiz-adv-x="736" 
d="M349 -24q-15 -4 -37 -7q-24 -2 -62 -4v349h99v-338zM351 432h42q76 1 131 -23q82 -34 126 -100q25 -38 34.5 -76t10.5 -69t-2.5 -51.5t-4.5 -23.5q-15 -57 -45 -98t-68 -68.5t-80.5 -44t-82.5 -24.5q-37 -8 -70 -11q-28 -2 -47 -2h-45v91q62 -1 105 10q25 5 64 18
q37 10 71 29.5t61 50t41 75.5q1 2 3 15.5t1.5 33t-7 43t-22.5 47.5q-40 58 -137 81q-40 6 -81 3h-99v302h101v-208zM185 529q11 5 19 7q7 2 15 3v101q-22 -1 -38 -6q-17 -5 -32 -11l-13 -4q-10 -4 -20 -2t-20 6q-9 5 -16 10q-8 6 -13 10l-67 -76q59 -51 123 -51q13 0 24 2
t23 5q3 2 7 3q3 1 8 3z" />
    <glyph glyph-name="uni044B" unicode="&#x44b;" horiz-adv-x="709" 
d="M99 -24q-15 -4 -37 -7q-24 -2 -62 -4v349h99v-338zM101 432h42q76 1 131 -23q82 -34 126 -100q25 -38 34.5 -76t10.5 -69t-2.5 -51.5t-4.5 -23.5q-15 -57 -45 -98t-68 -68.5t-80.5 -44t-82.5 -24.5q-37 -8 -70 -11q-28 -2 -47 -2h-45v91q62 -1 105 10q25 5 64 18
q37 10 71 29.5t61 50t41 75.5q1 2 3 15.5t1.5 33t-7 43t-22.5 47.5q-40 58 -137 81q-40 6 -81 3h-99v302h101v-208zM659 640h-105v-800h105v800z" />
    <glyph glyph-name="uni044C" unicode="&#x44c;" horiz-adv-x="486" 
d="M99 -24q-15 -4 -37 -7q-24 -2 -62 -4v349h99v-338zM101 432h42q76 1 131 -23q82 -34 126 -100q25 -38 34.5 -76t10.5 -69t-2.5 -51.5t-4.5 -23.5q-15 -57 -45 -98t-68 -68.5t-80.5 -44t-82.5 -24.5q-37 -8 -70 -11q-28 -2 -47 -2h-45v91q62 -1 105 10q25 5 64 18
q37 10 71 29.5t61 50t41 75.5q1 2 3 15.5t1.5 33t-7 43t-22.5 47.5q-40 58 -137 81q-40 6 -81 3h-99v302h101v-208z" />
    <glyph glyph-name="uni044D" unicode="&#x44d;" horiz-adv-x="425" 
d="M356 94.5q-29 -69.5 -79 -124.5t-118.5 -93t-147.5 -51l-11 -2v102q61 7 112.5 35t88.5 71t57.5 96.5t20.5 111.5t-19.5 111.5t-55.5 96t-86 70.5t-111 35l-7 1v102l11 -2q79 -13 147.5 -51t118.5 -93.5t79 -124.5t29 -145t-29 -145.5zM47 332q4 -1 7 -3q12 -3 23 -5
t24 -2q64 0 123 51l-67 76q-5 -4 -13 -10q-7 -5 -17 -10q-9 -4 -19 -6t-20 2l-13 4q-15 6 -32 11q-16 5 -38 6v-101q8 -1 15 -3q8 -2 19 -7q5 -2 8 -3z" />
    <glyph glyph-name="uni044E" unicode="&#x44e;" horiz-adv-x="730" 
d="M100 640h-100v-800h100v800zM348 436q0 24 9 45q9 22 25 38q16 15 37 24t45 9t45 -9t37 -24q15 -16 24 -38q9 -21 9 -45v-392q0 -24 -9 -45q-9 -22 -24 -38q-16 -15 -37 -24t-45 -9t-45 9t-37 24q-16 16 -25 38q-9 21 -9 45v392zM248 40q1 -43 17 -81q17 -39 46 -68
q30 -29 69 -46t84 -17t85 17q39 17 68 46t46 68q16 38 17 81v396q0 45 -17 85q-17 39 -46 68t-68 46q-40 17 -85 17t-84 -17t-69 -46q-29 -29 -46 -68q-17 -40 -17 -85v-20h-114v-91h114v-285z" />
    <glyph glyph-name="uni044F" unicode="&#x44f;" horiz-adv-x="520" 
d="M322 6q-29 -56 -62 -88.5t-72.5 -50t-86 -22.5t-101.5 -5v100q33 0 57 0.5t43 3.5t34.5 8.5t30.5 14.5q29 18 52 54.5t32 73.5zM204 198q-46 57 -76.5 95t-48.5 67t-25 53.5t-7 53.5v36v42t2 31.5t6.5 23.5t13.5 19q17 17 35.5 19t35.5 2h330v-563l-100 123v340h-224v-73
q0 -16 4 -29.5t16 -31.5t33 -44.5t55 -67.5l216 -264v-189h-100v153z" />
    <glyph glyph-name="uni0451" unicode="&#x451;" 
d="M165 336q-11 5 -18.5 7t-15.5 3v101q22 -1 38.5 -6t31.5 -11l13 -4q10 -4 20 -2t19.5 6.5t17 10t12.5 9.5l67 -76q-59 -51 -123 -51q-13 0 -24 2t-23 5q-3 2 -6.5 3t-8.5 3zM101 -58h245v-102h-346v2v790v8h346v-101h-245v-421v-176zM146 805h-96v-104h96v104zM293 805
h-96v-104h96v104z" />
    </font>
</defs>
</svg>
