<?xml version="1.0" standalone="no"?>
<!DOCTYPE svg PUBLIC "-//W3C//DTD SVG 1.1//EN" "http://www.w3.org/Graphics/SVG/1.1/DTD/svg11.dtd" >
<svg xmlns="http://www.w3.org/2000/svg" xmlns:xlink="http://www.w3.org/1999/xlink" version="1.1">
<metadata>
Created by FontForge 20190801 at Fri Jul 12 04:39:05 2019
 By root
Copyright (-) SPSL, 1993.
</metadata>
<defs>
<font id="SPSL-New-Cyrillic" horiz-adv-x="440" >
  <font-face 
    font-family="SPSL-New-Cyrillic"
    font-weight="400"
    font-stretch="normal"
    units-per-em="1000"
    panose-1="2 0 5 6 8 0 0 2 0 3"
    ascent="800"
    descent="-200"
    x-height="400"
    cap-height="600"
    bbox="-203 -270 835 758"
    underline-thickness="40"
    underline-position="-150"
    unicode-range="U+000D-2122"
  />
<missing-glyph horiz-adv-x="500" 
 />
    <glyph glyph-name=".notdef" horiz-adv-x="500" 
 />
    <glyph glyph-name="NULL" horiz-adv-x="0" 
 />
    <glyph glyph-name="NULL" horiz-adv-x="0" 
 />
    <glyph glyph-name="nonmarkingreturn" unicode="&#xd;" horiz-adv-x="240" 
 />
    <glyph glyph-name="space" unicode=" " horiz-adv-x="240" 
 />
    <glyph glyph-name="numbersign" unicode="#" horiz-adv-x="380" 
d="M220 80h-140l-22 -80h-40l22 80h-40l16 60h40l48 180h-40l16 60h40l22 80h40l-22 -80h140l22 80h40l-22 -80h40l-16 -60h-40l-48 -180h40l-16 -60h-40l-22 -80h-40zM96 140h140l48 180h-140z" />
    <glyph glyph-name="dollar" unicode="$" horiz-adv-x="489" 
d="M264 680q-4 -17 -6.5 -32.5t-4.5 -31.5q54 0 97.5 -24.5t81.5 -59.5l-98 -47q-12 17 -35.5 37t-49.5 28v-27q0 -45 3.5 -88.5t8.5 -88.5l40 -16q48 -19 80 -40.5t51.5 -43.5t28 -43.5t8.5 -40.5q0 -34 -15 -64.5t-41 -54.5t-60.5 -40.5t-73.5 -21.5q-2 -21 -6 -40.5
t-9 -40.5h-35q5 20 8 40.5t5 40.5l-22 1q-37 1 -67.5 13.5t-53.5 28t-38 30.5t-21 22l-27 32l102 57q9 -18 22.5 -36.5t30.5 -35t36.5 -30t41.5 -19.5v25q0 48 -4 94t-9 94l-51 21q-32 13 -57.5 28.5t-44 35.5t-28.5 46t-10 61q0 31 13.5 59.5t37 50.5t55.5 36.5t69 19.5
q2 17 4.5 32t7.5 33h35zM273 240q5 -42 8 -82.5t3 -82.5v-36q46 0 75 21t29 52q0 44 -32 75.5t-83 52.5zM221 362q-4 38 -6.5 75.5t-2.5 75.5v45h-14q-18 0 -35.5 -5t-31 -15t-22 -24.5t-8.5 -33.5q0 -23 6.5 -39.5t20 -29.5t33 -23.5t46.5 -20.5z" />
    <glyph glyph-name="percent" unicode="%" horiz-adv-x="481" 
d="M412 450l-300 -461l-40 21l300 461zM117 471q43 0 70.5 -28.5t27.5 -72.5q0 -45 -27.5 -73t-70.5 -28q-42 0 -69.5 28t-27.5 73q0 44 27.5 72.5t69.5 28.5zM95 447q-14 0 -22 -13.5t-8 -30.5q0 -18 6.5 -37t17 -34.5t23.5 -25.5t25 -10q14 0 22 13.5t8 30.5
q0 18 -6.5 36.5t-17 34.5t-23.5 26t-25 10zM363 191q43 0 70.5 -28.5t27.5 -72.5q0 -45 -27.5 -73t-70.5 -28q-42 0 -69.5 28t-27.5 73q0 44 27.5 72.5t69.5 28.5zM341 167q-14 0 -22 -13.5t-8 -30.5q0 -18 6.5 -37t17 -34.5t23.5 -25.5t25 -10q14 0 22 13.5t8 30.5
q0 18 -6.5 36.5t-17 34.5t-23.5 26t-25 10z" />
    <glyph glyph-name="ampersand" unicode="&#x26;" horiz-adv-x="560" 
d="M150 326q-38 35 -53 65.5t-15 68.5q0 30 11 55.5t30.5 44t46.5 29.5t60 11q27 0 50.5 -8.5t41.5 -23t28 -34.5t10 -42q0 -25 -10 -44t-27 -35.5t-39.5 -32.5t-47.5 -35q45 -31 82 -67t66 -74l24 76q11 34 25 52t42 18h25v-70h-20q-18 0 -29 -9t-18.5 -24t-13 -35
t-13.5 -43q18 -29 32 -56.5t27 -48.5t26.5 -34t30.5 -13q14 0 19.5 6.5t8.5 15.5l17 -9q-12 -41 -72 -41q-20 0 -37.5 8.5t-32.5 22t-28 31t-23 35.5q-20 -34 -39 -53.5t-39.5 -29t-43.5 -12t-49 -2.5q-36 0 -67.5 12.5t-55 34t-37 50t-13.5 61.5q0 54 33.5 97.5t86.5 81.5z
M173 306q-35 -27 -50.5 -59.5t-15.5 -66.5q0 -30 10.5 -56.5t29.5 -46t43.5 -31t53.5 -11.5q42 0 66.5 21t42.5 63q-18 32 -35.5 56.5t-38.5 45.5t-46.5 41t-59.5 44zM214 364q38 27 63 52.5t25 54.5q0 16 -7.5 33t-21 30.5t-31.5 22t-38 8.5q-33 0 -49.5 -22t-16.5 -53
q0 -34 16 -62.5t60 -63.5z" />
    <glyph glyph-name="quotesingle" unicode="'" horiz-adv-x="200" 
d="M180 600l-100 -200h-40l40 200h100z" />
    <glyph glyph-name="parenleft" unicode="(" horiz-adv-x="310" 
d="M300 600q-83 -30 -133.5 -107t-50.5 -213q0 -137 50.5 -223.5t133.5 -116.5v-30q-56 19 -105.5 48t-86 71t-57.5 99t-21 132t21 135t57.5 106t86 78t105.5 51v-30z" />
    <glyph glyph-name="parenright" unicode=")" horiz-adv-x="310" 
d="M10 -60q41 15 75 41.5t58 65.5t37.5 92t13.5 121q0 137 -50.5 223.5t-133.5 116.5v30q56 -19 105.5 -48t86 -71t57.5 -99t21 -132t-21 -135t-57.5 -106t-86 -78t-105.5 -51v30z" />
    <glyph glyph-name="asterisk" unicode="*" horiz-adv-x="360" 
d="M319 396q8 -3 12.5 -11.5t4.5 -16.5q0 -14 -9 -23t-23 -9q-11 0 -15 4l-95 76l18 -120q0 -14 -9 -23t-23 -9t-23 9t-9 23l18 120l-95 -76q-5 -4 -15 -4q-14 0 -23 9t-9 23q0 8 3.5 16.5t11.5 11.5l114 44l-114 45q-8 3 -11.5 11t-3.5 16q0 14 9 23t23 9q9 0 17 -6l93 -74
l-18 120q0 14 9 23t23 9t23 -9t9 -23l-18 -120l95 76q5 4 15 4q14 0 23 -9t9 -23q0 -8 -3.5 -16.5t-11.5 -11.5l-114 -44z" />
    <glyph glyph-name="plus" unicode="+" horiz-adv-x="460" 
d="M30 280h170v180h60v-180h170v-40h-170v-180h-60v180h-170v40z" />
    <glyph glyph-name="comma" unicode="," horiz-adv-x="160" 
d="M80 109q13 0 22.5 -6.5t15.5 -17.5t9 -25t3 -29q0 -46 -14 -73.5t-43 -47.5l-13 10q23 15 35 36t13 50q-5 -6 -12.5 -11.5t-17.5 -5.5q-21 0 -34.5 17.5t-13.5 42.5t14.5 42.5t35.5 17.5z" />
    <glyph glyph-name="hyphen" unicode="-" horiz-adv-x="240" 
d="M30 280h180v-40h-180v40z" />
    <glyph glyph-name="period" unicode="." horiz-adv-x="160" 
d="M80 109q21 0 35.5 -17.5t14.5 -42.5t-14.5 -42.5t-35.5 -17.5t-35.5 17.5t-14.5 42.5t14.5 42.5t35.5 17.5z" />
    <glyph glyph-name="slash" unicode="/" horiz-adv-x="360" 
d="M368 615l-328 -615h-40l328 615h40z" />
    <glyph glyph-name="zero" unicode="0" horiz-adv-x="424" 
d="M212 471q38 0 72 -19t59.5 -51.5t40.5 -76.5t15 -94t-15 -94t-40.5 -76.5t-59.5 -51.5t-72 -19t-72 19t-59.5 51.5t-40.5 76.5t-15 94t15 94t40.5 76.5t59.5 51.5t72 19zM168 425q-38 0 -58.5 -34t-20.5 -88q0 -46 14 -93.5t37.5 -86.5t53 -63.5t60.5 -24.5q42 0 61.5 34
t19.5 91q0 45 -14.5 92.5t-38 85.5t-53.5 62.5t-61 24.5z" />
    <glyph glyph-name="one" unicode="1" horiz-adv-x="240" 
d="M50 38h40v384h-40v28q27 0 54 6t46 14h20v-432h40v-38h-160v38z" />
    <glyph glyph-name="two" unicode="2" horiz-adv-x="370" 
d="M32 389q20 21 38 36.5t36.5 25.5t39 15t45.5 5q29 0 56.5 -7.5t49.5 -22t35 -35.5t13 -48q0 -35 -21.5 -69.5t-55.5 -67.5q-15 -15 -33.5 -32t-43 -38.5t-55.5 -49t-71 -63.5h280v-38h-332v38q51 46 84.5 77t56 52.5t37 36.5t26.5 29q20 22 31.5 45.5t11.5 48.5
q0 22 -9 40t-24 31t-34.5 20t-40.5 7q-30 0 -49.5 -14t-44.5 -38z" />
    <glyph glyph-name="three" unicode="3" horiz-adv-x="340" 
d="M-11 512q41 49 81.5 64.5t87.5 15.5q27 0 51.5 -8t43.5 -22.5t30.5 -34t11.5 -42.5q0 -32 -12 -59t-33 -51.5t-49 -48.5t-59 -50h23q24 0 49.5 -5t46.5 -18t34.5 -36t13.5 -59q0 -29 -16 -65.5t-57 -83.5q-19 -22 -42.5 -47t-55.5 -57t-74 -72.5t-97 -92.5l-11 30
q45 45 80 80.5t61.5 64.5t46 52t33.5 43q13 18 22 33.5t14.5 30t8 30t2.5 33.5q0 25 -11.5 43t-29.5 29t-40 16t-43 5h-62q52 49 83 77t51 51q23 27 32 49.5t9 48.5q0 19 -9.5 35.5t-24 28.5t-33 19t-36.5 7q-19 0 -33 -4.5t-25 -11.5t-20.5 -16.5t-20.5 -19.5z" />
    <glyph glyph-name="four" unicode="4" horiz-adv-x="365" 
d="M5 38q52 48 95.5 103t79.5 112t64 112.5t51 103.5h20v-89q-13 -29 -36.5 -67t-57 -83t-77.5 -94t-99 -98h180v102h90v-102h30v-38h-30v-120h-90v120h-220v38z" />
    <glyph glyph-name="five" unicode="5" horiz-adv-x="322" 
d="M-57 -230q45 45 80 80.5t61.5 64.5t46 52t33.5 43q13 18 22 33.5t14.5 30t8 30t2.5 33.5q0 25 -11.5 43t-29.5 29t-40 16t-43 5h-60l16 230h220v-60h-191l-8 -125h88q24 0 49.5 -5t46.5 -17.5t34.5 -35.5t13.5 -59q0 -29 -16 -65.5t-57 -83.5q-19 -22 -42.5 -47
t-55.5 -57t-74 -72.5t-97 -92.5z" />
    <glyph glyph-name="six" unicode="6" horiz-adv-x="424" 
d="M145 453q15 6 30.5 9.5t36.5 3.5q38 0 72 -19t59.5 -51.5t40.5 -76.5t15 -94t-15 -94t-40.5 -76.5t-59.5 -51.5t-72 -19t-72 19t-59.5 51.5t-40.5 76.5t-15 94q0 75 24.5 139t65 118t92 98t105.5 78l10 -28q-34 -23 -59 -43t-45.5 -41t-37.5 -43.5t-35 -49.5zM256 30
q38 0 58.5 34t20.5 88q0 46 -14.5 93.5t-37.5 86.5t-52.5 63.5t-60.5 24.5q-42 0 -61.5 -34t-19.5 -91q0 -45 14.5 -92.5t38 -85.5t53.5 -62.5t61 -24.5z" />
    <glyph glyph-name="seven" unicode="7" horiz-adv-x="342" 
d="M70 0q0 56 12.5 102t39.5 91.5t68.5 94.5t99.5 112h-199q-20 0 -38.5 -8.5t-35.5 -31.5l-11 100h324v-60q-54 -64 -89 -109t-55.5 -87t-28 -89.5t-7.5 -114.5h-80z" />
    <glyph glyph-name="eight" unicode="8" horiz-adv-x="424" 
d="M268 337q41 -19 68 -40.5t42.5 -43.5t22 -43.5t6.5 -39.5q0 -42 -18 -77t-50 -60q-27 -21 -62.5 -32.5t-75.5 -11.5q-38 0 -72 13.5t-59 36.5t-39.5 54t-14.5 67q0 27 11.5 50.5t29.5 43.5t40 36.5t44 29.5q-23 14 -39.5 27.5t-28 29t-17 34.5t-5.5 45q0 34 16 63t43 49
q20 15 46 23.5t55 8.5q31 0 58 -7.5t49 -21.5q27 -17 43 -41.5t16 -53.5q0 -23 -8 -42.5t-22.5 -36t-34.5 -31t-44 -29.5zM171 303q-15 -7 -29.5 -19t-26 -27t-18.5 -31.5t-7 -33.5q0 -32 11 -60.5t31.5 -50.5t49.5 -35t64 -13q47 0 70 27.5t23 73.5q0 23 -8 42.5t-22 36
t-32 30t-39 25.5q-17 10 -33.5 18.5t-33.5 16.5zM238 353q33 19 53 43.5t20 53.5q0 20 -8.5 41t-25 37.5t-39.5 27t-51 10.5q-21 0 -35.5 -9t-23.5 -22t-13 -27t-4 -23q0 -17 3.5 -31t15.5 -30q19 -24 45 -37.5t63 -33.5z" />
    <glyph glyph-name="nine" unicode="9" horiz-adv-x="424" 
d="M279 2q-15 -6 -30.5 -9.5t-36.5 -3.5q-38 0 -72 19t-59.5 51.5t-40.5 76.5t-15 94t15 94t40.5 76.5t59.5 51.5t72 19t72 -19t59.5 -51.5t40.5 -76.5t15 -94q0 -75 -19 -134t-58 -114t-97 -112.5t-136 -129.5l-10 30q72 68 118 123t82 109zM168 425q-38 0 -58.5 -34
t-20.5 -88q0 -46 14 -93.5t37.5 -86.5t53 -63.5t60.5 -24.5q42 0 61.5 34t19.5 91q0 45 -14.5 92.5t-38 85.5t-53.5 62.5t-61 24.5z" />
    <glyph glyph-name="colon" unicode=":" horiz-adv-x="180" 
d="M90 109q21 0 35.5 -17.5t14.5 -42.5t-14.5 -42.5t-35.5 -17.5t-35.5 17.5t-14.5 42.5t14.5 42.5t35.5 17.5zM90 411q21 0 35.5 -17.5t14.5 -42.5t-14.5 -42.5t-35.5 -17.5t-35.5 17.5t-14.5 42.5t14.5 42.5t35.5 17.5z" />
    <glyph glyph-name="semicolon" unicode=";" horiz-adv-x="180" 
d="M90 109q13 0 22.5 -6.5t15.5 -17.5t9 -25t3 -29q0 -46 -14 -73.5t-43 -47.5l-13 10q23 15 35 36t13 50q-5 -6 -12.5 -11.5t-17.5 -5.5q-21 0 -34.5 17.5t-13.5 42.5t14.5 42.5t35.5 17.5zM90 411q21 0 35.5 -17.5t14.5 -42.5t-14.5 -42.5t-35.5 -17.5t-35.5 17.5
t-14.5 42.5t14.5 42.5t35.5 17.5z" />
    <glyph glyph-name="less" unicode="&#x3c;" horiz-adv-x="360" 
d="M320 128l-297 172v40l297 172l20 -34l-274 -158l274 -158z" />
    <glyph glyph-name="equal" unicode="=" horiz-adv-x="360" 
d="M30 440h300v-40h-300v40zM30 240h300v-40h-300v40z" />
    <glyph glyph-name="greater" unicode="&#x3e;" horiz-adv-x="360" 
d="M40 512l297 -172v-40l-297 -172l-20 34l274 158l-274 158z" />
    <glyph glyph-name="question" unicode="?" horiz-adv-x="360" 
d="M22 534q40 43 76.5 62.5t86.5 19.5q27 0 53 -6t47 -18q23 -14 36.5 -34.5t13.5 -50.5q0 -18 -7.5 -36.5t-19.5 -37t-28 -36.5t-33 -34q-37 -36 -59.5 -59.5t-22.5 -53.5q0 -21 17 -36t41 -18l-39 -45q-24 5 -41.5 24.5t-17.5 48.5q0 38 17.5 71t62.5 78q29 29 37 52.5
t8 48.5q0 22 -9 40t-24 30.5t-34.5 19t-40.5 6.5q-30 0 -49.5 -14t-44.5 -38zM185 109q21 0 35.5 -17.5t14.5 -42.5t-14.5 -42.5t-35.5 -17.5t-35.5 17.5t-14.5 42.5t14.5 42.5t35.5 17.5z" />
    <glyph glyph-name="at" unicode="@" horiz-adv-x="576" 
d="M494 79q-50 -29 -113 -49t-149 -20q-48 0 -87 14.5t-67 41t-43.5 62.5t-15.5 80q0 122 96.5 216t306.5 154l129 -375q2 -6 5 -11.5t8 -9.5q-17 -6 -40.5 -12.5t-45.5 -10.5l-18 56q-39 -26 -73 -41t-76 -15q-44 0 -75.5 25.5t-31.5 77.5q0 33 19.5 59.5t47 51t56.5 48
t47 49.5l-19 64l-46 -20q-115 -50 -167.5 -117.5t-52.5 -151.5q0 -48 15.5 -84.5t42.5 -61.5t63.5 -38t78.5 -13q56 0 105.5 13.5t81.5 33.5zM382 440q-18 -22 -37.5 -38.5t-35.5 -34t-26.5 -37.5t-10.5 -49q0 -35 23 -54t55 -19q28 0 50 6t51 25z" />
    <glyph glyph-name="A" unicode="A" horiz-adv-x="540" 
d="M530 0h-110l-58 160h-233q-11 -37 -20 -76t-19 -84h-80l208 550l-18 50h108zM240 494q-31 -84 -55 -154t-45 -140h207z" />
    <glyph glyph-name="B" unicode="B" horiz-adv-x="540" 
d="M60 560h-20v40h20h192q48 0 93.5 -8t75.5 -29q17 -12 28 -28.5t11 -39.5q0 -74 -111 -141q71 -44 116 -91t45 -99q0 -38 -16.5 -68t-43.5 -51.5t-62 -33t-73 -11.5h-255h-20v40h20v520zM295 364q35 22 50 51t15 58q0 27 -13.5 44t-34 26.5t-45.5 13t-47 3.5h-60v-280z
M160 40h140q30 0 51 9t34 23t19 31.5t6 34.5q1 44 -33.5 86.5t-99.5 86.5l-117 -71v-200z" />
    <glyph glyph-name="C" unicode="C" horiz-adv-x="522" 
d="M300 -16q-56 0 -105 25t-86 68t-58 100.5t-21 122.5t21 122.5t58 100.5t86 68t105 25q34 0 61.5 -8t50.5 -21.5t42.5 -31t36.5 -35.5l-99 -52q-29 44 -65.5 67.5t-81.5 23.5q-31 0 -55 -15t-40.5 -40t-25 -56t-8.5 -63q0 -73 21.5 -136t56 -109t77.5 -72.5t85 -26.5
q40 0 72.5 23.5t61.5 55.5l17 -28q-40 -48 -91.5 -78t-115.5 -30z" />
    <glyph glyph-name="D" unicode="D" horiz-adv-x="570" 
d="M60 560h-20v40h20h200q58 0 109 -23.5t89 -64t60 -95.5t22 -117t-22 -117t-60 -95.5t-89 -64t-109 -23.5h-200v560zM160 40h107q39 0 73 13.5t59.5 37.5t40 56t14.5 68q0 57 -16.5 118t-49.5 111.5t-83 83t-117 32.5h-28v-520z" />
    <glyph glyph-name="E" unicode="E" horiz-adv-x="451" 
d="M60 560h-20v40h20h352l-12 -80q-23 23 -53 31.5t-75 8.5h-112v-220h180v-40h-180v-260h116q45 0 81 9t66 38l13 -87h-376h-20v40h20v520z" />
    <glyph glyph-name="F" unicode="F" horiz-adv-x="405" 
d="M60 560h-20v40h20h330l-12 -80q-23 23 -53 31.5t-75 8.5h-90v-220h159v-40h-159v-300h-100v560z" />
    <glyph glyph-name="G" unicode="G" horiz-adv-x="560" 
d="M310 340h200v-255q-44 -41 -96.5 -71t-113.5 -30q-56 0 -105 25t-86 68t-58 100.5t-21 122.5t21 122.5t58 100.5t86.5 68t105.5 25q34 0 61.5 -8t50.5 -21.5t42.5 -31t36.5 -35.5l-99 -52q-29 44 -65.5 67.5t-81.5 23.5q-29 0 -52.5 -14t-41 -37.5t-27 -55t-9.5 -67.5
q0 -77 22.5 -140.5t57.5 -108.5t77 -70t81 -25q14 0 30.5 4.5t25.5 16.5v238h-100v40z" />
    <glyph glyph-name="H" unicode="H" horiz-adv-x="580" 
d="M60 600h100v-260h260v260h100v-600h-100v300h-260v-300h-100v600z" />
    <glyph glyph-name="I" unicode="I" horiz-adv-x="220" 
d="M60 600h100v-600h-100v600z" />
    <glyph glyph-name="J" unicode="J" horiz-adv-x="448" 
d="M393 600v-380q0 -49 -17 -92t-47 -75t-69.5 -50.5t-84.5 -18.5q-48 0 -94.5 23t-72.5 63l92 50q26 -40 60.5 -59.5t64.5 -19.5q45 0 56.5 30t11.5 89v440h100z" />
    <glyph glyph-name="K" unicode="K" horiz-adv-x="550" 
d="M60 600h100v-260h77l94 180q12 23 22.5 38.5t22.5 24.5t27.5 13t38.5 4h11v-80h-38q-26 0 -40.5 -12.5t-25.5 -32.5l-70 -135q42 0 71 -17.5t45 -48.5l140 -274h-120l-122 247q-25 53 -78 53h-55v-300h-100v600z" />
    <glyph glyph-name="L" unicode="L" horiz-adv-x="445" 
d="M60 600h100v-560h110q45 0 81 9t66 38l13 -87h-370h-20v40h20v560z" />
    <glyph glyph-name="M" unicode="M" horiz-adv-x="750" 
d="M736 0h-112l-134 486l-145 -498l-165 499q-38 -140 -60.5 -257t-24.5 -230h-80l140 552l-17 48h110l125 -373l93 325l-12 48h110z" />
    <glyph glyph-name="N" unicode="N" horiz-adv-x="512" 
d="M102 485v-485h-42v550l-30 50h120l260 -410v310v110l60 -20q-11 -9 -14.5 -22.5t-3.5 -34.5v-33v-500h-42z" />
    <glyph glyph-name="O" unicode="O" horiz-adv-x="600" 
d="M300 616q56 0 105 -25t86 -68t58 -100.5t21 -122.5t-21 -122.5t-58 -100.5t-86 -68t-105 -25t-105 25t-86 68t-58 100.5t-21 122.5t21 122.5t58 100.5t86 68t105 25zM246 559q-31 0 -55 -14.5t-40.5 -39.5t-25.5 -58.5t-9 -71.5q0 -62 20 -122t53.5 -107t76.5 -76t88 -29
q27 0 50.5 12.5t41.5 36.5t28 58t10 77q0 67 -22 128t-56.5 106.5t-76.5 72.5t-83 27z" />
    <glyph glyph-name="P" unicode="P" horiz-adv-x="520" 
d="M60 560h-20v40h20h220q38 0 73.5 -5t64.5 -19q32 -15 52 -42t20 -69q0 -32 -13.5 -59t-35.5 -49.5t-50 -41.5t-56 -35l-175 -104v-176h-100v560zM160 560v-343l143 84q43 26 65 59.5t22 70.5q0 35 -13.5 59.5t-37.5 40t-57.5 22.5t-73.5 7h-48z" />
    <glyph glyph-name="Q" unicode="Q" horiz-adv-x="600" 
d="M300 616q56 0 105 -25t86 -68t58 -100.5t21 -122.5t-21 -122.5t-58 -100.5t-86 -68t-105 -25t-105 25t-86 68t-58 100.5t-21 122.5t21 122.5t58 100.5t86 68t105 25zM246 559q-31 0 -55 -14.5t-40.5 -39.5t-25.5 -58.5t-9 -71.5q0 -62 20 -122t53.5 -107t76.5 -76t88 -29
q27 0 50.5 12.5t41.5 36.5t28 58t10 77q0 67 -22 128t-56.5 106.5t-76.5 72.5t-83 27zM197 -80q20 17 51 30t58 13q18 0 34 -7t31 -15.5t29 -15.5t28 -7q24 0 50.5 9.5t50.5 25.5l-18 -64q-27 -26 -52.5 -40t-65.5 -13q-16 0 -32 10t-33.5 21.5t-36.5 21t-41 9.5
q-20 0 -37 -12t-32 -26z" />
    <glyph glyph-name="R" unicode="R" horiz-adv-x="526" 
d="M60 560h-20v40h189q76 0 119 -13t70 -34q18 -14 30 -35t12 -47q0 -17 -7 -37t-24 -40t-46 -37.5t-72 -29.5q20 -9 35.5 -22.5t25.5 -32.5l139 -272h-120l-122 247q-11 23 -29.5 38t-48.5 15h-31v-300h-100v560zM160 340h77q27 0 49.5 8t39 21.5t25.5 31.5t9 39
q0 27 -12 49t-33 38t-50.5 24.5t-64.5 8.5h-40v-220z" />
    <glyph glyph-name="S" unicode="S" horiz-adv-x="451" 
d="M103 158q10 -18 25 -38.5t35 -38t44.5 -29.5t52.5 -12q37 0 63 21t26 53q0 40 -24.5 76.5t-79.5 61.5l-87 39q-27 12 -50 25.5t-39.5 31.5t-26 42.5t-9.5 59.5q0 34 15 64.5t40.5 53t60 35.5t72.5 13q31 0 55 -6.5t42.5 -17.5t34.5 -26t31 -33l-90 -50q-23 35 -51.5 56
t-66.5 21q-39 0 -61 -20t-22 -52q0 -20 8.5 -35.5t22 -27.5t31 -21t36.5 -17l93 -40q43 -18 69.5 -41t41.5 -47t20.5 -48.5t5.5 -45.5q0 -38 -16 -71t-43.5 -57.5t-64.5 -38.5t-79 -14q-44 0 -76.5 11.5t-57.5 29.5t-42.5 39.5t-31.5 41.5z" />
    <glyph glyph-name="T" unicode="T" horiz-adv-x="540" 
d="M225 560h-65q-30 0 -50.5 -2t-35 -7.5t-24.5 -15.5t-20 -25l-20 90h520l-12 -80q-23 23 -53 31.5t-75 8.5h-65v-560h-100v560z" />
    <glyph glyph-name="U" unicode="U" horiz-adv-x="560" 
d="M160 600v-400q0 -36 12 -67t32 -54.5t47.5 -37t58.5 -13.5t58.5 13t47.5 36t32 54.5t12 68.5v300v110l60 -20q-11 -9 -14.5 -22.5t-3.5 -34.5v-33v-314q0 -40 -16.5 -76.5t-44.5 -64.5t-66 -44.5t-81 -16.5q-50 0 -93 15t-74.5 40.5t-49 60t-17.5 73.5v427h100z" />
    <glyph glyph-name="V" unicode="V" horiz-adv-x="530" 
d="M10 600h115l160 -507q28 78 50.5 140t40.5 120t33.5 117t30.5 130h80l-215 -567l10 -33h-110z" />
    <glyph glyph-name="W" unicode="W" horiz-adv-x="825" 
d="M407 294l-102 -261l10 -33h-110l-195 600h116l161 -512q32 81 56 147t42 128l-75 237h114l158 -512q30 77 52.5 140t40 122t32 119t28.5 131h80l-215 -567l10 -33h-110z" />
    <glyph glyph-name="X" unicode="X" horiz-adv-x="510" 
d="M196 300l-181 300h120l120 -203l85 145q21 36 38.5 47t46.5 11h20v-80h-20q-26 0 -43 -10t-30 -31l-73 -121l216 -358h-120l-154 259q-38 -64 -70.5 -128t-62.5 -131h-73z" />
    <glyph glyph-name="Y" unicode="Y" horiz-adv-x="465" 
d="M169 0v336l-159 264h120l120 -203l85 145q21 36 38.5 47t46.5 11h30v-80h-30q-26 0 -43 -10t-30 -31l-70 -116v-363h-108z" />
    <glyph glyph-name="Z" unicode="Z" horiz-adv-x="446" 
d="M342 530h-160q-42 0 -63.5 -10t-36.5 -27l-18 107h372l-322 -520h298l-28 -115q-22 35 -100 35h-269z" />
    <glyph glyph-name="bracketleft" unicode="[" horiz-adv-x="300" 
d="M280 640v-40h-120v-760h120v-40h-220v840h220z" />
    <glyph glyph-name="backslash" unicode="\" horiz-adv-x="360" 
d="M358 0h-34l-328 615h34z" />
    <glyph glyph-name="bracketright" unicode="]" horiz-adv-x="300" 
d="M20 -200v40h120v760h-120v40h220v-840h-220z" />
    <glyph glyph-name="asciicircum" unicode="^" horiz-adv-x="284" 
d="M125 615h34l120 -215h-40l-97 183l-97 -183h-40z" />
    <glyph glyph-name="underscore" unicode="_" horiz-adv-x="520" 
d="M-20 -100h560v-40h-560v40z" />
    <glyph glyph-name="grave" unicode="`" horiz-adv-x="200" 
d="M115 600l65 -200h-40l-120 200h95z" />
    <glyph glyph-name="a" unicode="a" horiz-adv-x="365" 
d="M235 34q-26 -15 -58 -30t-67 -15q-19 0 -36.5 6t-30.5 17q-14 13 -20.5 30.5t-6.5 37.5q0 25 16 51.5t45 53t69 51t89 44.5v25q0 27 -13.5 49t-50.5 22q-23 0 -48 -6t-52 -23l-11 17q21 12 43 21t42.5 14.5t37.5 8.5t28 3q21 0 40 -5t33 -16.5t22.5 -30.5t8.5 -47v-312
h-80v34zM235 252q-71 -31 -108.5 -69t-37.5 -73q0 -72 64 -72q20 0 39.5 6t42.5 17v191z" />
    <glyph glyph-name="b" unicode="b" horiz-adv-x="435" 
d="M220 411q39 0 74 -16.5t60.5 -45.5t40.5 -67.5t15 -81.5q0 -44 -15 -82t-40.5 -67t-60.5 -45.5t-74 -16.5q-53 0 -93 32l-3 -21h-74v570h-20v30h20h80v-200l-2 -16q20 13 43.5 20t48.5 7zM183 373q-30 0 -53 -23v-219q23 -45 56.5 -74.5t70.5 -29.5q40 0 61.5 34t21.5 85
q0 40 -13 80.5t-35 73t-50.5 53t-58.5 20.5z" />
    <glyph glyph-name="c" unicode="c" horiz-adv-x="353" 
d="M215 -11q-39 0 -74 16.5t-60.5 45.5t-40.5 67t-15 82q0 43 15 81.5t40.5 67.5t60.5 45.5t74 16.5q45 0 72.5 -18.5t50.5 -43.5l-66 -38q-21 29 -44.5 45.5t-49.5 16.5q-38 0 -60.5 -32.5t-22.5 -80.5q0 -46 13.5 -88t35.5 -74.5t50.5 -51.5t59.5 -19q26 0 49 17t41 42
l11 -17q-30 -42 -62 -61t-78 -19z" />
    <glyph glyph-name="d" unicode="d" horiz-adv-x="435" 
d="M215 -11q-39 0 -74 16.5t-60.5 45.5t-40.5 67t-15 82q0 43 15 81.5t40.5 67.5t60.5 45.5t74 16.5q25 0 50.5 -8t42.5 -22q-2 4 -2.5 9.5t-0.5 9.5v170h-20v30h20h80v-600h-74l-3 16q-18 -12 -43 -19.5t-50 -7.5zM252 27q33 0 53 23v219q-23 45 -56.5 74.5t-70.5 29.5
q-40 0 -61.5 -34t-21.5 -85q0 -40 13 -80.5t35 -73t50.5 -53t58.5 -20.5z" />
    <glyph glyph-name="e" unicode="e" horiz-adv-x="397" 
d="M315 257q-8 22 -22.5 43t-33 37t-39.5 26t-42 10q-10 0 -23.5 -3.5t-26 -15.5t-22 -35t-11.5 -62h220zM97 227q4 -41 18.5 -77t36 -63.5t47.5 -43.5t55 -16q26 0 49 17t41 42l11 -17q-30 -42 -62 -61t-78 -19q-39 0 -74 16.5t-60.5 45.5t-40.5 67t-15 82q0 43 15 81.5
t40.5 67.5t60.5 45.5t74 16.5q32 0 60.5 -14t51 -38.5t37 -58t17.5 -73.5h-284z" />
    <glyph glyph-name="f" unicode="f" horiz-adv-x="205" 
d="M50 0v370h-49v30h49v32q0 35 13.5 65.5t36.5 53.5t54 36t66 13q45 0 72.5 -18.5t50.5 -43.5l-66 -38q-21 29 -44.5 45.5t-49.5 16.5q-53 0 -53 -93v-69h86v-30h-86v-370h-80z" />
    <glyph glyph-name="g" unicode="g" horiz-adv-x="435" 
d="M385 400v-395q0 -54 -22 -99t-58 -74q-47 -38 -110 -38q-42 0 -81 20.5t-67 58.5l70 41q26 -40 55.5 -61t59.5 -21q33 0 53 26.5t20 91.5v66q-19 -12 -42 -19.5t-48 -7.5q-39 0 -74 16.5t-60.5 45.5t-40.5 67t-15 82q0 43 15 81.5t40.5 67.5t60.5 45.5t74 16.5
q25 0 49 -7.5t45 -21.5l2 18h74zM305 269q-23 45 -56.5 74.5t-70.5 29.5q-40 0 -61.5 -34t-21.5 -85q0 -40 13 -80.5t35 -73t50.5 -53t58.5 -20.5q33 0 53 23v219z" />
    <glyph glyph-name="h" unicode="h" horiz-adv-x="435" 
d="M50 570h-20v30h20h80v-215q0 -17 -3 -38q22 31 51.5 47.5t71.5 16.5q32 0 58 -11t44 -30t28 -45t10 -55v-270h-80v250q0 56 -26.5 86t-67.5 30q-29 0 -51 -18t-35 -48v-300h-80v570z" />
    <glyph glyph-name="i" unicode="i" horiz-adv-x="185" 
d="M55 370h-20v30h20h80v-400h-80v370zM95 590q21 0 35.5 -17.5t14.5 -42.5t-14.5 -42.5t-35.5 -17.5t-35.5 17.5t-14.5 42.5t14.5 42.5t35.5 17.5z" />
    <glyph glyph-name="j" unicode="j" horiz-adv-x="185" 
d="M135 400v-414q0 -54 -22 -99t-58 -74q-47 -38 -110 -38q-42 0 -81 20.5t-67 58.5l70 41q26 -40 55.5 -61t59.5 -21q33 0 53 26.5t20 91.5v439h-20v30h100zM95 590q21 0 35.5 -17.5t14.5 -42.5t-14.5 -42.5t-35.5 -17.5t-35.5 17.5t-14.5 42.5t14.5 42.5t35.5 17.5z" />
    <glyph glyph-name="k" unicode="k" horiz-adv-x="396" 
d="M50 570h-20v30h20h80v-370h39l75 133q9 17 23 27t34 10h26v-60h-46q-22 0 -31 -17l-50 -93h12q24 0 46.5 -13t36.5 -37l99 -180h-93l-84 165q-6 12 -21.5 23.5t-32.5 11.5h-33v-200h-80v570z" />
    <glyph glyph-name="l" unicode="l" horiz-adv-x="180" 
d="M50 570h-20v30h20h80v-600h-80v570z" />
    <glyph glyph-name="m" unicode="m" horiz-adv-x="655" 
d="M50 400h77v-39q23 29 53 39.5t60 10.5q42 0 71.5 -19t42.5 -46q12 20 28.5 32.5t34 20t34 10t29.5 2.5q26 0 49.5 -9t41.5 -24t28.5 -35t10.5 -43v-300h-80v280q0 19 -6.5 36t-17 29.5t-25.5 20t-31 7.5q-20 0 -44.5 -14.5t-35.5 -50.5v-308h-80v280q0 19 -6.5 36
t-17 29.5t-25.5 20t-31 7.5q-23 0 -46 -15t-34 -50v-308h-80v400z" />
    <glyph glyph-name="n" unicode="n" horiz-adv-x="435" 
d="M50 400h77v-53q22 31 51.5 47.5t71.5 16.5q32 0 58 -11t44 -30t28 -45t10 -55v-270h-80v250q0 56 -26.5 86t-67.5 30q-29 0 -51 -18t-35 -48v-300h-80v400z" />
    <glyph glyph-name="o" unicode="o" horiz-adv-x="430" 
d="M215 411q39 0 74 -16.5t60.5 -45.5t40.5 -67.5t15 -81.5q0 -44 -15 -82t-40.5 -67t-60.5 -45.5t-74 -16.5t-74 16.5t-60.5 45.5t-40.5 67t-15 82q0 43 15 81.5t40.5 67.5t60.5 45.5t74 16.5zM178 373q-40 0 -61.5 -34t-21.5 -85q0 -41 13.5 -82t35 -73t50 -52t58.5 -20
q40 0 61.5 34t21.5 85q0 40 -13 80.5t-35 73t-50.5 53t-58.5 20.5z" />
    <glyph glyph-name="p" unicode="p" horiz-adv-x="435" 
d="M220 411q39 0 74 -16.5t60.5 -45.5t40.5 -67.5t15 -81.5q0 -44 -15 -82t-40.5 -67t-60.5 -45.5t-74 -16.5q-25 0 -51 8t-44 24q2 -4 3.5 -10t1.5 -11v-200h-80v600h78v-16q20 13 43.5 20t48.5 7zM183 373q-33 0 -53 -23v-219q23 -45 56.5 -74.5t70.5 -29.5q40 0 61.5 34
t21.5 85q0 40 -13 80.5t-35 73t-50.5 53t-58.5 20.5z" />
    <glyph glyph-name="q" unicode="q" horiz-adv-x="435" 
d="M307 16q-44 -27 -92 -27q-39 0 -74 16.5t-60.5 45.5t-40.5 67t-15 82q0 43 15 81.5t40.5 67.5t60.5 45.5t74 16.5q25 0 50 -8t43 -24l3 21h74v-600h-80v200q0 6 2 16zM305 269q-23 45 -56.5 74.5t-70.5 29.5q-40 0 -61.5 -34t-21.5 -85q0 -40 13 -80.5t35 -73t50.5 -53
t58.5 -20.5q33 0 53 23v219z" />
    <glyph glyph-name="r" unicode="r" horiz-adv-x="360" 
d="M127 400v-32q22 19 51 31t62 12q45 0 72.5 -18.5t50.5 -43.5l-66 -38q-21 29 -44.5 45.5t-49.5 16.5q-25 0 -44 -15t-29 -41v-317h-80v400h77z" />
    <glyph glyph-name="s" unicode="s" horiz-adv-x="299" 
d="M194 322q-16 23 -34.5 37t-44.5 14t-39.5 -13t-13.5 -35q0 -26 20 -41t45 -26l61 -26q28 -12 46 -27t28.5 -31.5t14 -33t3.5 -30.5q0 -25 -10.5 -47t-29 -38.5t-43 -26t-52.5 -9.5q-30 0 -51.5 7.5t-37.5 19.5t-27.5 26.5t-21.5 28.5l61 36q7 -13 17 -27t23.5 -26
t29.5 -19.5t35 -7.5q25 0 42 14t17 35q0 29 -20 52t-49 36l-58 26q-37 16 -60 39.5t-23 70.5q0 23 9.5 43t26.5 35t39 24t48 9q42 0 65.5 -16.5t42.5 -39.5z" />
    <glyph glyph-name="t" unicode="t" horiz-adv-x="240" 
d="M0 370q30 30 49.5 54t34 46t25 43.5t21.5 46.5v-160h100v-30h-100v-277q0 -39 14 -52.5t30 -13.5q19 0 46 35l17 -11q-19 -27 -43 -44.5t-53 -17.5q-40 0 -65.5 24.5t-25.5 59.5v297h-50z" />
    <glyph glyph-name="u" unicode="u" horiz-adv-x="435" 
d="M385 0h-77v53q-22 -31 -51.5 -47.5t-71.5 -16.5q-32 0 -58 11t-44 30t-28 45t-10 55v270h80v-250q0 -56 26.5 -86t67.5 -30q29 0 51 18t35 48v300h80v-400z" />
    <glyph glyph-name="v" unicode="v" horiz-adv-x="381" 
d="M10 400h90l116 -331q20 52 36 96.5t28.5 84.5t21 77t13.5 73h60l-144 -370l10 -30h-88z" />
    <glyph glyph-name="w" unicode="w" horiz-adv-x="601" 
d="M300 213l-69 -183l10 -30h-88l-143 400h90l116 -331q22 57 38.5 104t28.5 90l-47 137h90l110 -331q20 52 36 96.5t28.5 84.5t21 77t13.5 73h60l-144 -370l10 -30h-88z" />
    <glyph glyph-name="x" unicode="x" horiz-adv-x="336" 
d="M237 0l-97 173q-23 -40 -38.5 -80t-28.5 -93h-60l112 201l-112 199h92l67 -118l46 83q11 20 26.5 27.5t36.5 7.5h16v-60h-40q-21 0 -31 -17l-40 -68l144 -255h-93z" />
    <glyph glyph-name="y" unicode="y" horiz-adv-x="395" 
d="M222 53l84 295q14 52 54 52h19v-60h-23q-20 0 -26 -21l-149 -519h-32l58 200h-54l-143 400h90z" />
    <glyph glyph-name="z" unicode="z" horiz-adv-x="350" 
d="M310 400l-216 -340h206l-19 -89q-2 8 -8 13.5t-13.5 9t-15.5 5t-14 1.5h-212l227 352h-112q-28 0 -46 -5t-29 -23l-11 76h263z" />
    <glyph glyph-name="braceleft" unicode="{" horiz-adv-x="339" 
d="M322 699q-60 -18 -85.5 -45t-25.5 -72q0 -15 3.5 -34t8 -39t8 -40t3.5 -38q0 -42 -23 -79t-63 -63q-11 -7 -23 -12.5t-36 -14.5q18 -8 31 -14t23 -12t19 -13t18 -16q54 -54 54 -117q0 -11 -3.5 -32.5t-8 -44.5t-8 -44t-3.5 -30q0 -45 25.5 -71.5t85.5 -44.5v-17
q-52 10 -82.5 25.5t-55.5 44.5q-45 52 -45 127q0 9 3.5 30t7.5 43.5t7.5 42t3.5 27.5q0 82 -112 105v20q112 22 112 105q0 32 -11 69.5t-11 80.5q0 6 1 20t6.5 32.5t17 39t32 40t51 35t75.5 23.5v-17z" />
    <glyph glyph-name="bar" unicode="|" horiz-adv-x="160" 
d="M100 615v-814h-40v814h40z" />
    <glyph glyph-name="braceright" unicode="}" horiz-adv-x="340" 
d="M17 -178q60 18 85 44.5t25 71.5q0 15 -3.5 34t-7.5 39t-7.5 40t-3.5 38q0 42 22.5 79t63.5 63q11 7 23 12.5t35 14.5q-35 15 -53.5 26t-36.5 29q-54 52 -54 117q0 13 3.5 31.5t7.5 39t7.5 41.5t3.5 40q0 45 -25 71.5t-85 44.5v17q26 -5 46 -11.5t36 -14.5t29.5 -19
t25.5 -26q46 -52 46 -126q0 -10 -3.5 -31t-7.5 -43.5t-7.5 -42t-3.5 -26.5q0 -83 111 -105v-20q-111 -23 -111 -106q0 -31 11 -69t11 -81q0 -6 -1.5 -20t-7 -32t-17 -39t-31.5 -40t-51 -34.5t-75 -23.5v17z" />
    <glyph glyph-name="asciitilde" unicode="~" horiz-adv-x="333" 
d="M331 587q10 0 10 -21q0 -110 -80 -110q-22 0 -39 11t-31 24t-27 24t-27 11q-31 0 -35 -39q-2 -16 -4 -21t-7 -5q-10 0 -10 22q0 110 87 110q19 0 34.5 -11t29 -24.5t26.5 -24.5t27 -11q35 0 38 41q1 14 3 19t5 5z" />
    <glyph glyph-name="afii10051" unicode="&#x402;" horiz-adv-x="671" 
d="M171 560h-16q-30 0 -50.5 -2t-35 -7.5t-24.5 -15.5t-20 -25l-20 90h466l-12 -80q-23 23 -53 31.5t-75 8.5h-60v-210q36 26 75 43.5t91 17.5q47 0 83.5 -16.5t61 -43.5t37 -61t12.5 -70v-41q0 -49 -17 -92t-47 -75t-69.5 -50.5t-84.5 -18.5q-48 0 -75 23t-27 63l92 50
q0 -38 15.5 -58.5t44.5 -20.5q42 0 55 29.5t13 89.5v81q0 72 -33 113t-90 41q-46 0 -76.5 -15t-60.5 -41v-298h-100v560z" />
    <glyph glyph-name="afii10052" unicode="&#x403;" horiz-adv-x="427" 
d="M60 560h-20v40h20h350l-12 -80q-23 23 -53 31.5t-75 8.5h-110v-560h-100v560zM317 756l46 -31l-231 -85l-20 10z" />
    <glyph glyph-name="quotesinglbase" unicode="&#x201a;" horiz-adv-x="160" 
d="M80 109q13 0 22.5 -6.5t15.5 -17.5t9 -25t3 -29q0 -46 -14 -73.5t-43 -47.5l-13 10q23 15 35 36t13 50q-5 -6 -12.5 -11.5t-17.5 -5.5q-21 0 -34.5 17.5t-13.5 42.5t14.5 42.5t35.5 17.5z" />
    <glyph glyph-name="afii10100" unicode="&#x453;" horiz-adv-x="337" 
d="M50 0v370h-20v30h20h280l-20 -80q-11 15 -21 24.5t-21.5 15.5t-25 8t-32.5 2h-80v-370h-80zM211 600h46l-103 -140h-24z" />
    <glyph glyph-name="quotedblbase" unicode="&#x201e;" horiz-adv-x="300" 
d="M80 109q13 0 22.5 -6.5t15.5 -17.5t9 -25t3 -29q0 -46 -14 -73.5t-43 -47.5l-13 10q23 15 35 36t13 50q-5 -6 -12.5 -11.5t-17.5 -5.5q-21 0 -34.5 17.5t-13.5 42.5t14.5 42.5t35.5 17.5zM220 109q13 0 22.5 -6.5t15.5 -17.5t9 -25t3 -29q0 -46 -14 -73.5t-43 -47.5
l-13 10q23 15 35 36t13 50q-5 -6 -12.5 -11.5t-17.5 -5.5q-21 0 -34.5 17.5t-13.5 42.5t14.5 42.5t35.5 17.5z" />
    <glyph glyph-name="ellipsis" unicode="&#x2026;" 
d="M80 109q21 0 35.5 -17.5t14.5 -42.5t-14.5 -42.5t-35.5 -17.5t-35.5 17.5t-14.5 42.5t14.5 42.5t35.5 17.5zM220 109q21 0 35.5 -17.5t14.5 -42.5t-14.5 -42.5t-35.5 -17.5t-35.5 17.5t-14.5 42.5t14.5 42.5t35.5 17.5zM360 109q21 0 35.5 -17.5t14.5 -42.5t-14.5 -42.5
t-35.5 -17.5t-35.5 17.5t-14.5 42.5t14.5 42.5t35.5 17.5z" />
    <glyph glyph-name="dagger" unicode="&#x2020;" horiz-adv-x="380" 
d="M150 0v400h-130v60h130v140h80v-140h130v-60h-130v-400h-80z" />
    <glyph glyph-name="daggerdbl" unicode="&#x2021;" horiz-adv-x="460" 
d="M190 227v93h-170v60h170v90h-90v60h90v70h80v-70h90v-60h-90v-90h170v-60h-170v-122l92 -34l-20 -57l-72 26v-133h-80v162l-92 34l20 57z" />
    <glyph glyph-name="afii10146" unicode="&#x462;" horiz-adv-x="607" 
d="M180 560h-20q-30 0 -50.5 -2t-35 -7.5t-24.5 -15.5t-20 -25l-20 90h170v100h100v-100h190l-12 -80q-23 23 -53 31.5t-75 8.5h-50v-520h73q27 0 57 3.5t55.5 13.5t42.5 29t17 50t-15 52.5t-38 38t-50.5 29t-51.5 25.5t-42 28.5t-22 37.5l58 64q3 -17 21.5 -30.5t44 -27.5
t54.5 -30t53.5 -36.5t41 -47t16.5 -61.5q0 -47 -18.5 -80.5t-50.5 -55t-75.5 -32t-93.5 -10.5h-77h-100v560z" />
    <glyph glyph-name="perthousand" unicode="&#x2030;" horiz-adv-x="718" 
d="M412 450l-300 -461l-40 21l300 461zM117 471q43 0 70.5 -28.5t27.5 -72.5q0 -45 -27.5 -73t-70.5 -28q-42 0 -69.5 28t-27.5 73q0 44 27.5 72.5t69.5 28.5zM95 447q-14 0 -22 -13.5t-8 -30.5q0 -18 6.5 -37t17 -34.5t23.5 -25.5t25 -10q14 0 22 13.5t8 30.5
q0 18 -6.5 36.5t-17 34.5t-23.5 26t-25 10zM363 191q43 0 70.5 -28.5t27.5 -72.5q0 -45 -27.5 -73t-70.5 -28q-42 0 -69.5 28t-27.5 73q0 44 27.5 72.5t69.5 28.5zM341 167q-14 0 -22 -13.5t-8 -30.5q0 -18 6.5 -37t17 -34.5t23.5 -25.5t25 -10q14 0 22 13.5t8 30.5
q0 18 -6.5 36.5t-17 34.5t-23.5 26t-25 10zM600 191q43 0 70.5 -28.5t27.5 -72.5q0 -45 -27.5 -73t-70.5 -28q-42 0 -69.5 28t-27.5 73q0 44 27.5 72.5t69.5 28.5zM578 167q-14 0 -22 -13.5t-8 -30.5q0 -18 6.5 -37t17 -34.5t23.5 -25.5t25 -10q14 0 22 13.5t8 30.5
q0 18 -6.5 36.5t-17 34.5t-23.5 26t-25 10z" />
    <glyph glyph-name="afii10058" unicode="&#x409;" horiz-adv-x="760" 
d="M330 494h-3q-60 -106 -118 -230.5t-113 -263.5h-92l326 579v21h100v-560h73q27 0 57 3.5t55.5 13.5t42.5 29t17 50t-15 52.5t-38 38t-50.5 29t-51.5 25.5t-42 28.5t-22 37.5l58 64q3 -17 21.5 -30.5t44 -27.5t54.5 -30t53.5 -36.5t41 -47t16.5 -61.5q0 -47 -18.5 -80.5
t-50.5 -55t-75.5 -32t-93.5 -10.5h-77h-100v494z" />
    <glyph glyph-name="quilsinglleft" horiz-adv-x="212" 
d="M192 363l-101 -115l101 -115l-11 -25l-161 125v30l161 125z" />
    <glyph glyph-name="afii10059" unicode="&#x40a;" horiz-adv-x="850" 
d="M60 600h100v-260h260v260h100v-560h73q27 0 57 3.5t55.5 13.5t42.5 29t17 50t-15 52.5t-38 38t-50.5 29t-51.5 25.5t-42 28.5t-22 37.5l58 64q3 -17 21.5 -30.5t44 -27.5t54.5 -30t53.5 -36.5t41 -47t16.5 -61.5q0 -47 -18.5 -80.5t-50.5 -55t-75.5 -32t-93.5 -10.5h-77
h-100v300h-260v-300h-100v600z" />
    <glyph glyph-name="afii10061" unicode="&#x40c;" horiz-adv-x="550" 
d="M60 600h100v-260h77l94 180q12 23 22.5 38.5t22.5 24.5t27.5 13t38.5 4h11v-80h-38q-26 0 -40.5 -12.5t-25.5 -32.5l-70 -135q42 0 71 -17.5t45 -48.5l140 -274h-120l-122 247q-25 53 -78 53h-55v-300h-100v600zM365 756l46 -31l-231 -85l-20 10z" />
    <glyph glyph-name="afii10060" unicode="&#x40b;" horiz-adv-x="671" 
d="M171 560h-16q-30 0 -50.5 -2t-35 -7.5t-24.5 -15.5t-20 -25l-20 90h466l-12 -80q-23 23 -53 31.5t-75 8.5h-60v-210q36 26 75 43.5t91 17.5q42 0 77.5 -14t61.5 -37t40.5 -52.5t14.5 -60.5v-247h-100v211q0 67 -35.5 105t-87.5 38q-46 0 -76.5 -15t-60.5 -41v-298h-100
v560z" />
    <glyph glyph-name="afii10145" unicode="&#x40f;" horiz-adv-x="580" 
d="M60 600h100v-560h260v560h100v-560h20v-40h-20h-190q-12 -76 -46.5 -132t-90.5 -102l-52 52q67 41 105 85.5t44 96.5h-230h-20v40h20v560z" />
    <glyph glyph-name="afii10099" unicode="&#x452;" 
d="M50 0v507h-73v30h73v33h-20v30h20h80v-63h137v-30h-137v-122q0 -17 -3 -38q22 31 51.5 47.5t71.5 16.5q32 0 58 -11t44 -30t28 -45t10 -55v-284q0 -54 -22 -99t-58 -74q-47 -38 -110 -38q-42 0 -81 20.5t-67 58.5l70 41q26 -40 55.5 -61t59.5 -21q33 0 53 26.5t20 91.5
v319q0 56 -26.5 86t-67.5 30q-29 0 -51 -18t-35 -48v-300h-80z" />
    <glyph glyph-name="quoteleft" unicode="&#x2018;" horiz-adv-x="160" 
d="M80 402q-13 0 -22.5 6.5t-15.5 17.5t-9 25t-3 29q0 46 14 73.5t43 47.5l13 -10q-23 -15 -35 -36t-13 -50q5 6 12.5 11.5t17.5 5.5q21 0 34.5 -17.5t13.5 -42.5t-14.5 -42.5t-35.5 -17.5z" />
    <glyph glyph-name="quoteright" unicode="&#x2019;" horiz-adv-x="160" 
d="M80 600q13 0 22.5 -6.5t15.5 -17.5t9 -25t3 -29q0 -46 -14 -73.5t-43 -47.5l-13 10q23 15 35 36t13 50q-5 -6 -12.5 -11.5t-17.5 -5.5q-21 0 -34.5 17.5t-13.5 42.5t14.5 42.5t35.5 17.5z" />
    <glyph glyph-name="quotedblleft" unicode="&#x201c;" horiz-adv-x="300" 
d="M220 400q-13 0 -22.5 6.5t-15.5 17.5t-9 25t-3 29q0 46 14 73.5t43 47.5l13 -10q-23 -15 -35 -36t-13 -50q5 6 12.5 11.5t17.5 5.5q21 0 34.5 -17.5t13.5 -42.5t-14.5 -42.5t-35.5 -17.5zM80 400q-13 0 -22.5 6.5t-15.5 17.5t-9 25t-3 29q0 46 14 73.5t43 47.5l13 -10
q-23 -15 -35 -36t-13 -50q5 6 12.5 11.5t17.5 5.5q21 0 34.5 -17.5t13.5 -42.5t-14.5 -42.5t-35.5 -17.5z" />
    <glyph glyph-name="quotedblright" unicode="&#x201d;" horiz-adv-x="300" 
d="M80 600q13 0 22.5 -6.5t15.5 -17.5t9 -25t3 -29q0 -46 -14 -73.5t-43 -47.5l-13 10q23 15 35 36t13 50q-5 -6 -12.5 -11.5t-17.5 -5.5q-21 0 -34.5 17.5t-13.5 42.5t14.5 42.5t35.5 17.5zM220 600q13 0 22.5 -6.5t15.5 -17.5t9 -25t3 -29q0 -46 -14 -73.5t-43 -47.5
l-13 10q23 15 35 36t13 50q-5 -6 -12.5 -11.5t-17.5 -5.5q-21 0 -34.5 17.5t-13.5 42.5t14.5 42.5t35.5 17.5z" />
    <glyph glyph-name="bullet" unicode="&#x2022;" horiz-adv-x="240" 
d="M120 350q33 0 56.5 -26t23.5 -64t-23.5 -64t-56.5 -26t-56.5 26t-23.5 64t23.5 64t56.5 26z" />
    <glyph glyph-name="endash" unicode="&#x2013;" horiz-adv-x="500" 
d="M20 280h460v-40h-460v40z" />
    <glyph glyph-name="emdash" unicode="&#x2014;" horiz-adv-x="580" 
d="M40 280h500v-40h-500v40z" />
    <glyph glyph-name="afii10194" unicode="&#x463;" horiz-adv-x="470" 
d="M140 0v370h-10q-19 0 -33 -2t-25 -7.5t-21 -15.5t-21 -25l-20 80h130v200h80v-200h140l-20 -80q-11 15 -21 24.5t-21.5 15.5t-25 8t-32.5 2h-20v-340h90q30 0 47.5 14t17.5 39q0 20 -5 37.5t-19 34.5t-38 34t-63 36l54 39q75 -32 113 -70.5t38 -86.5q0 -23 -12 -43
t-32.5 -34t-48.5 -22t-59 -8h-83h-80z" />
    <glyph glyph-name="trademark" unicode="&#x2122;" horiz-adv-x="750" 
d="M130 593h-24q-24 0 -36.5 -14t-27.5 -58l-32 99h304l-24 -81q-11 16 -17.5 26.5t-14 16.5t-16.5 8.5t-24 2.5h-24v-333h-64v333zM338 593h-16v27h16h112q0 -41 1 -93.5t8.5 -100t24 -80t46.5 -32.5t46 32.5t23.5 80t9 100t1.5 93.5h112h16v-27h-16v-333h-64v333h-24
q0 -29 -0.5 -65t-3.5 -73t-9 -72t-17.5 -62.5t-29.5 -44t-44 -16.5t-44 16.5t-29.5 44t-17.5 62.5t-9 72t-3.5 73t-0.5 65h-24v-333h-64v333z" />
    <glyph glyph-name="afii10106" unicode="&#x459;" horiz-adv-x="565" 
d="M235 309h-4q-20 -33 -39 -66.5t-39 -70.5t-40.5 -79t-43.5 -93h-65l231 379v21h80v-370h90q30 0 47.5 14t17.5 39q0 20 -5 37.5t-19 34.5t-38 34t-63 36l54 39q75 -32 113 -70.5t38 -86.5q0 -23 -12 -43t-32.5 -34t-48.5 -22t-59 -8h-83h-80h-20v30h20v279z" />
    <glyph glyph-name="quilsinglright" horiz-adv-x="212" 
d="M20 133l101 115l-101 115l11 25l161 -125v-30l-161 -125z" />
    <glyph glyph-name="afii10107" unicode="&#x45a;" horiz-adv-x="640" 
d="M50 0v400h80v-170h180v170h80v-370h90q30 0 47.5 14t17.5 39q0 20 -5 37.5t-19 34.5t-38 34t-63 36l54 39q75 -32 113 -70.5t38 -86.5q0 -23 -12 -43t-32.5 -34t-48.5 -22t-59 -8h-83h-80v200h-180v-200h-80z" />
    <glyph glyph-name="afii10109" unicode="&#x45c;" horiz-adv-x="396" 
d="M130 0h-80v400h80v-170h39l75 133q9 17 23 27t34 10h26v-60h-46q-22 0 -31 -17l-50 -93h12q24 0 46.5 -13t36.5 -37l99 -180h-93l-84 165q-6 12 -21.5 23.5t-32.5 11.5h-33v-200zM233 600h46l-103 -140h-24z" />
    <glyph glyph-name="afii10108" unicode="&#x45b;" 
d="M310 0v250q0 56 -26.5 86t-67.5 30q-29 0 -51 -18t-35 -48v-300h-80v507h-73v30h73v33h-20v30h20h80v-63h137v-30h-137v-122q0 -17 -3 -38q22 31 51.5 47.5t71.5 16.5q32 0 58 -11t44 -30t28 -45t10 -55v-270h-80z" />
    <glyph glyph-name="afii10193" unicode="&#x45f;" 
d="M390 400v-370h20v-30h-20h-142q-5 -36 -14.5 -64t-23.5 -52t-33.5 -46t-44.5 -44l-39 37q54 38 86 78.5t38 90.5h-167h-20v30h20v370h80v-370h180v370h80z" />
    <glyph glyph-name="FLW160" horiz-adv-x="120" 
 />
    <glyph glyph-name="afii10062" unicode="&#x40e;" horiz-adv-x="500" 
d="M209 -16l62 176h-83l-172 440h111l154 -410l112 330q15 45 32.5 62.5t44.5 17.5h20v-80h-20q-17 0 -27 -8t-17 -31l-170 -497h-47zM427 742q-35 -40 -74.5 -66t-96.5 -26q-22 0 -39 6.5t-30.5 16.5t-24 21.5t-19.5 21.5l74 42q30 -59 80 -59q15 0 27.5 2t25 7.5t26.5 15
t31 25.5z" />
    <glyph glyph-name="afii10110" unicode="&#x45e;" horiz-adv-x="395" 
d="M222 53l84 295q14 52 54 52h19v-60h-23q-20 0 -26 -21l-149 -519h-32l58 200h-54l-143 400h90zM348 550q-27 -33 -61.5 -56t-79.5 -23q-20 0 -35.5 6.5t-27.5 15.5t-20.5 19t-14.5 18l65 32q26 -52 68 -52q23 0 41.5 10.5t48.5 36.5z" />
    <glyph glyph-name="afii10057" unicode="&#x408;" horiz-adv-x="448" 
d="M393 600v-380q0 -49 -17 -92t-47 -75t-69.5 -50.5t-84.5 -18.5q-48 0 -94.5 23t-72.5 63l92 50q26 -40 60.5 -59.5t64.5 -19.5q45 0 56.5 30t11.5 89v440h100z" />
    <glyph glyph-name="currency" unicode="&#xa4;" horiz-adv-x="405" 
d="M173 394q-36 0 -55.5 -27t-19.5 -66q0 -33 12 -64.5t31.5 -57t44.5 -41t51 -15.5q37 0 56 26.5t19 66.5q0 31 -12 63t-31.5 57.5t-44.5 41.5t-51 16zM206 437q20 0 38.5 -4.5t29.5 -9.5l36 60l75 -12l-64 -76q25 -19 44.5 -55.5t19.5 -80.5q0 -45 -20 -82t-46 -55l66 -75
l-78 -12l-35 59q-10 -5 -29 -9t-39 -4t-38.5 4.5t-29.5 9.5l-36 -60l-75 12l64 76q-25 19 -44.5 55.5t-19.5 80.5q0 45 20 82t46 55l-66 75l78 12l35 -59q10 5 29 9t39 4z" />
    <glyph glyph-name="afii10050" unicode="&#x490;" horiz-adv-x="427" 
d="M60 560h-20v40h20h241q23 0 40 4.5t30 12t24 16t23 17.5l-8 -50l-12 -80q-23 23 -53 31.5t-75 8.5h-110v-560h-100v560z" />
    <glyph glyph-name="brokenbar" unicode="&#xa6;" horiz-adv-x="180" 
d="M130 300h-80v300h80v-300zM130 -80h-80v300h80v-300z" />
    <glyph glyph-name="section" unicode="&#xa7;" horiz-adv-x="500" 
d="M128 336q-22 19 -34.5 45.5t-12.5 68.5q0 34 15 64.5t40.5 53t60 35.5t72.5 13q40 0 68 -10.5t47 -24t32 -28t24 -21.5l-98 -49q-23 35 -51.5 56t-66.5 21q-39 0 -61 -20t-22 -52q0 -20 8.5 -35.5t22 -27.5t31 -21t36.5 -17l93 -40q43 -18 69.5 -41t41.5 -47t20.5 -48.5
t5.5 -45.5q0 -51 -26.5 -91.5t-71.5 -63.5q22 -19 34.5 -45.5t12.5 -68.5q0 -35 -15 -65t-40.5 -52.5t-60 -35.5t-72.5 -13q-41 0 -68.5 10.5t-46.5 24t-32 27.5t-24 22l98 49q23 -35 51.5 -56t66.5 -21q39 0 61 20t22 52q0 20 -8.5 35t-22 27t-31 21.5t-36.5 17.5l-93 40
q-43 18 -69.5 41t-41.5 47t-20.5 48.5t-5.5 45.5q0 51 26.5 91.5t71.5 63.5zM323 41q32 5 53 24.5t21 48.5q0 40 -24.5 76.5t-79.5 61.5q-37 16 -58.5 26t-33 15t-16.5 7.5l-9 4.5q-32 -5 -53 -24.5t-21 -48.5q0 -40 24.5 -76.5t79.5 -61.5q37 -17 58.5 -26.5t33 -14.5
t16.5 -7.5z" />
    <glyph glyph-name="afii10023" unicode="&#x401;" horiz-adv-x="450" 
d="M60 560h-20v40h20h360l-12 -80q-23 23 -53 31.5t-75 8.5h-120v-220h180v-40h-180v-260h115q45 0 81 9t66 38l13 -87h-375h-20v40h20v520zM160 740q21 0 35.5 -14t14.5 -34t-14.5 -34t-35.5 -14t-35.5 14t-14.5 34t14.5 34t35.5 14zM300 740q21 0 35.5 -14t14.5 -34
t-14.5 -34t-35.5 -14t-35.5 14t-14.5 34t14.5 34t35.5 14z" />
    <glyph glyph-name="copyright" unicode="&#xa9;" horiz-adv-x="720" 
d="M370 89q-39 0 -74 16.5t-60.5 45.5t-40.5 67t-15 82q0 43 15 81.5t40.5 67.5t60.5 45.5t74 16.5q45 0 72.5 -18.5t50.5 -43.5l-66 -38q-21 29 -44.5 45.5t-49.5 16.5q-38 0 -60.5 -32.5t-22.5 -80.5q0 -46 13.5 -88t35.5 -74.5t50.5 -51.5t59.5 -19q26 0 49 17t41 42
l11 -17q-30 -42 -62 -61t-78 -19zM360 620q66 0 124.5 -25t102 -68.5t68.5 -102t25 -124.5t-25 -124.5t-68.5 -102t-102 -68.5t-124.5 -25t-124.5 25t-102 68.5t-68.5 102t-25 124.5t25 124.5t68.5 102t102 68.5t124.5 25zM360 580q-56 0 -105 -22t-86 -60t-58 -89t-21 -109
t21 -109t58 -89t86 -60t105 -22t105 22t86 60t58 89t21 109t-21 109t-58 89t-86 60t-105 22z" />
    <glyph glyph-name="afii10053" unicode="&#x404;" horiz-adv-x="530" 
d="M131 272q14 -51 38.5 -93.5t54.5 -73t64.5 -47.5t67.5 -17q40 0 72.5 23.5t61.5 55.5l17 -28q-40 -48 -91.5 -78t-115.5 -30q-56 0 -105 25t-86 68t-58 100.5t-21 122.5t21 122.5t58 100.5t86 68t105 25q34 0 61.5 -8t50.5 -21.5t42.5 -31t36.5 -35.5l-99 -52
q-29 44 -65.5 67.5t-81.5 23.5q-31 0 -55 -15t-40.5 -40t-25 -56t-8.5 -63q0 -41 8 -84q43 26 81.5 36.5t75.5 10.5q42 0 75 -11t62 -28l-91 -50q-23 20 -48 30.5t-63 10.5q-21 0 -42.5 -7.5t-42.5 -20.5z" />
    <glyph glyph-name="guillemotleft" unicode="&#xab;" horiz-adv-x="321" 
d="M192 363l-101 -115l101 -115l-11 -25l-161 125v30l161 125zM301 380l-56 -132l56 -132l-9 -29l-129 161l129 161z" />
    <glyph glyph-name="logicalnot" unicode="&#xac;" horiz-adv-x="370" 
d="M30 280h300v-140h-100v100h-200v40z" />
    <glyph glyph-name="sfthyphen" unicode="&#xad;" horiz-adv-x="360" 
d="M30 280h300v-40h-300v40z" />
    <glyph glyph-name="registered" unicode="&#xae;" horiz-adv-x="720" 
d="M238 473h-14v27h163q27 0 53 -4.5t45.5 -15t31.5 -28t12 -44.5q0 -21 -8.5 -38t-22 -31.5t-30.5 -27t-35 -23.5l101 -182l-76 -24l-85 170l-67 -40v-119h-68v380zM376 335q28 -3 44 -27q22 17 32 36.5t10 40.5q0 48 -34 68t-90 20h-32v-233l56 33q-8 11 -15 19t-18 11z
M360 620q66 0 124.5 -25t102 -68.5t68.5 -102t25 -124.5t-25 -124.5t-68.5 -102t-102 -68.5t-124.5 -25t-124.5 25t-102 68.5t-68.5 102t-25 124.5t25 124.5t68.5 102t102 68.5t124.5 25zM360 580q-56 0 -105 -22t-86 -60t-58 -89t-21 -109t21 -109t58 -89t86 -60t105 -22
t105 22t86 60t58 89t21 109t-21 109t-58 89t-86 60t-105 22z" />
    <glyph glyph-name="afii10056" unicode="&#x407;" horiz-adv-x="220" 
d="M60 600h100v-600h-100v600zM40 740q21 0 35.5 -14t14.5 -34t-14.5 -34t-35.5 -14t-35.5 14t-14.5 34t14.5 34t35.5 14zM180 740q21 0 35.5 -14t14.5 -34t-14.5 -34t-35.5 -14t-35.5 14t-14.5 34t14.5 34t35.5 14z" />
    <glyph glyph-name="degree" unicode="&#xb0;" horiz-adv-x="235" 
d="M117 600q43 0 70.5 -28.5t27.5 -72.5q0 -45 -27.5 -73t-70.5 -28q-42 0 -69.5 28t-27.5 73q0 44 27.5 72.5t69.5 28.5zM95 576q-14 0 -22 -13.5t-8 -30.5q0 -18 6.5 -37t17 -34.5t23.5 -25.5t25 -10q14 0 22 13.5t8 30.5q0 18 -6.5 36.5t-17 34.5t-23.5 26t-25 10z" />
    <glyph glyph-name="plusminus" unicode="&#xb1;" horiz-adv-x="460" 
d="M30 340h170v180h60v-180h170v-40h-170v-180h-60v180h-170v40zM30 80h400v-40h-400v40z" />
    <glyph glyph-name="afii10055" unicode="&#x406;" horiz-adv-x="220" 
d="M60 600h100v-600h-100v600z" />
    <glyph glyph-name="afii10103" unicode="&#x456;" horiz-adv-x="185" 
d="M55 370h-20v30h20h80v-400h-80v370zM95 590q21 0 35.5 -17.5t14.5 -42.5t-14.5 -42.5t-35.5 -17.5t-35.5 17.5t-14.5 42.5t14.5 42.5t35.5 17.5z" />
    <glyph glyph-name="afii10098" unicode="&#x491;" horiz-adv-x="337" 
d="M50 0v370h-20v30h20h198q20 0 42 6.5t48 21.5l-8 -28l-20 -80q-11 15 -21 24.5t-21.5 15.5t-25 8t-32.5 2h-80v-370h-80z" />
    <glyph glyph-name="mu" unicode="&#xb5;" 
d="M390 0h-77v53q-22 -31 -51.5 -47.5t-71.5 -16.5q-34 0 -64 14q4 -19 4 -42v-186h-80v625h80v-250q0 -56 26.5 -86t67.5 -30q29 0 51 18t35 48v300h80v-400z" />
    <glyph glyph-name="paragraph" unicode="&#xb6;" horiz-adv-x="550" 
d="M370 600v-760h-40v720h-94q-25 0 -51 -3.5t-47 -13.5t-34.5 -29t-13.5 -50q0 -32 16 -53.5t40 -38t52 -29.5t52 -27t42 -37.5t18 -52.5l-68 -46q-4 17 -11.5 27t-25.5 21q-25 16 -57 33.5t-60.5 39t-48 50t-19.5 66.5q0 55 20.5 90.5t54.5 56t77 28.5t88 8h70h40z
M490 600v-760h-40v760h40z" />
    <glyph glyph-name="periodcentered" unicode="&#xb7;" horiz-adv-x="180" 
d="M90 264q21 0 35.5 -17.5t14.5 -42.5t-14.5 -42.5t-35.5 -17.5t-35.5 17.5t-14.5 42.5t14.5 42.5t35.5 17.5z" />
    <glyph glyph-name="afii10071" unicode="&#x451;" horiz-adv-x="405" 
d="M315 257q-8 22 -22.5 43t-33 37t-39.5 26t-42 10q-10 0 -23.5 -3.5t-26 -15.5t-22 -35t-11.5 -62h220zM97 227q4 -41 18.5 -77t36 -63.5t47.5 -43.5t55 -16q26 0 49 17t41 42l11 -17q-30 -42 -62 -61t-78 -19q-39 0 -74 16.5t-60.5 45.5t-40.5 67t-15 82q0 43 15 81.5
t40.5 67.5t60.5 45.5t74 16.5q32 0 60.5 -14t51 -38.5t37 -58t17.5 -73.5h-284zM125 590q21 0 35.5 -17.5t14.5 -42.5t-14.5 -42.5t-35.5 -17.5t-35.5 17.5t-14.5 42.5t14.5 42.5t35.5 17.5zM285 590q21 0 35.5 -17.5t14.5 -42.5t-14.5 -42.5t-35.5 -17.5t-35.5 17.5
t-14.5 42.5t14.5 42.5t35.5 17.5z" />
    <glyph glyph-name="afii61352" unicode="&#x2116;" horiz-adv-x="716" 
d="M102 485v-485h-42v550l-30 50h120l260 -410v310v110l60 -20q-11 -9 -14.5 -22.5t-3.5 -34.5v-33v-500h-42zM598 191q43 0 70.5 -28.5t27.5 -72.5q0 -45 -27.5 -73t-70.5 -28q-42 0 -69.5 28t-27.5 73q0 44 27.5 72.5t69.5 28.5zM576 167q-14 0 -22 -13.5t-8 -30.5
q0 -18 6.5 -37t17 -34.5t23.5 -25.5t25 -10q14 0 22 13.5t8 30.5q0 18 -6.5 36.5t-17 34.5t-23.5 26t-25 10z" />
    <glyph glyph-name="afii10101" unicode="&#x454;" horiz-adv-x="355" 
d="M215 -11q-39 0 -74 16.5t-60.5 45.5t-40.5 67t-15 82q0 43 15 81.5t40.5 67.5t60.5 45.5t74 16.5q45 0 72.5 -18.5t50.5 -43.5l-66 -38q-21 29 -44.5 45.5t-49.5 16.5q-38 0 -60.5 -32.5t-22.5 -80.5q0 -14 1.5 -28t3.5 -28q23 14 50 25t55 11q34 0 54.5 -7t45.5 -20
l-54 -32q-18 16 -35 21t-43 5q-15 0 -32.5 -7.5t-34.5 -18.5q9 -33 24 -61t34.5 -48.5t42.5 -32.5t47 -12q26 0 49 17t41 42l11 -17q-30 -42 -62 -61t-78 -19z" />
    <glyph glyph-name="guillemotright" unicode="&#xbb;" horiz-adv-x="321" 
d="M301 263v-30l-161 -125l-11 25l101 115l-101 115l11 25zM158 248l-129 -161l-9 29l56 132l-56 132l9 29z" />
    <glyph glyph-name="afii10105" unicode="&#x458;" horiz-adv-x="185" 
d="M135 400v-414q0 -54 -22 -99t-58 -74q-47 -38 -110 -38q-42 0 -81 20.5t-67 58.5l70 41q26 -40 55.5 -61t59.5 -21q33 0 53 26.5t20 91.5v439h-20v30h100zM95 590q21 0 35.5 -17.5t14.5 -42.5t-14.5 -42.5t-35.5 -17.5t-35.5 17.5t-14.5 42.5t14.5 42.5t35.5 17.5z" />
    <glyph glyph-name="afii10054" unicode="&#x405;" horiz-adv-x="451" 
d="M103 158q10 -18 25 -38.5t35 -38t44.5 -29.5t52.5 -12q37 0 63 21t26 53q0 17 -4 36t-16 38t-34.5 36.5t-59.5 31.5l-62 24l37 41l-57 18q-55 17 -85 46t-30 77q0 34 14 62.5t38 49t55.5 31.5t65.5 11q31 0 56.5 -6.5t46 -17.5t38 -26t32.5 -33l-90 -50q-23 35 -51.5 56
t-66.5 21q-39 0 -61 -20t-22 -52q0 -20 9 -36t23.5 -28.5t33 -22t37.5 -16.5l91 -34l-39 -40l41 -16q69 -27 100.5 -63t31.5 -74t-16 -70t-43.5 -55t-64.5 -36t-79 -13q-44 0 -76.5 11.5t-57.5 29.5t-42.5 39.5t-31.5 41.5z" />
    <glyph glyph-name="afii10102" unicode="&#x455;" horiz-adv-x="344" 
d="M194 322q-16 23 -34.5 37t-44.5 14q-24 0 -36.5 -13.5t-12.5 -35.5q0 -17 5 -32.5t18.5 -28t36 -21.5t57.5 -13q47 -5 76.5 -18t46 -30.5t22 -37t5.5 -36.5q0 -24 -12.5 -45.5t-33.5 -37.5t-49.5 -25.5t-61.5 -9.5q-64 0 -103.5 20.5t-68.5 62.5l66 38q20 -43 53.5 -63
t68.5 -20t54.5 18t19.5 45q0 12 -2.5 28.5t-13.5 32t-35.5 28.5t-67.5 19q-69 10 -97 38t-28 70q0 22 9.5 41t26.5 33t39 22.5t48 8.5q42 0 65.5 -16.5t42.5 -39.5z" />
    <glyph glyph-name="afii10104" unicode="&#x457;" horiz-adv-x="185" 
d="M55 370h-20v30h20h80v-400h-80v370zM25 590q21 0 35.5 -17.5t14.5 -42.5t-14.5 -42.5t-35.5 -17.5t-35.5 17.5t-14.5 42.5t14.5 42.5t35.5 17.5zM165 590q21 0 35.5 -17.5t14.5 -42.5t-14.5 -42.5t-35.5 -17.5t-35.5 17.5t-14.5 42.5t14.5 42.5t35.5 17.5z" />
    <glyph glyph-name="afii10017" unicode="&#x410;" horiz-adv-x="523" 
d="M374 95l-60 -45t-55.5 -36.5t-57 -24.5t-62.5 -9q-29 0 -50 11t-35 30t-21 44.5t-7 54.5q0 48 14 93.5t40 95t62 104.5t81 122l-23 65h112l207 -600h-113zM239 490q-38 -57 -62.5 -103.5t-39.5 -85t-21 -70t-6 -59.5q0 -24 5 -46t14 -38t22.5 -25.5t30.5 -9.5q49 0 90 22
t87 61z" />
    <glyph glyph-name="afii10018" unicode="&#x411;" horiz-adv-x="496" 
d="M60 560h-20v40h360l-12 -80q-23 23 -53 31.5t-75 8.5h-100v-520h73q27 0 57 3.5t55.5 13.5t42.5 29t17 50t-15 52.5t-38 38t-50.5 29t-51.5 25.5t-42 28.5t-22 37.5l58 64q3 -17 21.5 -30.5t44 -27.5t54.5 -30t53.5 -36.5t41 -47t16.5 -61.5q0 -47 -18.5 -80.5t-50.5 -55
t-75.5 -32t-93.5 -10.5h-77h-100v560z" />
    <glyph glyph-name="afii10019" unicode="&#x412;" horiz-adv-x="506" 
d="M60 0v560h-20v40h241q28 0 53.5 -3.5t44.5 -12t30 -22t11 -32.5q0 -26 -23.5 -46t-51.5 -36.5t-51.5 -29.5t-23.5 -26q0 -10 16 -20.5t40 -22.5t51.5 -28t51.5 -36t40 -46.5t16 -60.5q0 -47 -18.5 -80.5t-50.5 -55t-75.5 -32t-93.5 -10.5h-187zM160 40h83q27 0 57 3.5
t55.5 13.5t42.5 29t17 50t-16 52.5t-40 38.5t-51.5 30.5t-51.5 28.5t-40 33.5t-16 44.5q0 23 18.5 39t41 30.5t41.5 31t19 41.5q0 9 -7.5 18.5t-19 17.5t-25 13t-26.5 5h-82v-520z" />
    <glyph glyph-name="afii10020" unicode="&#x413;" horiz-adv-x="427" 
d="M60 560h-20v40h20h350l-12 -80q-23 23 -53 31.5t-75 8.5h-110v-560h-100v560z" />
    <glyph glyph-name="afii10021" unicode="&#x414;" horiz-adv-x="574" 
d="M317 600l208 -560h40q-8 -92 -43.5 -157t-98.5 -117l-52 52q67 41 105 85.5t44 96.5h-360q-30 0 -50.5 -2t-35 -7.5t-24.5 -15.5t-20 -25l-20 90h50q33 70 58 132t44.5 123t35 123t30.5 131l-18 51h107zM254 478q-13 -58 -27.5 -110t-32.5 -103.5t-40 -106.5t-49 -118
h310z" />
    <glyph glyph-name="afii10022" unicode="&#x415;" 
d="M60 560h-20v40h20h360l-12 -80q-23 23 -53 31.5t-75 8.5h-120v-220h180v-40h-180v-260h115q45 0 81 9t66 38l13 -87h-375h-20v40h20v520z" />
    <glyph glyph-name="afii10024" unicode="&#x416;" horiz-adv-x="753" 
d="M307 411q-72 -65 -118 -165t-67 -246h-110q19 90 49.5 158t69 121.5t83.5 96.5t93 84v16q-41 29 -73 42.5t-67 13.5q-20 0 -36 -13.5t-23 -51.5l-83 41q3 18 11 34.5t21 29t31 20.5t41 8q38 0 84.5 -22.5t93.5 -52.5v75h100v-84q31 23 56.5 41.5t48 31.5t43 20t40.5 7
q23 0 40 -9t29.5 -21.5t21 -27t16.5 -26.5l-87 -46q-25 58 -65 58q-14 0 -27.5 -2.5t-30 -10t-37 -21t-48.5 -35.5q47 -33 89.5 -70.5t83.5 -90.5t82.5 -129t86.5 -185h-120q-35 145 -92.5 253t-129.5 173v-426h-100v411z" />
    <glyph glyph-name="afii10025" unicode="&#x417;" horiz-adv-x="474" 
d="M276 373q25 16 37.5 36t12.5 51q0 20 -10 40t-27 36t-40 26t-50 10t-46 -15.5t-19 -41.5q0 -24 13 -39l-66 -40q-10 11 -14.5 27t-4.5 30q0 19 12.5 40.5t34.5 39.5t52 30t65 12q38 0 71.5 -9.5t58.5 -26.5t39.5 -39.5t14.5 -47.5q0 -44 -21.5 -73.5t-70.5 -61.5
q58 -25 96.5 -73t38.5 -109q0 -40 -16.5 -74.5t-45.5 -60.5t-70.5 -41t-90.5 -15q-66 0 -123.5 28t-99.5 90l93 54q32 -50 76 -83t94 -33q36 0 61.5 26t25.5 71q0 56 -30 97t-81 70q-23 -14 -42 -21.5t-37 -7.5q-35 0 -51 14.5t-16 38.5q0 11 7.5 21.5t20 19t28 13.5t30.5 5
q26 0 49.5 -4t40.5 -10zM210 321q-25 14 -47 14q-8 0 -14.5 -4.5t-6.5 -11.5t6 -10.5t13 -3.5q13 0 25.5 5t23.5 11z" />
    <glyph glyph-name="afii10026" unicode="&#x418;" horiz-adv-x="580" 
d="M60 600h100v-300l260 165v135h100v-600h-100v420l-260 -165v-255h-100v600z" />
    <glyph glyph-name="afii10027" unicode="&#x419;" horiz-adv-x="580" 
d="M60 600h100v-300l260 165v135h100v-600h-100v420l-260 -165v-255h-100v600zM456 742q-35 -40 -74.5 -66t-96.5 -26q-22 0 -39 6.5t-30.5 16.5t-24 21.5t-19.5 21.5l74 42q30 -59 80 -59q15 0 27.5 2t25 7.5t26.5 15t31 25.5z" />
    <glyph glyph-name="afii10028" unicode="&#x41a;" horiz-adv-x="550" 
d="M60 600h100v-260h77l94 180q12 23 22.5 38.5t22.5 24.5t27.5 13t38.5 4h11v-80h-38q-26 0 -40.5 -12.5t-25.5 -32.5l-70 -135q42 0 71 -17.5t45 -48.5l140 -274h-120l-122 247q-25 53 -78 53h-55v-300h-100v600z" />
    <glyph glyph-name="afii10029" unicode="&#x41b;" horiz-adv-x="541" 
d="M529 0h-110l-182 494q-25 -69 -45.5 -128.5t-38 -117t-33.5 -117.5t-31 -131h-80l208 550l-19 50h108z" />
    <glyph glyph-name="afii10030" unicode="&#x41c;" horiz-adv-x="739" 
d="M731 0h-112l-134 486l-145 -498l-165 499q-38 -140 -60.5 -257t-24.5 -230h-80l140 552l-17 48h110l125 -373l93 325l-12 48h110z" />
    <glyph glyph-name="afii10031" unicode="&#x41d;" horiz-adv-x="580" 
d="M60 600h100v-260h260v260h100v-600h-100v300h-260v-300h-100v600z" />
    <glyph glyph-name="afii10032" unicode="&#x41e;" horiz-adv-x="600" 
d="M300 616q56 0 105 -25t86 -68t58 -100.5t21 -122.5t-21 -122.5t-58 -100.5t-86 -68t-105 -25t-105 25t-86 68t-58 100.5t-21 122.5t21 122.5t58 100.5t86 68t105 25zM246 559q-31 0 -55 -14.5t-40.5 -39.5t-25.5 -58.5t-9 -71.5q0 -62 20 -122t53.5 -107t76.5 -76t88 -29
q27 0 50.5 12.5t41.5 36.5t28 58t10 77q0 67 -22 128t-56.5 106.5t-76.5 72.5t-83 27z" />
    <glyph glyph-name="afii10033" unicode="&#x41f;" horiz-adv-x="580" 
d="M60 560h-20v40h20h460h20v-40h-20v-560h-100v560h-260v-560h-100v560z" />
    <glyph glyph-name="afii10034" unicode="&#x420;" horiz-adv-x="504" 
d="M57 0v410q0 52 25.5 95.5t67.5 71.5q27 18 59.5 28t67.5 10t67.5 -9t58.5 -26q38 -24 61 -60t23 -80q0 -38 -12.5 -67t-35 -51t-54 -37t-68.5 -25q-46 -12 -64 -35t-26 -53l-57 44q8 23 33.5 39.5t77.5 24.5q45 7 75.5 32.5t30.5 63.5q0 43 -11.5 79t-31 61.5t-46 39.5
t-56.5 14q-42 0 -63.5 -26t-21.5 -86v-458h-100z" />
    <glyph glyph-name="afii10035" unicode="&#x421;" horiz-adv-x="516" 
d="M300 -16q-56 0 -105 25t-86 68t-58 100.5t-21 122.5t21 122.5t58 100.5t86 68t105 25q34 0 61.5 -8t50.5 -21.5t42.5 -31t36.5 -35.5l-99 -52q-29 44 -65.5 67.5t-81.5 23.5q-31 0 -55 -15t-40.5 -40t-25 -56t-8.5 -63q0 -73 21.5 -136t56 -109t77.5 -72.5t85 -26.5
q40 0 72.5 23.5t61.5 55.5l17 -28q-40 -48 -91.5 -78t-115.5 -30z" />
    <glyph glyph-name="afii10036" unicode="&#x422;" horiz-adv-x="545" 
d="M230 560h-75q-30 0 -50.5 -2t-35 -7.5t-24.5 -15.5t-20 -25l-20 90h525l-12 -80q-23 23 -53 31.5t-75 8.5h-60v-560h-100v560z" />
    <glyph glyph-name="afii10037" unicode="&#x423;" horiz-adv-x="500" 
d="M210 -11l61 171h-83l-172 440h111l154 -410l112 330q15 45 32.5 62.5t44.5 17.5h20v-80h-20q-17 0 -27 -8t-17 -31l-170 -497z" />
    <glyph glyph-name="afii10038" unicode="&#x424;" horiz-adv-x="768" 
d="M335 0v560h-80q-27 0 -57 -3.5t-55.5 -13.5t-42.5 -29t-17 -50q0 -32 17 -54.5t42 -40t55 -31.5t55 -29t42 -33.5t17 -44.5l-70 -41q-3 16 -21 30t-43.5 28t-54 29.5t-53 36t-40.5 46.5t-16 62q0 46 18.5 80t50.5 55.5t75.5 32t93.5 10.5h84h213q28 0 60.5 -6t63.5 -20
q35 -16 59 -42t24 -67q0 -53 -40.5 -96.5t-104.5 -83.5l-175 -109v-176h-100zM435 220l120 73q48 29 71.5 67t23.5 73q0 36 -15 60.5t-38 39.5t-50 21t-52 6h-60v-340z" />
    <glyph glyph-name="afii10039" unicode="&#x425;" horiz-adv-x="510" 
d="M196 300l-181 300h120l120 -203l85 145q21 36 38.5 47t46.5 11h20v-80h-20q-26 0 -43 -10t-30 -31l-73 -121l216 -358h-120l-154 259q-38 -64 -70.5 -128t-62.5 -131h-73z" />
    <glyph glyph-name="afii10040" unicode="&#x426;" horiz-adv-x="580" 
d="M60 600h100v-560h260v560h100v-560h55q-8 -92 -43.5 -157t-98.5 -117l-52 52q67 41 105 85.5t44 96.5h-470h-20v40h20v560z" />
    <glyph glyph-name="afii10041" unicode="&#x427;" horiz-adv-x="567" 
d="M507 600v-600h-100v428q-27 -26 -50 -42t-44.5 -26t-42.5 -13.5t-43 -3.5q-45 0 -86 25t-71 85l-66 132l107 31l54 -125q23 -43 49 -67t58 -24q18 0 32 4t29 13.5t32.5 24.5t41.5 38v120h100z" />
    <glyph glyph-name="afii10042" unicode="&#x428;" horiz-adv-x="820" 
d="M60 600h100v-560h200v560h100v-560h200v560h100v-560h20v-40h-20h-700h-20v40h20v560z" />
    <glyph glyph-name="afii10043" unicode="&#x429;" horiz-adv-x="820" 
d="M60 600h100v-560h200v560h100v-560h200v560h100v-560h55q-8 -92 -43.5 -157t-98.5 -117l-52 52q67 41 105 85.5t44 96.5h-410h-300h-20v40h20v560z" />
    <glyph glyph-name="afii10044" unicode="&#x42a;" horiz-adv-x="640" 
d="M210 560h-50q-30 0 -50.5 -2t-35 -7.5t-24.5 -15.5t-20 -25l-20 90h340v-40h-40v-520h73q27 0 57 3.5t55.5 13.5t42.5 29t17 50t-15 52.5t-38 38t-50.5 29t-51.5 25.5t-42 28.5t-22 37.5l58 64q3 -17 21.5 -30.5t44 -27.5t54.5 -30t53.5 -36.5t41 -47t16.5 -61.5
q0 -47 -18.5 -80.5t-50.5 -55t-75.5 -32t-93.5 -10.5h-77h-100v560z" />
    <glyph glyph-name="afii10045" unicode="&#x42b;" horiz-adv-x="700" 
d="M60 600h100v-560h73q27 0 57 3.5t55.5 13.5t42.5 29t17 50t-15 52.5t-38 38t-50.5 29t-51.5 25.5t-42 28.5t-22 37.5l58 64q3 -17 21.5 -30.5t44 -27.5t54.5 -30t53.5 -36.5t41 -47t16.5 -61.5q0 -47 -18.5 -80.5t-50.5 -55t-75.5 -32t-93.5 -10.5h-77h-100v600zM640 600
v-600h-100v600h100z" />
    <glyph glyph-name="afii10046" unicode="&#x42c;" horiz-adv-x="490" 
d="M60 600h100v-560h73q27 0 57 3.5t55.5 13.5t42.5 29t17 50t-15 52.5t-38 38t-50.5 29t-51.5 25.5t-42 28.5t-22 37.5l58 64q3 -17 21.5 -30.5t44 -27.5t54.5 -30t53.5 -36.5t41 -47t16.5 -61.5q0 -47 -18.5 -80.5t-50.5 -55t-75.5 -32t-93.5 -10.5h-77h-100v600z" />
    <glyph glyph-name="afii10047" unicode="&#x42d;" horiz-adv-x="526" 
d="M39 518q46 51 93.5 74.5t109.5 23.5q50 0 96 -23.5t81 -64.5t56 -98t21 -124q0 -62 -18.5 -120t-54 -103t-86.5 -72t-117 -27q-59 0 -109 29.5t-101 86.5l105 51q29 -50 70.5 -80t89.5 -30q37 0 64.5 16t44.5 41.5t25.5 58.5t8.5 68q0 13 -1 26.5t-3 27.5q-26 17 -55 27
t-57 10q-38 0 -70 -13.5t-64 -48.5l-39 74q29 19 58 28t73 9q42 0 79 -13t67 -33q-3 11 -6 21.5t-8 21.5q-12 30 -31.5 65t-46 64t-59 48.5t-68.5 19.5q-18 0 -34 -3.5t-31.5 -11t-32 -20t-35.5 -31.5z" />
    <glyph glyph-name="afii10048" unicode="&#x42e;" horiz-adv-x="831" 
d="M531 616q56 0 105 -25t86 -68t58 -100.5t21 -122.5t-21 -122.5t-58 -100.5t-86 -68t-105 -25t-105 25t-86 68t-58 100.5t-21 122.5h-101v-300h-100v600h100v-260h103q6 58 29.5 108.5t59 87.5t81.5 58.5t98 21.5zM477 559q-31 0 -55 -14.5t-40.5 -39.5t-25.5 -58.5
t-9 -71.5q0 -62 20 -122t53.5 -107t76.5 -76t88 -29q27 0 50.5 12.5t41.5 36.5t28 58t10 77q0 67 -22 128t-56.5 106.5t-76.5 72.5t-83 27z" />
    <glyph glyph-name="afii10049" unicode="&#x42f;" horiz-adv-x="540" 
d="M361 0v300h-31q-30 0 -48.5 -15t-29.5 -38l-122 -247h-120l140 270q19 36 54 52q-31 4 -57.5 15.5t-45.5 28.5t-29.5 39.5t-10.5 48.5q0 32 16.5 58.5t46 46t70 30.5t88.5 11h199v-40h-20v-560h-100zM361 560h-84q-22 0 -43 -4t-37 -13.5t-26 -25t-10 -37.5
q0 -30 11 -55.5t30.5 -44.5t45.5 -29.5t57 -10.5h56v220z" />
    <glyph glyph-name="afii10065" unicode="&#x430;" horiz-adv-x="377" 
d="M373 0h-87l-15 45q-39 -26 -73 -41t-76 -15q-44 0 -75.5 25.5t-31.5 77.5q0 33 19 59.5t46 51t55.5 48t46.5 49.5l-22 60l-65 -10l-7 22l142 39zM193 270q-18 -22 -37.5 -38.5t-35.5 -34t-26.5 -37.5t-10.5 -49q0 -35 23 -54t55 -19q28 0 50 6t51 25z" />
    <glyph glyph-name="afii10066" unicode="&#x431;" 
d="M225 400q33 0 66.5 -15t61 -41.5t45 -63.5t17.5 -80q0 -44 -15 -82t-40.5 -67t-60.5 -45.5t-74 -16.5t-74 19t-60.5 51.5t-40.5 76.5t-15 94q0 33 2.5 73t9 81t18.5 79.5t31.5 68t47 47.5t65.5 18q32 0 66 -8.5t60 -8.5q12 0 23 5.5t17 14.5l17 -7q-20 -42 -40.5 -57.5
t-51.5 -15.5q-26 0 -55 8.5t-55 8.5q-32 0 -54 -23t-36 -57.5t-22 -75t-11 -75.5q26 45 67.5 69.5t90.5 24.5zM188 362q-40 0 -61.5 -34t-21.5 -85q0 -41 13.5 -80t35 -69t50 -48.5t58.5 -18.5q40 0 61.5 34t21.5 85q0 40 -13 79t-35 69.5t-50.5 49t-58.5 18.5z" />
    <glyph glyph-name="afii10067" unicode="&#x432;" horiz-adv-x="383" 
d="M50 370h-20v30h20h140q35 0 60 -4t42 -12q38 -17 38 -48q0 -23 -17.5 -41.5t-39.5 -32.5l-26 -17q52 -23 85 -56.5t33 -81.5q0 -23 -12 -43t-32.5 -34t-48.5 -22t-59 -8h-163v370zM130 30h90q30 0 47.5 14t17.5 39q0 41 -22.5 76t-82.5 66v11q38 17 59 40.5t21 42.5
q0 26 -29 38.5t-71 12.5h-30v-340z" />
    <glyph glyph-name="afii10068" unicode="&#x433;" horiz-adv-x="337" 
d="M50 0v370h-20v30h20h280l-20 -80q-11 15 -21 24.5t-21.5 15.5t-25 8t-32.5 2h-80v-370h-80z" />
    <glyph glyph-name="afii10069" unicode="&#x434;" horiz-adv-x="413" 
d="M41 30q27 49 45.5 91.5t32.5 82.5t24 80t19 86l-11 30h87l133 -370h35q-3 -43 -12 -76t-23.5 -60t-35.5 -51t-48 -49l-39 37q54 38 86 78.5t38 90.5h-245q-19 0 -33 -2t-25 -7.5t-21 -15.5t-21 -25l-20 80h34zM182 315q-9 -37 -17.5 -68.5t-20 -63.5t-27.5 -69t-40 -84
h207z" />
    <glyph glyph-name="afii10070" unicode="&#x435;" horiz-adv-x="397" 
d="M315 257q-8 22 -22.5 43t-33 37t-39.5 26t-42 10q-10 0 -23.5 -3.5t-26 -15.5t-22 -35t-11.5 -62h220zM97 227q4 -41 18.5 -77t36 -63.5t47.5 -43.5t55 -16q26 0 49 17t41 42l11 -17q-30 -42 -62 -61t-78 -19q-39 0 -74 16.5t-60.5 45.5t-40.5 67t-15 82q0 43 15 81.5
t40.5 67.5t60.5 45.5t74 16.5q32 0 60.5 -14t51 -38.5t37 -58t17.5 -73.5h-284z" />
    <glyph glyph-name="afii10072" unicode="&#x436;" horiz-adv-x="501" 
d="M208 274q-42 -39 -76 -109t-52 -165h-76q12 51 33.5 95t48.5 82.5t58 70.5t64 58v19l-34 21q-14 8 -26 12t-26 4q-13 0 -24.5 -11.5t-13.5 -34.5l-57 28q5 27 21 45.5t45 18.5q25 0 51.5 -14.5t63.5 -36.5v43h80v-57q42 31 69.5 48t53.5 17q29 0 44 -12.5t29 -33.5
l-58 -33q-7 20 -19 26.5t-23 6.5t-20.5 -1.5t-20 -6.5t-23.5 -14t-32 -23q49 -36 85 -72t61 -74t40 -80t23 -91h-80q-3 37 -10 74.5t-21 73.5t-38 70t-60 66v-284h-80v274z" />
    <glyph glyph-name="afii10073" unicode="&#x437;" horiz-adv-x="322" 
d="M182 244q17 9 24.5 24t7.5 33q0 13 -5 26.5t-15 25t-25 19t-34 7.5q-21 0 -35 -10.5t-14 -27.5q0 -9 2 -16.5t8 -14.5l-47 -27q-14 16 -14 39q0 15 8.5 30.5t24 28.5t37 21.5t47.5 8.5q25 0 47.5 -7t39.5 -18.5t26.5 -26.5t9.5 -32q0 -32 -14.5 -53t-46.5 -41
q38 -14 65 -43t27 -67q0 -27 -12 -51.5t-34 -43t-52.5 -29t-67.5 -10.5q-56 0 -89.5 19t-54.5 49l67 39q17 -29 41.5 -50t65.5 -21q29 0 47.5 15.5t18.5 47.5q0 37 -17.5 66t-56.5 46q-11 -4 -20.5 -6t-19.5 -2q-14 0 -23.5 8.5t-9.5 21.5q0 12 11.5 20.5t28.5 8.5
q13 0 26.5 -2.5t26.5 -4.5z" />
    <glyph glyph-name="afii10074" unicode="&#x438;" 
d="M50 0v400h80v-195l180 115v80h80v-400h-80v285l-180 -115v-170h-80z" />
    <glyph glyph-name="afii10075" unicode="&#x439;" 
d="M50 0v400h80v-195l180 115v80h80v-400h-80v285l-180 -115v-170h-80zM358 550q-27 -33 -61.5 -56t-79.5 -23q-20 0 -35.5 6.5t-27.5 15.5t-20.5 19t-14.5 18l65 32q26 -52 68 -52q23 0 41.5 10.5t48.5 36.5z" />
    <glyph glyph-name="afii10076" unicode="&#x43a;" horiz-adv-x="396" 
d="M130 0h-80v400h80v-170h39l75 133q9 17 23 27t34 10h26v-60h-46q-22 0 -31 -17l-50 -93h12q24 0 46.5 -13t36.5 -37l99 -180h-93l-84 165q-6 12 -21.5 23.5t-32.5 11.5h-33v-200z" />
    <glyph glyph-name="afii10077" unicode="&#x43b;" horiz-adv-x="383" 
d="M372 0h-90l-125 329q-20 -52 -35 -96t-25.5 -84t-18 -76.5t-11.5 -72.5h-60l134 370l-11 30h87z" />
    <glyph glyph-name="afii10078" unicode="&#x43c;" horiz-adv-x="544" 
d="M534 0h-86l-92 326l-108 -333l-116 333q-15 -47 -26.5 -88t-20 -79.5t-13.5 -77t-6 -81.5h-60q13 48 26 91t26 85.5t27.5 88t32.5 99.5l-11 36h85l81 -229l69 193l-10 36h85z" />
    <glyph glyph-name="afii10079" unicode="&#x43d;" 
d="M50 0v400h80v-170h180v170h80v-400h-80v200h-180v-200h-80z" />
    <glyph glyph-name="afii10080" unicode="&#x43e;" horiz-adv-x="430" 
d="M215 411q39 0 74 -16.5t60.5 -45.5t40.5 -67.5t15 -81.5q0 -44 -15 -82t-40.5 -67t-60.5 -45.5t-74 -16.5t-74 16.5t-60.5 45.5t-40.5 67t-15 82q0 43 15 81.5t40.5 67.5t60.5 45.5t74 16.5zM178 373q-40 0 -61.5 -34t-21.5 -85q0 -41 13.5 -82t35 -73t50 -52t58.5 -20
q40 0 61.5 34t21.5 85q0 40 -13 80.5t-35 73t-50.5 53t-58.5 20.5z" />
    <glyph glyph-name="afii10081" unicode="&#x43f;" 
d="M310 0v370h-180v-370h-80v370h-20v30h20h340h20v-30h-20v-370h-80z" />
    <glyph glyph-name="afii10082" unicode="&#x440;" horiz-adv-x="435" 
d="M220 411q39 0 74 -16.5t60.5 -45.5t40.5 -67.5t15 -81.5q0 -44 -15 -82t-40 -66t-57.5 -44.5t-67.5 -16.5q-15 0 -35 4.5t-41 15.5t-40.5 29.5t-33.5 46.5v-28q0 -85 9.5 -152t24.5 -107h-70v390q0 62 15.5 104.5t40.5 68.5t56.5 37t63.5 11zM183 373q-40 0 -61.5 -34
t-21.5 -85q0 -41 13.5 -82t35 -73t50 -52t58.5 -20q40 0 61.5 34t21.5 85q0 40 -13 80.5t-35 73t-50.5 53t-58.5 20.5z" />
    <glyph glyph-name="afii10083" unicode="&#x441;" horiz-adv-x="353" 
d="M215 -11q-39 0 -74 16.5t-60.5 45.5t-40.5 67t-15 82q0 43 15 81.5t40.5 67.5t60.5 45.5t74 16.5q45 0 72.5 -18.5t50.5 -43.5l-66 -38q-21 29 -44.5 45.5t-49.5 16.5q-38 0 -60.5 -32.5t-22.5 -80.5q0 -46 13.5 -88t35.5 -74.5t50.5 -51.5t59.5 -19q26 0 49 17t41 42
l11 -17q-30 -42 -62 -61t-78 -19z" />
    <glyph glyph-name="afii10084" unicode="&#x442;" horiz-adv-x="400" 
d="M160 0v370h-30q-19 0 -33 -2t-25 -7.5t-21 -15.5t-21 -25l-20 80h380l-20 -80q-11 15 -21 24.5t-21.5 15.5t-25 8t-32.5 2h-30v-370h-80z" />
    <glyph glyph-name="afii10085" unicode="&#x443;" horiz-adv-x="395" 
d="M222 53l84 295q14 52 54 52h19v-60h-23q-20 0 -26 -21l-149 -519h-32l58 200h-54l-143 400h90z" />
    <glyph glyph-name="afii10086" unicode="&#x444;" horiz-adv-x="520" 
d="M279 411q44 0 82.5 -16.5t67.5 -45.5t45.5 -67.5t16.5 -81.5q0 -45 -19 -83.5t-49 -67t-68 -44.5t-76 -16v-189h-38v189q-44 0 -82.5 16.5t-67.5 45.5t-45.5 67t-16.5 82q0 45 19 83.5t49 67t68 44.5t76 16v129h-41l19 60h60v-189zM421 160q0 37 -11 70.5t-30.5 60.5
t-45 46.5t-55.5 28.5v-338q4 -1 11 -1q61 0 96 36.5t35 96.5zM99 240q0 -37 11 -70t30 -60t45 -46.5t56 -29.5v338q-4 1 -11 1q-61 0 -96 -36.5t-35 -96.5z" />
    <glyph glyph-name="afii10087" unicode="&#x445;" horiz-adv-x="331" 
d="M234 0l-97 173q-23 -40 -38.5 -80t-28.5 -93h-60l112 201l-112 199h92l67 -118l46 83q11 20 26.5 27.5t36.5 7.5h16v-60h-40q-21 0 -31 -17l-40 -68l144 -255h-93z" />
    <glyph glyph-name="afii10088" unicode="&#x446;" 
d="M390 400v-370h44q-3 -43 -12 -76t-23.5 -60t-35.5 -51t-48 -49l-39 37q54 38 86 78.5t38 90.5h-350h-20v30h20v370h80v-370h180v370h80z" />
    <glyph glyph-name="afii10089" unicode="&#x447;" horiz-adv-x="400" 
d="M350 0h-80v280q-25 -23 -54 -38t-67 -15q-67 0 -95 53l-59 111l81 18l51 -109q7 -15 22.5 -25t35.5 -10q24 0 44 16t41 36v83h80v-400z" />
    <glyph glyph-name="afii10090" unicode="&#x448;" horiz-adv-x="620" 
d="M50 400h80v-370h140v370h80v-370h140v370h80v-370h20v-30h-20h-520h-20v30h20v370z" />
    <glyph glyph-name="afii10091" unicode="&#x449;" horiz-adv-x="620" 
d="M130 400v-370h140v370h80v-370h140v370h80v-370h44q-3 -43 -12 -76t-23.5 -60t-35.5 -51t-48 -49l-39 37q54 38 86 78.5t38 90.5h-530h-20v30h20v370h80z" />
    <glyph glyph-name="afii10092" unicode="&#x44a;" horiz-adv-x="480" 
d="M150 0h-20v30h20v340h-30q-19 0 -33 -2t-25 -7.5t-21 -15.5t-21 -25l-20 80h230h20v-30h-20v-340h90q30 0 47.5 14t17.5 39q0 20 -5 37.5t-19 34.5t-38 34t-63 36l54 39q75 -32 113 -70.5t38 -86.5q0 -23 -12 -43t-32.5 -34t-48.5 -22t-59 -8h-83h-80z" />
    <glyph glyph-name="afii10093" unicode="&#x44b;" horiz-adv-x="550" 
d="M50 400h80v-370h90q30 0 47.5 14t17.5 39q0 20 -5 37.5t-19 34.5t-38 34t-63 36l54 39q75 -32 113 -70.5t38 -86.5q0 -23 -12 -43t-32.5 -34t-48.5 -22t-59 -8h-83h-80h-20v30h20v370zM490 400v-400h-80v400h80z" />
    <glyph glyph-name="afii10094" unicode="&#x44c;" horiz-adv-x="380" 
d="M50 400h80v-370h90q30 0 47.5 14t17.5 39q0 20 -5 37.5t-19 34.5t-38 34t-63 36l54 39q75 -32 113 -70.5t38 -86.5q0 -23 -12 -43t-32.5 -34t-48.5 -22t-59 -8h-83h-80h-20v30h20v370z" />
    <glyph glyph-name="afii10095" unicode="&#x44d;" horiz-adv-x="362" 
d="M337 200q0 -44 -15 -82t-41.5 -67t-62 -45.5t-76.5 -16.5q-45 0 -72.5 18.5t-50.5 43.5l66 38q21 -29 44.5 -45.5t49.5 -16.5q44 0 66 32.5t22 80.5v19.5t-2 19.5q-20 14 -41 22t-40 8q-26 0 -50 -7.5t-47 -27.5l-36 46q25 13 48.5 19t57.5 6q29 0 53.5 -10t47.5 -25
q-8 34 -23 64t-35 52t-43 34.5t-48 12.5q-24 0 -44 -17t-31 -35l-17 13q20 35 52 56t78 21q39 0 74 -16.5t60.5 -45.5t40.5 -67.5t15 -81.5z" />
    <glyph glyph-name="afii10096" unicode="&#x44e;" horiz-adv-x="605" 
d="M202 230q5 38 21.5 71t41.5 57.5t57 38.5t68 14q39 0 74 -16.5t60.5 -45.5t40.5 -67.5t15 -81.5q0 -44 -15 -82t-40.5 -67t-60.5 -45.5t-74 -16.5t-74 16.5t-60.5 45.5t-40.5 67t-15 82h-70v-200h-80v400h80v-170h72zM353 373q-40 0 -61.5 -34t-21.5 -85q0 -41 13.5 -82
t35 -73t50 -52t58.5 -20q40 0 61.5 34t21.5 85q0 40 -13 80.5t-35 73t-50.5 53t-58.5 20.5z" />
    <glyph glyph-name="afii10097" unicode="&#x44f;" horiz-adv-x="375" 
d="M245 0v200h-15q-17 0 -32.5 -11.5t-21.5 -23.5l-84 -165h-92l98 180q7 12 14 20.5t20 14.5q-38 7 -62.5 31t-24.5 54q0 23 11 41.5t30.5 31.5t46 20t57.5 7h135h20v-30h-20v-370h-80zM245 370h-63q-29 0 -48.5 -13t-19.5 -42q0 -35 25 -60t60 -25h46v140z" />
    <glyph glyph-name="quotedbl" unicode="&#x22;" horiz-adv-x="240" 
d="M90 600v-140h-40l-40 140h80zM230 600l-40 -140h-40v140h80z" />
    <glyph glyph-name="exclam" unicode="!" horiz-adv-x="180" 
d="M120 200h-60l-19 400h98zM90 109q21 0 35.5 -17.5t14.5 -42.5t-14.5 -42.5t-35.5 -17.5t-35.5 17.5t-14.5 42.5t14.5 42.5t35.5 17.5z" />
  </font>
</defs>
</svg>
