<svg width="32" height="32" viewBox="0 0 32 32" fill="none" xmlns="http://www.w3.org/2000/svg">
<path d="M31 22L1 26.5M1 5L11.2446 6.5115M11.2446 6.5115C9.6963 7.71889 8.78146 9.53027 8.50007 11.5C8.25276 13.2312 8.50239 14.7967 8.84718 15.9366C9.15227 16.9452 10.1629 17.4375 11.1839 17.6982C13.9149 18.3956 14.832 20.7863 14.9922 22.5015C15.0421 23.0361 15.4631 23.5 16.0001 23.5V23.5V23.5C16.5371 23.5 16.9581 23.0362 17.008 22.5016C17.1681 20.7864 18.0852 18.3956 20.8162 17.6982C21.8372 17.4375 22.8479 16.9452 23.153 15.9366C23.4978 14.7967 23.7474 13.2312 23.5001 11.5C23.3262 10.2831 22.9106 9.12666 22.2532 8.13572M11.2446 6.5115C12.4474 5.57348 14.0326 5 16.0001 5C18.9355 5 21.0199 6.27655 22.2532 8.13572M22.2532 8.13572L31 9.5M4 31H28C29.6569 31 31 29.6569 31 28V4C31 2.34315 29.6569 1 28 1H4C2.34315 1 1 2.34315 1 4V28C1 29.6569 2.34315 31 4 31Z" stroke="#274641"/>
</svg>
