<svg width="32" height="32" viewBox="0 0 32 32" fill="none" xmlns="http://www.w3.org/2000/svg">
<path d="M28 1H4C2.34315 1 1 2.34315 1 4V28C1 29.6569 2.34315 31 4 31H28C29.6569 31 31 29.6569 31 28V4C31 2.34315 29.6569 1 28 1Z" stroke="#274641"/>
<path d="M4.60361 15.3886L9.50509 17.2916C10.0625 19.1753 11.235 23.0811 11.4657 23.6347C11.6964 24.1882 12.2153 23.9806 12.446 23.8077C13.2148 23.1733 14.8448 21.824 15.2139 21.5011C15.5829 21.1782 16.1365 21.3665 16.3672 21.5011L20.865 24.8456C21.0957 25.0186 21.6723 25.5376 22.0183 25.4223C22.3643 25.3069 22.3643 25.0763 22.5373 24.3266C23.6137 19.1176 25.8126 8.45736 25.9971 7.4886C26.2278 6.27765 26.1527 6.23513 26.0548 6.10465C25.8818 5.87399 25.3436 6.08543 25.1322 6.16232L5.06493 13.8894L4.48828 14.12C3.73867 14.466 3.91165 15.158 4.60361 15.3886Z" stroke="#274641" stroke-linecap="round" stroke-linejoin="round"/>
<path d="M11.293 17.0028L12.5039 20.751C12.5808 20.4627 12.6769 19.7707 12.8499 18.9057C13.0048 18.1314 13.0229 17.9831 13.3689 17.6371L21.3266 10.0254C18.1166 11.9668 11.639 15.9072 11.4083 16.1378C11.1776 16.3685 11.2353 16.8106 11.293 17.0028Z" stroke="#274641" stroke-linecap="round" stroke-linejoin="round"/>
</svg>
