<svg width="32" height="32" viewBox="0 0 32 32" fill="none" xmlns="http://www.w3.org/2000/svg">
<path d="M31 28V4C31 2.34315 29.6569 1 28 1H16H4C2.34315 1 1 2.34315 1 4V28C1 29.6569 2.34315 31 4 31H16H28C29.6569 31 31 29.6569 31 28Z" stroke="#274641"/>
<path d="M18.8885 26.3674C20.2501 25.9869 21.7252 25.1216 22.2244 24.7366C22.2244 24.7366 22.7418 24.3905 23.0339 24.1217C23.2977 23.8791 23.4149 23.7122 23.6541 23.4454C24.2581 22.7721 24.6591 22.4371 25.1519 21.6787C25.5532 21.0611 25.6706 20.8151 26.011 19.9997C26.3514 19.1842 26.5816 18.281 26.7178 16.854C26.8267 15.7124 26.6724 14.2038 26.5816 13.5922C26.4681 13.0486 26.0835 11.5571 25.1519 10.1266C24.2669 8.76757 23.0414 7.68029 22.2925 7.06871C21.5436 6.45713 19.5119 5.52476 18.6842 5.36988C17.595 5.16604 16.6068 4.91191 15.0079 5.03012C13.1697 5.16602 11.8081 5.70964 10.2422 6.59304C9.66668 6.96743 9.35104 7.23278 9.35104 7.23278C9.29379 7.29003 7.69077 8.60679 7.17552 9.35105C6.66026 10.0953 6.54576 10.2671 6.20226 10.8968C5.94649 11.3657 5.64934 12.1598 5.54464 12.505L5.54462 12.505C5.27231 13.3204 5 14.1359 4.99999 15.6988C4.99999 17.4669 5.12968 18.3072 5.54464 19.3683C5.85875 20.1714 6.12541 20.8181 6.48851 21.3164L5.14444 26.6927L5.11449 26.8125L5.18618 26.7938L10.6106 25.3812C10.7823 25.4957 10.9911 25.6199 10.9911 25.6199C11.9442 26.1636 13.8505 26.6392 14.6675 26.7072C15.4844 26.7752 17.1865 26.8431 18.8885 26.3674Z" stroke="#274641"/>
<path d="M20.7696 18.4096C20.9057 18.6839 20.8824 19.5387 20.4817 20.0604C19.9808 20.7124 18.9932 21.2626 17.7909 21.0909C17.3901 21.0336 15.5008 20.4612 14.3558 19.7742C13.2108 19.0872 11.4933 17.3124 10.5772 15.9384C9.66123 14.5644 9.71848 13.4766 9.71848 12.9041C9.71848 12.3316 10.1192 11.4728 10.8062 11.0148C11.3558 10.6484 12.1421 10.8621 12.4093 11.0148C12.7337 11.74 13.394 13.2247 13.4398 13.3621C13.497 13.5338 13.6115 13.8201 13.3253 14.1063C13.039 14.3926 12.6322 14.8054 12.581 14.9079C12.5238 15.0224 12.5238 15.3086 13.039 15.9384C13.5543 16.5681 13.8406 16.8544 14.5276 17.4269C14.9856 17.8276 16.1879 18.6291 16.8176 18.4096C16.9258 18.3719 17.4287 17.5741 17.7329 17.3084C18.037 17.0426 18.3164 17.174 18.4847 17.2415C18.6193 17.2955 20.064 18.0428 20.7696 18.4096Z" stroke="#274641"/>
<path d="M18.3969 24.8146C19.5419 24.494 20.7824 23.765 21.2022 23.4406C21.622 23.1161 22.2635 22.6503 22.8052 22.0094C23.1576 21.5925 23.3215 21.3297 23.6067 20.8643L23.62 20.8426C23.9394 20.3214 24.0686 20.1107 24.351 19.433C24.6372 18.746 24.8662 18.0017 24.9807 16.7995C25.0723 15.8377 24.9426 14.5667 24.8662 14.0514C24.7708 13.5934 24.4474 12.3369 23.664 11.1317C22.9197 9.98668 21.8892 9.07064 21.2594 8.55539C20.6297 8.04013 18.9212 7.25461 18.2252 7.12412C17.3092 6.95239 16.4782 6.73828 15.1336 6.83788C13.5879 6.95237 12.4428 7.41037 11.1261 8.15463C9.80932 8.89889 8.83605 10.1012 8.32079 10.8454C7.80554 11.5897 7.37075 12.5505 7.17576 13.1355C6.94677 13.8225 6.71778 14.5095 6.71777 15.8262C6.71777 17.3158 6.88953 18.0017 7.17578 18.9178C7.44578 19.7818 8.07271 20.8452 8.37804 21.265L7.66176 24.2955L7.63378 24.4138L7.75415 24.3832L10.7826 23.6123C10.8589 23.6505 11.1488 23.838 11.7558 24.1848C12.5573 24.6428 14.1604 25.0436 14.8474 25.1008C15.5344 25.1581 16.9656 25.2153 18.3969 24.8146Z" stroke="#274641"/>
</svg>
